<svg width="16" height="20" viewBox="0 0 16 20" fill="none" xmlns="http://www.w3.org/2000/svg">
<g clip-path="url(#clip0_5347_9789)">
<path d="M12.9693 10.5732C12.995 13.3476 15.4032 14.2708 15.4298 14.2826C15.4095 14.3477 15.0451 15.5983 14.1611 16.8901C13.397 18.0069 12.6039 19.1196 11.3546 19.1427C10.1271 19.1653 9.73234 18.4148 8.32887 18.4148C6.92584 18.4148 6.48728 19.1197 5.32524 19.1653C4.11935 19.211 3.20103 17.9577 2.43059 16.8449C0.856216 14.5688 -0.346932 10.4131 1.26859 7.60796C2.07115 6.21491 3.50538 5.33278 5.06211 5.31016C6.24627 5.28757 7.36395 6.10682 8.08787 6.10682C8.81134 6.10682 10.1696 5.1216 11.5974 5.26629C12.1952 5.29117 13.8732 5.50775 14.9506 7.08484C14.8637 7.13866 12.9485 8.25364 12.9693 10.5732ZM10.6622 3.76044C11.3024 2.98548 11.7333 1.90666 11.6158 0.833252C10.6929 0.870342 9.57703 1.4482 8.91511 2.22273C8.3219 2.90861 7.80238 4.00641 7.94256 5.05858C8.97116 5.13816 10.0219 4.53589 10.6622 3.76044Z" fill="#FE7A39"/>
</g>
<defs>
<clipPath id="clip0_5347_9789">
<rect width="14.9307" height="18.3333" fill="white" transform="translate(0.5 0.833252)"/>
</clipPath>
</defs>
</svg>
