<svg width="250" height="200" viewBox="0 0 250 200" fill="none" xmlns="http://www.w3.org/2000/svg">
<g clip-path="url(#clip0_1272_18733)">
<path d="M72.6838 32.6928L29.5862 91.5341C29.1464 92.1118 28.8794 92.8046 28.8158 93.5324C28.7523 94.2601 28.8949 94.993 29.2272 95.6462C29.5594 96.2995 30.0677 96.8464 30.6932 97.2236C31.3188 97.6009 32.036 97.7931 32.7618 97.778L154.237 97.4528C155.046 97.4534 155.832 97.1971 156.484 96.7204C157.135 96.2436 157.619 95.5707 157.866 94.7974C158.113 94.0241 158.11 93.1897 157.859 92.4131C157.608 91.6365 157.12 90.9572 156.466 90.4718L78.0757 31.8995C77.2482 31.2876 76.2171 31.0276 75.2071 31.1762C74.1971 31.3248 73.2901 31.8699 72.6838 32.6928Z" fill="#DAE7F0"/>
<path d="M199.603 110.063L69.1902 109.711C68.2377 109.698 67.2985 109.955 66.4798 110.452C65.6611 110.95 64.996 111.668 64.5603 112.524C64.1247 113.38 63.9362 114.341 64.0163 115.295C64.0965 116.25 64.442 117.16 65.0134 117.923L111.257 181.052C111.652 181.59 112.149 182.043 112.72 182.386C113.291 182.729 113.925 182.955 114.584 183.051C115.244 183.146 115.918 183.11 116.566 182.944C117.214 182.778 117.824 182.485 118.362 182.082L202.531 119.304C203.404 118.668 204.056 117.772 204.395 116.744C204.733 115.716 204.74 114.61 204.415 113.583C204.09 112.557 203.449 111.663 202.584 111.031C201.72 110.398 200.676 110.059 199.603 110.063Z" fill="#DAE7F0"/>
<path d="M204.949 12.419L129.009 49.6157C128.553 49.8443 128.161 50.1844 127.868 50.6043C127.576 51.0242 127.393 51.51 127.337 52.0161C127.282 52.5222 127.355 53.0321 127.549 53.4979C127.744 53.9637 128.054 54.3701 128.451 54.679L187.415 100.321C187.814 100.625 188.285 100.822 188.784 100.892C189.283 100.963 189.794 100.904 190.269 100.723C190.744 100.541 191.167 100.243 191.499 99.8548C191.832 99.4668 192.062 99.0023 192.169 98.5045L209.143 15.666C209.255 15.119 209.213 14.5541 209.023 14.0347C208.832 13.5153 208.501 13.0618 208.066 12.7249C207.631 12.3879 207.109 12.1809 206.558 12.1269C206.007 12.0729 205.45 12.174 204.949 12.419Z" fill="#DAE7F0"/>
<g filter="url(#filter0_d_1272_18733)">
<rect x="70.4141" y="71.3184" width="107" height="78" rx="4" fill="white"/>
<rect x="80.4141" y="81.3184" width="87" height="46" rx="4" fill="#3A8FC6"/>
<path d="M115.414 112.943V96.6938C115.414 95.1743 117.042 94.2098 118.375 94.9397L133.211 103.064C134.597 103.823 134.597 105.814 133.211 106.573L118.375 114.697C117.042 115.427 115.414 114.462 115.414 112.943Z" fill="white"/>
<rect x="80.4141" y="134.318" width="87" height="4" rx="2" fill="#647681"/>
<rect x="94.4141" y="130.318" width="3" height="12" rx="1.5" fill="#B9C9D2"/>
</g>
<path d="M164.767 49.0705L159.818 51.4948C159.788 51.5097 159.762 51.5319 159.743 51.5593C159.724 51.5866 159.712 51.6183 159.709 51.6513C159.705 51.6843 159.71 51.7175 159.723 51.7478C159.735 51.7782 159.756 51.8047 159.781 51.8248L163.624 54.7996C163.65 54.8194 163.681 54.8322 163.714 54.8368C163.746 54.8414 163.779 54.8376 163.81 54.8258C163.841 54.814 163.869 54.7945 163.891 54.7692C163.912 54.7439 163.927 54.7136 163.934 54.6812L165.041 49.2821C165.048 49.2465 165.045 49.2096 165.033 49.1758C165.02 49.1419 164.999 49.1124 164.97 49.0904C164.942 49.0685 164.908 49.055 164.872 49.0514C164.836 49.0479 164.8 49.0545 164.767 49.0705Z" fill="#185E8A"/>
<path d="M210.49 76.0685L201.473 73.864C201.418 73.8512 201.361 73.8522 201.307 73.8671C201.253 73.8819 201.204 73.91 201.163 73.9487C201.123 73.9875 201.093 74.0356 201.077 74.0885C201.061 74.1415 201.058 74.1976 201.07 74.2515L202.831 82.245C202.843 82.2987 202.869 82.3484 202.906 82.3894C202.943 82.4304 202.99 82.4614 203.043 82.4795C203.096 82.4976 203.152 82.5022 203.208 82.4929C203.263 82.4836 203.315 82.4606 203.359 82.4261L210.615 76.6371C210.663 76.5989 210.699 76.5483 210.719 76.4911C210.74 76.434 210.744 76.3725 210.731 76.3134C210.718 76.2544 210.688 76.2003 210.646 76.157C210.603 76.1137 210.549 76.0831 210.49 76.0685Z" fill="#185E8A"/>
<path d="M112.014 34.1993L101.218 33.665C101.153 33.6623 101.088 33.6761 101.029 33.705C100.97 33.7339 100.92 33.777 100.882 33.8301C100.845 33.8833 100.821 33.9449 100.814 34.009C100.807 34.0732 100.817 34.1378 100.842 34.1969L104.617 42.9494C104.642 43.0082 104.683 43.0593 104.734 43.098C104.786 43.1367 104.847 43.1618 104.911 43.1709C104.975 43.1799 105.041 43.1727 105.102 43.1498C105.163 43.127 105.218 43.0892 105.261 43.0402L112.282 34.822C112.329 34.7677 112.359 34.7019 112.37 34.632C112.381 34.5622 112.372 34.4909 112.344 34.4263C112.316 34.3617 112.27 34.3063 112.212 34.2662C112.154 34.2261 112.085 34.203 112.014 34.1993Z" fill="#9AAFBC"/>
<path d="M203.56 129.25L197.266 131.019C197.228 131.03 197.193 131.05 197.165 131.078C197.137 131.106 197.116 131.14 197.105 131.178C197.094 131.216 197.092 131.255 197.101 131.294C197.109 131.332 197.127 131.367 197.153 131.396L200.999 135.69C201.025 135.719 201.058 135.74 201.095 135.753C201.132 135.765 201.172 135.768 201.211 135.761C201.249 135.753 201.286 135.737 201.316 135.712C201.347 135.687 201.371 135.655 201.386 135.618L203.834 129.556C203.85 129.516 203.854 129.472 203.847 129.43C203.84 129.388 203.821 129.349 203.793 129.317C203.764 129.286 203.727 129.263 203.686 129.251C203.645 129.239 203.601 129.239 203.56 129.25Z" fill="#9AAFBC"/>
<path d="M88.8803 159.272L82.1788 155.07C82.1381 155.045 82.0917 155.031 82.0439 155.028C81.9961 155.026 81.9485 155.035 81.9055 155.055C81.8625 155.076 81.8256 155.107 81.7982 155.145C81.7708 155.184 81.7538 155.229 81.7488 155.275L81.0284 162.213C81.0239 162.26 81.0315 162.307 81.0505 162.35C81.0695 162.393 81.0993 162.431 81.1372 162.46C81.175 162.489 81.2196 162.507 81.2669 162.515C81.3141 162.522 81.3624 162.517 81.4072 162.501L88.8291 159.766C88.878 159.748 88.9209 159.716 88.9528 159.676C88.9847 159.635 89.0044 159.586 89.0097 159.535C89.015 159.484 89.0057 159.432 88.9829 159.386C88.96 159.339 88.9245 159.3 88.8803 159.272Z" fill="#185E8A"/>
<path d="M61.9267 81.0689L56.0487 81.5645C55.9901 81.5684 55.9337 81.5888 55.8859 81.6236C55.8382 81.6584 55.801 81.706 55.7788 81.761C55.7566 81.8159 55.7502 81.876 55.7604 81.9342C55.7706 81.9923 55.797 82.0463 55.8365 82.0898L62.3069 89.4826C62.3498 89.532 62.4072 89.5663 62.4709 89.5807C62.5346 89.5952 62.6013 89.5889 62.6616 89.5629C62.7219 89.5369 62.7727 89.4925 62.8067 89.4359C62.8407 89.3793 62.8563 89.3135 62.8512 89.2479L62.2614 81.3557C62.2548 81.2727 62.2159 81.196 62.1532 81.1423C62.0905 81.0885 62.0091 81.0622 61.9267 81.0689Z" fill="#185E8A"/>
</g>
<defs>
<filter id="filter0_d_1272_18733" x="50.4141" y="55.3184" width="147" height="118" filterUnits="userSpaceOnUse" color-interpolation-filters="sRGB">
<feFlood flood-opacity="0" result="BackgroundImageFix"/>
<feColorMatrix in="SourceAlpha" type="matrix" values="0 0 0 0 0 0 0 0 0 0 0 0 0 0 0 0 0 0 127 0" result="hardAlpha"/>
<feOffset dy="4"/>
<feGaussianBlur stdDeviation="10"/>
<feColorMatrix type="matrix" values="0 0 0 0 0.808264 0 0 0 0 0.83785 0 0 0 0 0.858333 0 0 0 0.8 0"/>
<feBlend mode="normal" in2="BackgroundImageFix" result="effect1_dropShadow_1272_18733"/>
<feBlend mode="normal" in="SourceGraphic" in2="effect1_dropShadow_1272_18733" result="shape"/>
</filter>
<clipPath id="clip0_1272_18733">
<rect width="250" height="200" fill="white"/>
</clipPath>
</defs>
</svg>
