<svg width="250" height="200" viewBox="0 0 250 200" fill="none" xmlns="http://www.w3.org/2000/svg">
<g clip-path="url(#clip0_1916_37437)">
<path d="M119.889 99.5873L79.5554 38.3506C79.1428 37.7485 78.9092 37.0395 78.8818 36.3056C78.8544 35.5718 79.0342 34.843 79.4005 34.2037C79.7667 33.5643 80.3044 33.0406 80.9514 32.6931C81.5983 32.3455 82.3281 32.1884 83.0562 32.2398L205.014 38.637C205.826 38.6768 206.602 38.9735 207.233 39.4847C207.863 39.996 208.315 40.6959 208.525 41.4847C208.734 42.2735 208.69 43.1112 208.399 43.8784C208.108 44.6456 207.584 45.3034 206.903 45.758L125.264 100.653C124.402 101.226 123.354 101.436 122.347 101.236C121.34 101.036 120.457 100.444 119.889 99.5873Z" fill="#FDD2BE"/>
<path d="M208.56 83.2505L202.266 85.0187C202.228 85.0298 202.193 85.0501 202.165 85.078C202.137 85.1058 202.116 85.1402 202.105 85.1779C202.094 85.2156 202.092 85.2554 202.101 85.2936C202.109 85.3317 202.127 85.3669 202.153 85.396L205.999 89.6901C206.025 89.7188 206.058 89.7403 206.095 89.7527C206.132 89.765 206.172 89.7677 206.211 89.7605C206.249 89.7533 206.286 89.7365 206.316 89.7117C206.347 89.6868 206.371 89.6547 206.386 89.6183L208.834 83.556C208.85 83.5159 208.854 83.4724 208.847 83.4302C208.84 83.3881 208.821 83.3489 208.793 83.3172C208.764 83.2855 208.727 83.2625 208.686 83.2507C208.645 83.2389 208.601 83.2388 208.56 83.2505Z" fill="#9AAFBC"/>
<path d="M218.305 191.64L224.458 58.8271C224.514 57.8575 224.294 56.8895 223.824 56.0335C223.353 55.1776 222.652 54.4682 221.799 53.9865C220.946 53.5047 219.976 53.2701 219 53.3092C218.024 53.3484 217.082 53.6599 216.28 54.2081L149.927 98.5031C149.361 98.8816 148.877 99.3678 148.502 99.9342C148.128 100.5 147.869 101.136 147.743 101.804C147.616 102.471 147.623 103.159 147.764 103.826C147.904 104.494 148.175 105.128 148.562 105.694L208.763 194.212C209.372 195.129 210.256 195.833 211.288 196.224C212.319 196.614 213.446 196.671 214.506 196.385C215.566 196.099 216.504 195.486 217.187 194.634C217.87 193.782 218.261 192.733 218.305 191.64Z" fill="#FDD2BE"/>
<path d="M29.0386 168.15L80.3447 74.4696C80.6594 73.9075 81.1112 73.4317 81.6578 73.0868C82.2045 72.742 82.828 72.5394 83.4698 72.4981C84.1117 72.4568 84.7509 72.5782 85.3274 72.8507C85.9039 73.1233 86.3989 73.5382 86.7658 74.0565L140.964 151.086C141.325 151.607 141.546 152.212 141.606 152.846C141.666 153.48 141.563 154.121 141.307 154.71C141.051 155.298 140.649 155.815 140.141 156.212C139.632 156.609 139.033 156.873 138.398 156.979L32.8943 173.63C32.1976 173.739 31.4873 173.654 30.8429 173.384C30.1984 173.114 29.6452 172.67 29.2451 172.101C28.845 171.533 28.6138 170.862 28.5774 170.164C28.5409 169.466 28.7006 168.769 29.0386 168.15Z" fill="#FDD2BE"/>
<path d="M70.1383 57.5854L65.1889 60.0097C65.1592 60.0246 65.1336 60.0468 65.1145 60.0741C65.0955 60.1015 65.0836 60.1332 65.0799 60.1662C65.0763 60.1992 65.081 60.2324 65.0937 60.2627C65.1064 60.2931 65.1266 60.3196 65.1525 60.3397L68.9956 63.3145C69.0216 63.3343 69.0522 63.3471 69.0848 63.3517C69.1173 63.3563 69.1506 63.3525 69.1815 63.3407C69.2125 63.3288 69.2401 63.3094 69.2617 63.2841C69.2834 63.2588 69.2984 63.2285 69.3054 63.1961L70.4117 57.797C70.419 57.7614 70.4162 57.7245 70.4038 57.6907C70.3914 57.6568 70.3698 57.6273 70.3415 57.6053C70.3131 57.5834 70.2791 57.5699 70.2432 57.5663C70.2073 57.5628 70.171 57.5694 70.1383 57.5854Z" fill="#EA8E63"/>
<path d="M171.323 165.957L165.342 163.044C165.306 163.027 165.266 163.019 165.225 163.021C165.185 163.023 165.146 163.035 165.112 163.056C165.078 163.077 165.05 163.106 165.03 163.141C165.011 163.176 165.001 163.214 165.001 163.254L165.02 169.12C165.021 169.16 165.031 169.198 165.051 169.233C165.071 169.267 165.099 169.296 165.133 169.317C165.167 169.337 165.206 169.349 165.247 169.351C165.287 169.353 165.327 169.345 165.363 169.327L171.324 166.375C171.363 166.355 171.396 166.325 171.419 166.288C171.442 166.251 171.455 166.209 171.454 166.165C171.454 166.122 171.442 166.08 171.419 166.043C171.395 166.006 171.362 165.976 171.323 165.957Z" fill="#EA8E63"/>
<path d="M202.703 91.68L195.381 91.0038C195.337 91.0001 195.291 91.0059 195.247 91.0208C195.204 91.0356 195.164 91.059 195.132 91.0888C195.1 91.1185 195.077 91.1537 195.065 91.1908C195.052 91.228 195.051 91.2661 195.062 91.3014L196.612 96.5341C196.623 96.5692 196.645 96.6004 196.676 96.6247C196.706 96.6491 196.745 96.6657 196.788 96.6732C196.831 96.6807 196.877 96.6787 196.921 96.6674C196.966 96.6561 197.007 96.636 197.042 96.6088L202.813 92.0522C202.851 92.0221 202.879 91.9848 202.895 91.9444C202.911 91.904 202.913 91.8621 202.901 91.8235C202.89 91.7849 202.865 91.751 202.83 91.7256C202.795 91.7003 202.751 91.6845 202.703 91.68Z" fill="white"/>
<path d="M99.8642 118.943L93.3421 117.348C93.3027 117.339 93.2615 117.34 93.2223 117.351C93.1831 117.361 93.1472 117.382 93.1181 117.41C93.0889 117.438 93.0674 117.472 93.0556 117.511C93.0438 117.549 93.0421 117.59 93.0505 117.629L94.3242 123.411C94.333 123.449 94.3517 123.485 94.3786 123.515C94.4054 123.545 94.4395 123.567 94.4777 123.58C94.5159 123.593 94.5569 123.597 94.5969 123.59C94.6369 123.583 94.6746 123.567 94.7064 123.542L99.9548 119.354C99.9894 119.327 100.016 119.29 100.03 119.249C100.045 119.207 100.048 119.163 100.039 119.12C100.029 119.077 100.008 119.038 99.9772 119.007C99.9464 118.976 99.9072 118.953 99.8642 118.943Z" fill="white"/>
<path d="M155.321 24.496L144.525 23.9616C144.46 23.959 144.395 23.9728 144.337 24.0016C144.278 24.0305 144.227 24.0736 144.19 24.1268C144.152 24.1799 144.129 24.2415 144.122 24.3056C144.115 24.3698 144.124 24.4345 144.15 24.4935L147.924 33.246C147.95 33.3048 147.991 33.3559 148.042 33.3946C148.094 33.4334 148.154 33.4584 148.219 33.4675C148.283 33.4766 148.349 33.4693 148.41 33.4465C148.471 33.4236 148.526 33.3859 148.568 33.3368L155.59 25.1186C155.636 25.0643 155.666 24.9986 155.677 24.9287C155.688 24.8588 155.679 24.7876 155.651 24.723C155.623 24.6583 155.578 24.6029 155.52 24.5628C155.461 24.5227 155.393 24.4996 155.321 24.496Z" fill="#FFB694"/>
<path d="M41.955 115.326L39.3769 121.447C39.3617 121.484 39.356 121.525 39.3603 121.565C39.3647 121.605 39.3789 121.643 39.4017 121.676C39.4245 121.709 39.4551 121.735 39.4907 121.753C39.5263 121.77 39.5656 121.778 39.6051 121.776L45.4524 121.437C45.4917 121.434 45.5298 121.421 45.5629 121.4C45.5961 121.378 45.6234 121.348 45.6421 121.313C45.6609 121.278 45.6705 121.238 45.6702 121.198C45.6699 121.158 45.6595 121.119 45.6402 121.084L42.3709 115.302C42.3493 115.264 42.3177 115.232 42.2796 115.211C42.2416 115.19 42.1985 115.181 42.1554 115.183C42.1122 115.186 42.0706 115.2 42.0352 115.226C41.9998 115.251 41.972 115.285 41.955 115.326Z" fill="#FFB694"/>
<g filter="url(#filter0_d_1916_37437)">
<path d="M56.1514 87.683L60.5312 87.6832C61.7325 87.6835 62.7355 88.6589 62.7381 89.8839L62.7427 92.059C62.7454 93.2588 61.7713 94.259 60.5452 94.2584L56.1653 94.2581L56.2491 133.609L60.6289 133.609C61.8305 133.609 62.8333 134.585 62.8358 135.81L62.8406 138.009C62.8434 139.209 61.8696 140.21 60.6426 140.209L56.2627 140.209L56.2726 144.559L126.351 144.564L126.341 140.189L121.987 140.188C120.785 140.188 119.782 139.213 119.779 137.988L119.774 135.813C119.772 134.613 120.746 133.613 121.972 133.613L126.352 133.614L126.268 94.2383L121.888 94.238C120.687 94.2376 119.684 93.2622 119.682 92.0373L119.677 89.8376C119.674 88.6371 120.648 87.6375 121.874 87.6374L126.254 87.6377L126.245 83.3128L56.1668 83.3084L56.1762 87.6833L56.1514 87.683ZM113.213 133.613C114.414 133.613 115.417 134.588 115.42 135.813L115.424 138.013C115.427 139.213 114.453 140.213 113.227 140.213L108.847 140.213C107.645 140.212 106.642 139.238 106.639 138.013L106.635 135.812C106.632 134.612 107.606 133.612 108.833 133.612L113.213 133.613ZM100.048 133.612C101.249 133.612 102.253 134.587 102.255 135.812L102.26 138.012C102.262 139.212 101.288 140.212 100.062 140.212L95.6818 140.212C94.4808 140.212 93.4773 139.236 93.4749 138.011L93.4701 135.812C93.4675 134.611 94.4417 133.612 95.6681 133.612L100.048 133.612ZM86.9084 133.611C88.1094 133.611 89.1126 134.586 89.1157 135.811L89.1201 138.011C89.1224 139.211 88.1485 140.211 86.9222 140.211L82.5423 140.211C81.3407 140.211 80.3376 139.236 80.3354 138.01L80.3306 135.811C80.3278 134.611 81.3016 133.611 82.5286 133.611L86.9084 133.611ZM73.7683 133.61C74.9699 133.61 75.9731 134.585 75.9756 135.81L75.98 138.01C75.9829 139.21 75.0091 140.21 73.7827 140.211L69.4029 140.21C68.2013 140.21 67.1981 139.235 67.1956 138.01L67.1912 135.81C67.1883 134.61 68.1621 133.61 69.3885 133.61L73.7683 133.61ZM113.115 87.6866C114.316 87.687 115.319 88.6623 115.322 89.8873L115.326 92.0625C115.329 93.2624 114.355 94.2624 113.129 94.2618L108.749 94.2615C107.548 94.2621 106.544 93.2864 106.542 92.0615L106.537 89.8618C106.534 88.6613 107.509 87.662 108.735 87.6619L113.115 87.6622L113.115 87.6866ZM99.9497 87.6859C101.151 87.6863 102.155 88.661 102.157 89.8859L102.162 92.0612C102.164 93.2617 101.19 94.261 99.9639 94.2611L95.584 94.2608C94.3831 94.2608 93.3793 93.2857 93.3768 92.0608L93.3723 89.8605C93.3695 88.6606 94.3439 87.6607 95.5703 87.6606L99.9501 87.6608L99.9497 87.6859ZM86.8103 87.685C88.0119 87.6854 89.015 88.6602 89.0175 89.8851L89.0224 92.0603C89.0243 93.2605 88.0508 94.2602 86.8244 94.2603L82.4446 94.26C81.243 94.2596 80.2398 93.2849 80.2373 92.0599L80.2328 89.8596C80.2301 88.6598 81.2041 87.6596 82.4305 87.6603L86.8104 87.6606L86.8103 87.685ZM73.6708 87.6842C74.8721 87.6844 75.8751 88.6599 75.8777 89.8848L75.8826 92.0593C75.885 93.2598 74.9112 94.2593 73.6848 94.2593L69.305 94.259C68.1034 94.2594 67.1003 93.284 67.0977 92.059L67.0929 89.8593C67.0905 88.6589 68.0645 87.6587 69.2907 87.6593L73.6706 87.6596L73.6708 87.6842Z" fill="#F99E74"/>
<path d="M73.699 100.81L73.7548 127.06C73.7576 128.26 74.7356 129.261 75.962 129.261L106.621 129.263C107.822 129.263 108.822 128.288 108.819 127.063L108.763 100.813C108.761 99.6122 107.783 98.6126 106.557 98.6121L75.8968 98.6104C74.6956 98.6102 73.6964 99.5854 73.699 100.81ZM56.2402 129.235L67.2025 129.236C68.4037 129.235 69.4029 128.261 69.3998 127.035L69.3444 100.785C69.3417 99.5848 68.3636 98.5845 67.1372 98.5846L56.1747 98.5842L56.2402 129.235Z" fill="white"/>
<path d="M126.179 87.6884L130.559 87.6887C131.76 87.6885 132.763 88.6638 132.766 89.8888L132.771 92.064C132.773 93.2639 131.799 94.2638 130.573 94.2633L126.193 94.263L126.277 133.614L130.657 133.614C131.858 133.614 132.861 134.59 132.864 135.815L132.869 138.015C132.871 139.215 131.897 140.214 130.671 140.214L126.291 140.214L126.3 144.564L196.378 144.569L196.369 140.194L191.989 140.194C190.788 140.193 189.785 139.219 189.782 137.994L189.777 135.818C189.775 134.618 190.749 133.619 191.975 133.619L196.355 133.619L196.271 94.2429L191.892 94.2426C190.69 94.2422 189.687 93.2675 189.684 92.0426L189.68 89.8423C189.677 88.6424 190.651 87.6421 191.877 87.6427L196.257 87.6429L196.248 83.3181L126.17 83.3132L126.179 87.6884ZM183.216 133.618C184.416 133.618 185.42 134.593 185.423 135.818L185.427 138.018C185.429 139.218 184.456 140.218 183.229 140.218L178.849 140.218C177.648 140.218 176.645 139.242 176.642 138.017L176.638 135.818C176.635 134.617 177.609 133.617 178.836 133.618L183.216 133.618ZM170.075 133.617C171.277 133.617 172.28 134.592 172.283 135.817L172.288 138.017C172.29 139.217 171.316 140.217 170.09 140.217L165.71 140.217C164.508 140.217 163.505 139.241 163.503 138.016L163.498 135.817C163.495 134.617 164.469 133.617 165.696 133.616L170.075 133.617ZM156.936 133.616C158.138 133.616 159.141 134.591 159.143 135.816L159.148 138.016C159.151 139.216 158.177 140.216 156.95 140.216L152.57 140.216C151.369 140.216 150.366 139.241 150.363 138.016L150.358 135.816C150.356 134.616 151.33 133.616 152.556 133.616L156.936 133.616ZM143.796 133.615C144.998 133.615 146.001 134.591 146.003 135.816L146.008 138.015C146.011 139.215 145.037 140.215 143.81 140.215L139.43 140.215C138.229 140.215 137.226 139.24 137.223 138.015L137.219 135.815C137.216 134.615 138.19 133.615 139.417 133.615L143.796 133.615ZM183.117 87.6919C184.319 87.6923 185.322 88.667 185.325 89.8919L185.329 92.0672C185.332 93.2677 184.358 94.267 183.131 94.2671L178.752 94.2668C177.551 94.2667 176.547 93.2917 176.544 92.0668L176.54 89.8665C176.537 88.6666 177.512 87.6666 178.738 87.6665L183.118 87.6668L183.117 87.6919ZM169.978 87.691C171.179 87.6914 172.183 88.6661 172.185 89.891L172.19 92.0663C172.192 93.2665 171.218 94.2661 169.992 94.2662L165.612 94.2659C164.411 94.2655 163.407 93.2908 163.405 92.0659L163.4 89.8656C163.398 88.6657 164.371 87.6654 165.598 87.6663L169.978 87.6666L169.978 87.691ZM156.838 87.6901C158.039 87.6902 159.043 88.6652 159.045 89.8908L159.05 92.0651C159.052 93.2656 158.079 94.2653 156.853 94.2654L152.473 94.2651C151.271 94.2647 150.268 93.29 150.265 92.065L150.261 89.8647C150.258 88.6648 151.232 87.6646 152.458 87.6651L156.838 87.6654L156.838 87.6901ZM143.699 87.6893C144.9 87.6893 145.903 88.6647 145.906 89.8899L145.91 92.0649C145.913 93.2647 144.939 94.265 143.712 94.2642L139.333 94.2639C138.131 94.2644 137.128 93.2891 137.125 92.0639L137.121 89.8642C137.119 88.664 138.092 87.6643 139.319 87.6642L143.698 87.6645L143.699 87.6893Z" fill="#F99E74"/>
<path d="M143.727 100.815L143.783 127.066C143.785 128.265 144.763 129.266 145.99 129.266L176.649 129.268C177.85 129.268 178.849 128.293 178.847 127.068L178.791 100.818C178.788 99.617 177.81 98.6174 176.583 98.6175L145.925 98.6154C144.723 98.615 143.724 99.5905 143.727 100.815ZM183.146 100.818L183.202 127.068C183.204 128.268 184.183 129.269 185.409 129.269L196.371 129.269L196.306 98.6437L185.344 98.6428C184.142 98.618 183.143 99.5924 183.146 100.818Z" fill="white"/>
</g>
<rect x="89" y="98.7" width="60.02" height="30.5" fill="white"/>
<path d="M99.8446 108.716V112.456H107.405V116.171H99.8446V122H95V105H108.433V108.716H99.8446Z" fill="#F4834F"/>
<path d="M118.185 117.483H115.543V122H110.698V105H118.528C120.078 105 121.423 105.259 122.565 105.777C123.707 106.279 124.588 107.008 125.208 107.963C125.828 108.902 126.137 110.011 126.137 111.29C126.137 112.52 125.844 113.597 125.257 114.52C124.686 115.427 123.862 116.139 122.785 116.657L126.48 122H121.293L118.185 117.483ZM121.244 111.29C121.244 110.497 120.991 109.881 120.485 109.444C119.98 109.007 119.229 108.789 118.234 108.789H115.543V113.767H118.234C119.229 113.767 119.98 113.557 120.485 113.136C120.991 112.699 121.244 112.083 121.244 111.29Z" fill="#F4834F"/>
<path d="M142.561 118.284V122H128.81V105H142.243V108.716H133.606V111.581H141.215V115.176H133.606V118.284H142.561Z" fill="#F4834F"/>
<path d="M159 118.284V122H145.249V105H158.682V108.716H150.045V111.581H157.654V115.176H150.045V118.284H159Z" fill="#F4834F"/>
<circle cx="188.648" cy="89.6478" r="25.1478" fill="white" stroke="#F4844F" stroke-width="3"/>
<path fill-rule="evenodd" clip-rule="evenodd" d="M196.153 73.6592L200.039 77.5455L200.039 77.5456L203.926 81.4318L199.392 85.9658L195.655 85.2185L194.858 86.6135L194.21 84.9295L192.914 84.6704L193.778 83.8066L191.619 78.1932L196.153 73.6592Z" fill="#E18960"/>
<path fill-rule="evenodd" clip-rule="evenodd" d="M172.66 104.926L174.75 98.4832L177.738 99.8476L178.221 99.3644L178.423 100.16L179.517 100.66L178.682 101.179L179.103 102.836L172.66 104.926L172.66 104.925L172.66 104.926Z" fill="#647180"/>
<path fill-rule="evenodd" clip-rule="evenodd" d="M183.052 95.6428L184.163 96.0132L183.244 96.6034L184.162 101.195L179.101 102.836L176.925 100.66L176.925 100.659L174.749 98.4833L176.39 93.4224L182.219 95.3652L182.867 94.7177L183.052 95.6428Z" fill="#FFD3BF"/>
<path fill-rule="evenodd" clip-rule="evenodd" d="M191.616 78.1943L176.39 93.421L180.275 97.3067L180.28 97.3017L180.277 97.3082L184.163 101.194L199.392 85.9654L195.506 82.0792L195.5 82.0823L195.502 82.08L191.616 78.1943Z" fill="#F99E74"/>
</g>
<defs>
<filter id="filter0_d_1916_37437" x="45.1514" y="76.3083" width="162.227" height="83.2603" filterUnits="userSpaceOnUse" color-interpolation-filters="sRGB">
<feFlood flood-opacity="0" result="BackgroundImageFix"/>
<feColorMatrix in="SourceAlpha" type="matrix" values="0 0 0 0 0 0 0 0 0 0 0 0 0 0 0 0 0 0 127 0" result="hardAlpha"/>
<feOffset dy="4"/>
<feGaussianBlur stdDeviation="5.5"/>
<feColorMatrix type="matrix" values="0 0 0 0 0.958333 0 0 0 0 0.647636 0 0 0 0 0.503125 0 0 0 0.33 0"/>
<feBlend mode="normal" in2="BackgroundImageFix" result="effect1_dropShadow_1916_37437"/>
<feBlend mode="normal" in="SourceGraphic" in2="effect1_dropShadow_1916_37437" result="shape"/>
</filter>
<clipPath id="clip0_1916_37437">
<rect width="250" height="200" fill="white"/>
</clipPath>
</defs>
</svg>
