<svg width="18" height="18" viewBox="0 0 18 18" fill="none" xmlns="http://www.w3.org/2000/svg">
<path d="M14.0662 6.83583L6.08584 2.84763C6.0375 2.82403 5.98394 2.81309 5.93021 2.81585C5.87648 2.8186 5.82433 2.83495 5.77865 2.86337C5.73297 2.89179 5.69527 2.93135 5.66908 2.97832C5.64288 3.0253 5.62906 3.07815 5.62891 3.13193V11.1083C5.62925 11.162 5.64322 11.2147 5.66949 11.2615C5.69576 11.3084 5.73348 11.3478 5.77913 11.376C5.82478 11.4043 5.87685 11.4206 5.93049 11.4233C5.98413 11.426 6.03758 11.4151 6.08584 11.3915L14.0662 7.40329C14.1189 7.37689 14.1632 7.33638 14.1941 7.28627C14.225 7.23616 14.2414 7.17844 14.2414 7.11956C14.2414 7.06068 14.225 7.00296 14.1941 6.95285C14.1632 6.90274 14.1189 6.86223 14.0662 6.83583Z" fill="#CFDFEF"/>
<path d="M4.84319 2.22568L0.458893 0.0346265C0.399388 0.00507215 0.332108 -0.00508263 0.266526 0.00559228C0.200944 0.0162672 0.140364 0.0472339 0.0933162 0.0941319C0.0462687 0.14103 0.0151239 0.201497 0.00426767 0.267017C-0.00658859 0.332538 0.00339053 0.399812 0.0327998 0.459365L4.41824 9.2236C4.45043 9.28712 4.50306 9.33798 4.56766 9.368C4.63225 9.39802 4.70508 9.40546 4.77442 9.38912C4.84376 9.37278 4.90559 9.33362 4.94997 9.27792C4.99435 9.22222 5.0187 9.15322 5.01911 9.08202V2.50884C5.01894 2.44998 5.0024 2.39233 4.97133 2.34233C4.94027 2.29232 4.8959 2.25194 4.84319 2.22568Z" fill="#CFDFEF"/>
<path d="M17.5389 0.0343209L10.2451 3.67885C10.1915 3.70489 10.1464 3.74547 10.1148 3.79594C10.0832 3.84642 10.0664 3.90475 10.0664 3.96429C10.0664 4.02383 10.0832 4.08217 10.1148 4.13265C10.1464 4.18312 10.1915 4.2237 10.2451 4.24974L14.6214 6.43737C14.6587 6.45598 14.6994 6.46706 14.741 6.46996C14.7827 6.47287 14.8245 6.46754 14.864 6.45428C14.9036 6.44103 14.9402 6.42011 14.9717 6.39271C15.0031 6.36532 15.0289 6.332 15.0475 6.29465L17.965 0.462485C17.9957 0.402828 18.0067 0.334994 17.9964 0.268716C17.9861 0.202438 17.955 0.141123 17.9077 0.0935691C17.8604 0.0460154 17.7992 0.0146672 17.733 0.00402292C17.6667 -0.0066214 17.5988 0.00398531 17.5389 0.0343209Z" fill="#CFDFEF"/>
<path d="M6.03225 12.4535L8.71561 17.8198C8.74134 17.8737 8.78182 17.9193 8.83236 17.9511C8.8829 17.983 8.94143 17.9999 9.00119 17.9999C9.06095 17.9999 9.11948 17.983 9.17002 17.9511C9.22056 17.9193 9.26104 17.8737 9.28678 17.8198L13.7533 8.88091C13.7833 8.82149 13.7937 8.75413 13.7831 8.68844C13.7726 8.62274 13.7415 8.56205 13.6945 8.515C13.6474 8.46795 13.5867 8.43693 13.5209 8.42637C13.4552 8.41581 13.3878 8.42624 13.3284 8.45617L6.1739 12.0276C6.09884 12.0656 6.04183 12.1316 6.0153 12.2114C5.98876 12.2912 5.99486 12.3782 6.03225 12.4535Z" fill="#CFDFEF"/>
</svg>
