<svg width="454" height="648" viewBox="0 0 454 648" fill="none" xmlns="http://www.w3.org/2000/svg">
<path d="M4 0H423C431.837 0 439 7.16344 439 16V632C439 640.837 431.837 648 423 648H4V0Z" fill="#176EA5"/>
<mask id="mask0_3716_51708" style="mask-type:alpha" maskUnits="userSpaceOnUse" x="4" y="0" width="435" height="648">
<path d="M4 0H423C431.837 0 439 7.16344 439 16V632C439 640.837 431.837 648 423 648H4V0Z" fill="#176EA5"/>
</mask>
<g mask="url(#mask0_3716_51708)">
<path d="M49.9454 238.329L27.1908 415.337C26.9318 417.094 27.179 418.893 27.9044 420.526C28.6291 422.157 29.8026 423.557 31.2882 424.56C32.7735 425.564 34.5105 426.131 36.2984 426.196C38.0853 426.261 39.8507 425.822 41.389 424.928L301.438 280.161C303.173 279.203 304.555 277.721 305.387 275.929C306.221 274.136 306.462 272.123 306.076 270.176C305.69 268.229 304.696 266.447 303.24 265.082C301.781 263.719 299.932 262.844 297.956 262.581L60.5662 230.237C58.0673 229.91 55.5496 230.576 53.5601 232.092C51.5706 233.608 50.2713 235.85 49.9454 238.329Z" fill="#1E73A9"/>
<path d="M109.403 461.013L19.6425 657.577C18.7131 659.517 18.3544 661.686 18.6081 663.834C18.8614 665.981 19.717 668.02 21.0754 669.713C22.4337 671.406 24.2394 672.685 26.2836 673.402C28.3273 674.116 30.5264 674.241 32.6257 673.76L385.276 599.535C387.626 599.049 389.755 597.83 391.36 596.056C392.967 594.281 393.967 592.039 394.218 589.649C394.47 587.258 393.96 584.841 392.764 582.741C391.566 580.642 389.74 578.967 387.549 577.955L124.587 455.461C121.814 454.187 118.663 454.055 115.819 455.095C112.975 456.135 110.669 458.263 109.403 461.013Z" fill="#1E73A9"/>
<path d="M414.096 255.16L134.023 409.111C131.964 410.213 130.256 411.879 129.09 413.916C127.924 415.954 127.35 418.283 127.431 420.635C127.513 422.989 128.249 425.272 129.553 427.224C130.857 429.176 132.678 430.718 134.807 431.675L308.86 512.191C310.346 512.877 311.949 513.259 313.581 513.317C315.212 513.375 316.838 513.107 318.367 512.53C319.895 511.953 321.296 511.075 322.488 509.951C323.682 508.825 324.642 507.474 325.317 505.972L431.337 271.503C432.455 269.103 432.79 266.408 432.296 263.802C431.803 261.196 430.507 258.815 428.59 257C426.676 255.185 424.243 254.029 421.638 253.698C419.034 253.368 416.394 253.879 414.096 255.16Z" fill="#1E73A9"/>
<path d="M267.385 -18.5563L121.866 201.07C121.001 202.401 120.482 203.934 120.356 205.523C120.233 207.113 120.507 208.707 121.154 210.156C121.8 211.603 122.799 212.86 124.058 213.804C125.315 214.75 126.789 215.353 128.342 215.557L358.745 245.343C360.297 245.534 361.872 245.322 363.325 244.724C364.777 244.126 366.057 243.166 367.05 241.929C368.039 240.693 368.706 239.225 368.987 237.658C369.271 236.091 369.158 234.48 368.659 232.975L283.776 -16.4372C283.214 -18.0833 282.212 -19.5357 280.881 -20.6316C279.552 -21.7283 277.946 -22.4253 276.247 -22.6457C274.545 -22.8652 272.816 -22.599 271.251 -21.8773C269.685 -21.1545 268.347 -20.0045 267.385 -18.5563Z" fill="#1E73A9"/>
</g>
<g filter="url(#filter0_d_3716_51708)">
<rect x="203.163" y="227.258" width="201.352" height="128.295" rx="8" transform="rotate(-15.5096 203.163 227.258)" fill="#105582"/>
<path fill-rule="evenodd" clip-rule="evenodd" d="M266.831 303.104C270.219 315.31 277.885 325.966 288.648 333.241C289.874 334.069 291.123 334.864 292.384 335.642C291.618 335.563 290.854 335.477 290.092 335.382L291.731 335.824L245.461 348.664C241.204 349.845 236.795 347.352 235.613 343.094L224.442 302.838C224.297 302.686 224.153 302.533 224.01 302.38L206.975 240.994L262.777 225.508C255.666 227.482 248.051 235.429 249.906 242.111L266.831 303.104Z" fill="#08446B"/>
<path d="M297.344 215.916L318.58 210.022L299.043 190.48L277.808 196.373L297.344 215.916Z" fill="#08446B"/>
<path d="M339.422 179.274L318.157 185.176L337.664 204.727L358.93 198.825L339.422 179.274Z" fill="#08446B"/>
<path d="M391.391 164.852L358.506 173.978L377.991 193.536L397.824 188.032C399.575 187.546 400.595 185.708 400.101 183.928L395.457 167.196C394.963 165.415 393.143 164.366 391.391 164.852Z" fill="#08446B"/>
<path d="M258.859 201.631L235.881 208.007L245.184 213.373C246.143 213.927 246.397 214.901 246.316 215.629C246.235 216.357 245.773 217.238 244.72 217.53L217.804 225C216.627 225.326 215.399 224.61 215.064 223.404L212.585 214.472L204.545 216.703C202.808 217.185 201.802 219.019 202.296 220.799L206.939 237.532C207.433 239.312 209.241 240.365 210.977 239.883L278.231 221.22L258.859 201.631Z" fill="#08446B"/>
<path d="M252.44 224.552L247.873 208.094C247.387 206.343 248.422 204.527 250.185 204.038L235.55 208.099L244.931 213.313C245.897 213.851 246.147 214.809 246.059 215.528C245.971 216.246 245.495 217.119 244.426 217.415L217.098 224.999C215.904 225.331 214.665 224.635 214.335 223.449L211.897 214.663L203.734 216.928C201.971 217.417 200.936 219.234 201.422 220.985L205.989 237.443C206.475 239.194 208.38 240.603 210.143 240.114L258.484 226.699C256.721 227.188 252.926 226.303 252.44 224.552Z" fill="#105582"/>
<path d="M249.862 158.054L191.207 191.6C189.639 192.497 189.094 194.5 189.991 196.072L198.424 210.856C199.321 212.429 201.32 212.977 202.888 212.08L210.364 207.804L207.31 196.802C207.018 195.748 207.515 194.9 208.077 194.457C208.293 194.287 208.566 194.14 208.874 194.055C209.366 193.918 209.947 193.938 210.533 194.268L222.388 200.927L249.68 185.318L249.862 158.054Z" fill="#08446B"/>
<path d="M234.604 190.483L225.726 174.918C225.196 173.99 225.144 172.92 225.491 171.992L191.207 191.6C189.638 192.497 189.094 194.5 189.991 196.073L198.423 210.856C199.32 212.429 201.319 212.977 202.888 212.08L210.363 207.804L207.31 196.802C207.018 195.748 207.514 194.9 208.077 194.457C208.293 194.287 208.565 194.141 208.873 194.055C209.365 193.919 209.946 193.939 210.533 194.268L222.387 200.927L237.607 192.223C236.408 192.225 235.242 191.601 234.604 190.483Z" fill="#105582"/>
<path d="M286.243 137.245L267.723 147.837L267.541 175.102L286.061 164.51L286.243 137.245Z" fill="#08446B"/>
<path d="M322.703 116.393L304.106 127.029L303.924 154.294L322.521 143.658L322.703 116.393Z" fill="#08446B"/>
<path d="M372.844 111.099L364.412 96.3152C363.515 94.7424 361.516 94.1943 359.948 95.0914L340.566 106.177L340.384 133.441L371.629 115.571C373.197 114.674 373.741 112.672 372.844 111.099Z" fill="#08446B"/>
<path d="M245.202 213.197L210.765 193.851C208.673 192.675 206.208 194.614 206.85 196.929L214.297 223.765C214.697 225.204 216.184 226.047 217.619 225.649L244.609 218.159C246.929 217.515 247.304 214.377 245.202 213.197Z" fill="#08446B"/>
<path d="M277.656 221.379L297.975 215.74L278.381 196.213L258.062 201.852L277.656 221.379Z" fill="white"/>
<path d="M318.005 210.182L338.325 204.543L318.73 185.016L298.411 190.655L318.005 210.182Z" fill="white"/>
<path d="M358.354 198.985L378.674 193.346L359.079 173.819L338.76 179.458L358.354 198.985Z" fill="white"/>
<path d="M249.455 185.446L267.685 175.02L267.867 147.755L249.637 158.181L249.455 185.446Z" fill="white"/>
<path d="M285.877 164.614L304.107 154.188L304.289 126.924L286.06 137.35L285.877 164.614Z" fill="white"/>
<path d="M322.337 143.762L340.567 133.336L340.749 106.071L322.52 116.497L322.337 143.762Z" fill="white"/>
<path d="M218.75 215.204L223.725 207.849C221.38 204.029 225.652 202.214 225.652 202.214L210.765 193.851C208.673 192.675 206.208 194.614 206.85 196.929L214.297 223.765C212.99 216.436 218.75 215.204 218.75 215.204Z" fill="#08446B"/>
<path d="M223.958 217.113C221.456 217.807 218.796 216.347 218.084 213.781C217.269 210.846 219.375 207.949 222.321 207.738C224.63 207.576 226.674 209.067 227.274 211.231C227.984 213.785 226.468 216.416 223.958 217.113Z" fill="white"/>
</g>
<g filter="url(#filter1_d_3716_51708)">
<rect x="85" y="235" width="273" height="181" rx="10" fill="white"/>
</g>
<rect x="101" y="251" width="241" height="149" rx="10" fill="#9AB9DB"/>
<path d="M197 349.689V294.124C197 291.002 200.417 289.083 203.082 290.709L247.535 317.814C250.059 319.353 250.099 323.004 247.609 324.598L203.157 353.058C200.494 354.763 197 352.851 197 349.689Z" fill="white"/>
<g filter="url(#filter2_d_3716_51708)">
<rect x="262" y="387" width="155" height="117" rx="10" fill="white"/>
</g>
<rect x="330" y="405" width="70" height="7" rx="3.5" fill="#C2DAF4"/>
<rect x="330" y="417" width="51" height="7" rx="3.5" fill="#C2DAF4"/>
<rect x="330" y="429" width="70" height="7" rx="3.5" fill="#C2DAF4"/>
<rect x="330" y="454" width="70" height="7" rx="3.5" fill="#C2DAF4"/>
<rect x="330" y="466" width="51" height="7" rx="3.5" fill="#C2DAF4"/>
<rect x="330" y="478" width="70" height="7" rx="3.5" fill="#C2DAF4"/>
<rect x="279" y="453" width="34" height="34" rx="2" fill="#2075AC"/>
<rect x="281" y="455" width="6" height="5.17241" rx="1" fill="white"/>
<rect x="281" y="461.207" width="6" height="5.17241" rx="1" fill="white"/>
<rect x="281" y="467.414" width="6" height="5.17241" rx="1" fill="white"/>
<rect x="281" y="473.621" width="6" height="5.17241" rx="1" fill="white"/>
<rect x="281" y="479.828" width="6" height="5.17241" rx="1" fill="white"/>
<rect x="305" y="455" width="6" height="5.17241" rx="1" fill="white"/>
<rect x="305" y="461.207" width="6" height="5.17241" rx="1" fill="white"/>
<rect x="305" y="467.414" width="6" height="5.17241" rx="1" fill="white"/>
<rect x="305" y="473.621" width="6" height="5.17241" rx="1" fill="white"/>
<rect x="305" y="479.828" width="6" height="5.17241" rx="1" fill="white"/>
<rect x="279" y="404" width="34" height="34" rx="2" fill="#2075AC"/>
<path d="M289.617 431C289.441 430.946 289.262 430.892 289.088 430.829C287.717 430.318 286.878 428.944 287.014 427.433C287.146 425.967 288.276 424.74 289.708 424.559C290.182 424.498 290.548 424.442 291.614 424.957V414.165C291.614 413.611 291.788 413.374 292.3 413.221L302.828 410.081C303.438 409.899 303.691 410.007 304 410.59V425.022C303.979 425.068 303.962 425.116 303.949 425.165C303.56 427.026 301.872 428.13 300.135 427.661C298.57 427.238 297.573 425.527 297.92 423.86C298.271 422.167 299.841 421.046 301.445 421.365C301.79 421.433 302.12 421.58 302.457 421.692V415.117L293.148 417.884V418.225C293.148 421.409 293.148 424.594 293.148 427.779C293.149 428.437 292.957 429.08 292.598 429.62C292.239 430.16 291.731 430.571 291.142 430.797C290.929 430.879 290.706 430.933 290.487 431H289.617Z" fill="white"/>
<g filter="url(#filter3_d_3716_51708)">
<rect x="57" y="143" width="36" height="153" rx="18" fill="white"/>
</g>
<rect x="70" y="157" width="10" height="124" rx="5" fill="#2A5D7E"/>
<circle cx="75" cy="199" r="8" fill="#1D84BF"/>
<circle cx="74.4667" cy="198.467" r="7.46667" fill="#619DC5"/>
<g filter="url(#filter4_d_3716_51708)">
<rect x="24" y="408" width="204.7" height="46" rx="5" fill="#115582"/>
</g>
<path d="M47 436.112V425.844C47 425.072 47.8385 424.591 48.5052 424.981L57.0614 429.99C57.713 430.371 57.7231 431.309 57.0799 431.705L48.5236 436.964C47.8573 437.373 47 436.894 47 436.112Z" fill="white"/>
<rect x="80.3506" y="427.55" width="139.15" height="6.9" rx="3.45" fill="white"/>
<rect x="61.9502" y="425.25" width="11.5" height="11.5" rx="1" fill="white"/>
<rect x="33.2002" y="425.25" width="3.45" height="11.5" rx="1.725" fill="white"/>
<rect x="38.9502" y="425.25" width="3.45" height="11.5" rx="1.725" fill="white"/>
<defs>
<filter id="filter0_d_3716_51708" x="165.559" y="74.6602" width="288.085" height="302.375" filterUnits="userSpaceOnUse" color-interpolation-filters="sRGB">
<feFlood flood-opacity="0" result="BackgroundImageFix"/>
<feColorMatrix in="SourceAlpha" type="matrix" values="0 0 0 0 0 0 0 0 0 0 0 0 0 0 0 0 0 0 127 0" result="hardAlpha"/>
<feOffset dy="4"/>
<feGaussianBlur stdDeviation="12"/>
<feComposite in2="hardAlpha" operator="out"/>
<feColorMatrix type="matrix" values="0 0 0 0 0.0211979 0 0 0 0 0.291573 0 0 0 0 0.4625 0 0 0 0.25 0"/>
<feBlend mode="normal" in2="BackgroundImageFix" result="effect1_dropShadow_3716_51708"/>
<feBlend mode="normal" in="SourceGraphic" in2="effect1_dropShadow_3716_51708" result="shape"/>
</filter>
<filter id="filter1_d_3716_51708" x="61" y="215" width="321" height="229" filterUnits="userSpaceOnUse" color-interpolation-filters="sRGB">
<feFlood flood-opacity="0" result="BackgroundImageFix"/>
<feColorMatrix in="SourceAlpha" type="matrix" values="0 0 0 0 0 0 0 0 0 0 0 0 0 0 0 0 0 0 127 0" result="hardAlpha"/>
<feOffset dy="4"/>
<feGaussianBlur stdDeviation="12"/>
<feComposite in2="hardAlpha" operator="out"/>
<feColorMatrix type="matrix" values="0 0 0 0 0.0211979 0 0 0 0 0.291573 0 0 0 0 0.4625 0 0 0 0.25 0"/>
<feBlend mode="normal" in2="BackgroundImageFix" result="effect1_dropShadow_3716_51708"/>
<feBlend mode="normal" in="SourceGraphic" in2="effect1_dropShadow_3716_51708" result="shape"/>
</filter>
<filter id="filter2_d_3716_51708" x="238" y="367" width="203" height="165" filterUnits="userSpaceOnUse" color-interpolation-filters="sRGB">
<feFlood flood-opacity="0" result="BackgroundImageFix"/>
<feColorMatrix in="SourceAlpha" type="matrix" values="0 0 0 0 0 0 0 0 0 0 0 0 0 0 0 0 0 0 127 0" result="hardAlpha"/>
<feOffset dy="4"/>
<feGaussianBlur stdDeviation="12"/>
<feComposite in2="hardAlpha" operator="out"/>
<feColorMatrix type="matrix" values="0 0 0 0 0.0211979 0 0 0 0 0.291573 0 0 0 0 0.4625 0 0 0 0.25 0"/>
<feBlend mode="normal" in2="BackgroundImageFix" result="effect1_dropShadow_3716_51708"/>
<feBlend mode="normal" in="SourceGraphic" in2="effect1_dropShadow_3716_51708" result="shape"/>
</filter>
<filter id="filter3_d_3716_51708" x="33" y="123" width="84" height="201" filterUnits="userSpaceOnUse" color-interpolation-filters="sRGB">
<feFlood flood-opacity="0" result="BackgroundImageFix"/>
<feColorMatrix in="SourceAlpha" type="matrix" values="0 0 0 0 0 0 0 0 0 0 0 0 0 0 0 0 0 0 127 0" result="hardAlpha"/>
<feOffset dy="4"/>
<feGaussianBlur stdDeviation="12"/>
<feComposite in2="hardAlpha" operator="out"/>
<feColorMatrix type="matrix" values="0 0 0 0 0.0211979 0 0 0 0 0.291573 0 0 0 0 0.4625 0 0 0 0.25 0"/>
<feBlend mode="normal" in2="BackgroundImageFix" result="effect1_dropShadow_3716_51708"/>
<feBlend mode="normal" in="SourceGraphic" in2="effect1_dropShadow_3716_51708" result="shape"/>
</filter>
<filter id="filter4_d_3716_51708" x="0" y="388" width="252.7" height="94" filterUnits="userSpaceOnUse" color-interpolation-filters="sRGB">
<feFlood flood-opacity="0" result="BackgroundImageFix"/>
<feColorMatrix in="SourceAlpha" type="matrix" values="0 0 0 0 0 0 0 0 0 0 0 0 0 0 0 0 0 0 127 0" result="hardAlpha"/>
<feOffset dy="4"/>
<feGaussianBlur stdDeviation="12"/>
<feComposite in2="hardAlpha" operator="out"/>
<feColorMatrix type="matrix" values="0 0 0 0 0.0211979 0 0 0 0 0.291573 0 0 0 0 0.4625 0 0 0 0.25 0"/>
<feBlend mode="normal" in2="BackgroundImageFix" result="effect1_dropShadow_3716_51708"/>
<feBlend mode="normal" in="SourceGraphic" in2="effect1_dropShadow_3716_51708" result="shape"/>
</filter>
</defs>
</svg>
