<svg width="360" height="360" viewBox="0 0 360 360" fill="none" xmlns="http://www.w3.org/2000/svg">
<path d="M83.3504 70.7677L7.95826 173.489C7.18909 174.498 6.72193 175.707 6.61077 176.978C6.49961 178.247 6.74903 179.527 7.33034 180.668C7.91152 181.808 8.8007 182.763 9.89498 183.422C10.9891 184.079 12.2438 184.415 13.5136 184.389L226.014 183.822C227.428 183.823 228.804 183.375 229.943 182.543C231.084 181.711 231.93 180.536 232.362 179.186C232.794 177.836 232.789 176.379 232.35 175.024C231.91 173.668 231.057 172.482 229.913 171.635L92.7825 69.3828C91.3344 68.3146 89.5312 67.8608 87.7644 68.1202C85.9975 68.3796 84.4109 69.3313 83.3504 70.7677Z" fill="#DAE7F0"/>
<path d="M305.037 207.137L76.8528 206.522C75.1862 206.499 73.5429 206.949 72.1103 207.819C70.6779 208.689 69.5141 209.946 68.7519 211.444C67.9897 212.943 67.6599 214.623 67.8 216.293C67.9403 217.963 68.5448 219.556 69.5446 220.89L150.457 331.347C151.148 332.289 152.018 333.082 153.017 333.683C154.016 334.282 155.125 334.677 156.279 334.845C157.433 335.013 158.612 334.948 159.746 334.658C160.88 334.367 161.948 333.855 162.888 333.15L310.16 223.307C311.688 222.194 312.828 220.626 313.421 218.827C314.014 217.028 314.026 215.093 313.457 213.296C312.888 211.501 311.767 209.938 310.254 208.831C308.741 207.724 306.915 207.132 305.037 207.137Z" fill="#DAE7F0"/>
<path d="M312.575 25.8386L181.361 94.2049C180.575 94.6242 179.903 95.2364 179.409 95.983C178.916 96.7307 178.617 97.5887 178.542 98.4766C178.466 99.3633 178.615 100.252 178.977 101.059C179.338 101.865 179.898 102.562 180.606 103.085L285.729 180.356C286.44 180.871 287.272 181.195 288.148 181.296C289.025 181.397 289.915 181.273 290.738 180.936C291.561 180.597 292.288 180.057 292.852 179.363C293.417 178.671 293.799 177.848 293.964 176.973L320.053 31.3358C320.224 30.3741 320.127 29.3879 319.771 28.4876C319.416 27.5874 318.816 26.8084 318.041 26.238C317.264 25.6676 316.342 25.3282 315.377 25.2577C314.411 25.1872 313.441 25.3883 312.575 25.8386Z" fill="#DAE7F0"/>
<path d="M247.449 96.4344L238.79 100.676C238.737 100.702 238.692 100.741 238.659 100.789C238.625 100.837 238.605 100.892 238.599 100.95C238.592 101.007 238.6 101.066 238.623 101.118C238.645 101.171 238.681 101.218 238.725 101.253L245.451 106.458C245.495 106.493 245.549 106.516 245.606 106.524C245.663 106.532 245.722 106.525 245.776 106.504C245.83 106.484 245.878 106.449 245.916 106.406C245.954 106.361 245.98 106.308 245.992 106.252L247.928 96.8043C247.941 96.7423 247.936 96.6779 247.914 96.6182C247.892 96.5596 247.855 96.5079 247.805 96.4689C247.756 96.431 247.696 96.4069 247.633 96.4011C247.57 96.3942 247.507 96.4057 247.449 96.4344Z" fill="#185E8A"/>
<path d="M324.086 147.657L308.31 143.8C308.215 143.777 308.115 143.779 308.019 143.805C307.925 143.831 307.838 143.88 307.768 143.948C307.698 144.016 307.645 144.1 307.616 144.193C307.589 144.285 307.584 144.384 307.605 144.478L310.685 158.464C310.707 158.557 310.752 158.645 310.817 158.717C310.882 158.788 310.964 158.842 311.056 158.874C311.149 158.905 311.248 158.914 311.344 158.897C311.442 158.881 311.533 158.841 311.61 158.781L324.305 148.652C324.389 148.585 324.452 148.497 324.488 148.397C324.524 148.297 324.531 148.189 324.509 148.086C324.486 147.982 324.434 147.888 324.359 147.812C324.285 147.736 324.191 147.682 324.086 147.657Z" fill="#185E8A"/>
<path d="M311.961 240.709L300.948 243.804C300.881 243.823 300.821 243.859 300.772 243.907C300.723 243.956 300.686 244.016 300.666 244.083C300.647 244.148 300.644 244.218 300.658 244.285C300.673 244.352 300.704 244.414 300.75 244.464L307.48 251.977C307.526 252.028 307.583 252.066 307.649 252.086C307.713 252.108 307.782 252.113 307.85 252.1C307.917 252.087 307.981 252.059 308.035 252.015C308.089 251.971 308.13 251.915 308.156 251.852L312.44 241.245C312.467 241.175 312.475 241.099 312.462 241.024C312.45 240.951 312.418 240.883 312.367 240.826C312.318 240.771 312.253 240.731 312.182 240.71C312.11 240.69 312.033 240.69 311.961 240.709Z" fill="#9AAFBC"/>
<path d="M111.304 293.24L99.5782 285.887C99.507 285.844 99.4254 285.818 99.3427 285.814C99.2589 285.809 99.175 285.825 99.1004 285.862C99.0246 285.898 98.9602 285.952 98.912 286.018C98.8649 286.086 98.835 286.164 98.8259 286.246L97.5658 298.385C97.5578 298.467 97.5704 298.55 97.6037 298.625C97.637 298.7 97.6899 298.767 97.7553 298.817C97.822 298.867 97.9001 298.9 97.9828 298.913C98.0655 298.925 98.1493 298.917 98.2286 298.89L111.215 294.103C111.3 294.071 111.374 294.017 111.431 293.946C111.487 293.874 111.521 293.789 111.531 293.699C111.54 293.609 111.524 293.519 111.484 293.438C111.443 293.357 111.381 293.288 111.304 293.24Z" fill="#185E8A"/>
<path d="M64.1431 156.406L53.8584 157.274C53.7558 157.28 53.6571 157.316 53.5735 157.377C53.4899 157.438 53.425 157.52 53.3861 157.617C53.3472 157.713 53.3361 157.818 53.354 157.92C53.3718 158.021 53.418 158.117 53.487 158.192L64.8085 171.127C64.8835 171.214 64.984 171.274 65.0954 171.299C65.2068 171.324 65.3235 171.314 65.4289 171.268C65.5345 171.222 65.6233 171.145 65.6829 171.045C65.7424 170.947 65.7696 170.832 65.7607 170.717L64.7287 156.908C64.7171 156.762 64.6491 156.628 64.5393 156.535C64.4296 156.441 64.2872 156.394 64.1431 156.406Z" fill="#185E8A"/>
<g filter="url(#filter0_d_1332_27055)">
<path fill-rule="evenodd" clip-rule="evenodd" d="M212.064 199.247C233.402 186.198 246.402 162.972 246.394 137.956C246.394 99.1247 215.591 67.4899 177.09 66.1389V66.0942C176.663 66.0942 176.239 66.098 175.815 66.1054C175.385 66.0978 174.956 66.094 174.524 66.094V66.1392C136.022 67.4901 105.22 99.1247 105.22 137.956C105.212 162.972 118.212 186.198 139.551 199.247C144.056 201.997 146.813 206.896 146.821 212.174V217.368H144.273V232.519H146.821H207.341V217.369H204.792V212.172C204.8 206.896 207.558 201.996 212.064 199.247Z" fill="#FFF0B1"/>
</g>
<path d="M113.957 137.956V141.739C113.957 143.824 115.648 145.523 117.741 145.523C119.833 145.523 121.524 143.832 121.524 141.739V137.956C121.557 108.722 145.251 85.0367 174.477 85.0033V77.4363C141.065 77.4776 113.99 104.545 113.957 137.956Z" fill="#F1DC92"/>
<path d="M159.342 164.431C165.604 164.439 170.684 169.512 170.692 175.782V179.566H174.476V187.133H170.692V217.393H178.259V217.368H185.827V221.176C185.827 223.269 184.136 224.96 182.043 224.96H166.909C164.824 224.96 163.125 223.269 163.125 221.176V187.133H159.342C153.072 187.133 147.991 182.052 147.991 175.782C147.999 169.512 153.08 164.431 159.342 164.431ZM159.342 179.566H163.125V175.782C163.125 173.697 161.435 171.998 159.342 171.998C157.257 171.998 155.558 173.689 155.558 175.782C155.558 177.867 157.257 179.566 159.342 179.566Z" fill="#F1DC92"/>
<g filter="url(#filter1_d_1332_27055)">
<path d="M204.737 262.777H144.218V270.344C144.218 278.699 150.988 285.479 159.352 285.479H189.603C197.958 285.479 204.737 278.707 204.737 270.344V262.777Z" fill="#185E8A"/>
</g>
<path d="M144.217 232.519H204.737C208.914 232.519 212.304 229.129 212.304 224.952C212.304 220.774 208.914 217.385 204.737 217.385H144.217C140.04 217.385 136.65 220.774 136.65 224.952C136.65 229.129 140.04 232.519 144.217 232.519Z" fill="#256D9A"/>
<path d="M144.217 247.652H204.737C208.914 247.652 212.304 244.262 212.304 240.086C212.304 235.908 208.914 232.519 204.737 232.519H144.217C140.04 232.519 136.65 235.908 136.65 240.086C136.65 244.262 140.04 247.652 144.217 247.652Z" fill="#185E8A"/>
<path d="M144.217 262.778H204.737C208.914 262.778 212.304 259.388 212.304 255.21C212.304 251.034 208.914 247.645 204.737 247.645H144.217C140.04 247.645 136.65 251.034 136.65 255.21C136.65 259.388 140.04 262.778 144.217 262.778Z" fill="#256D9A"/>
<path d="M233.577 153.353C234.879 151.35 235.509 148.889 235.201 146.332C234.502 140.547 229.244 136.423 223.466 137.128C222.76 137.216 222.074 137.367 221.426 137.581L233.577 153.353Z" fill="#FFCEE3"/>
<path d="M213.551 118.259C218.247 115.691 221.426 110.698 221.426 104.969C221.426 96.6079 214.658 89.8276 206.305 89.8276C203.176 89.8276 200.261 90.7787 197.85 92.4155L213.551 118.259Z" fill="#FFCEE3"/>
<path d="M200.475 175.614C203.308 179.813 208.112 182.576 213.552 182.576C222.258 182.576 229.322 175.507 229.322 166.788C229.322 161.901 227.105 157.532 223.618 154.636L200.475 175.614Z" fill="#FFCEE3"/>
<path fill-rule="evenodd" clip-rule="evenodd" d="M235.283 147.805V147.623C235.283 147.468 235.279 147.313 235.276 147.158C235.27 146.883 235.264 146.607 235.277 146.326C235.27 146.313 235.27 146.308 235.27 146.295C235.267 146.273 235.264 146.249 235.261 146.225C235.257 146.202 235.254 146.178 235.252 146.156C235.252 146.15 235.249 146.142 235.248 146.134C235.247 146.126 235.245 146.118 235.245 146.112C235.245 146.106 235.244 146.1 235.241 146.093C235.24 146.087 235.239 146.08 235.239 146.075C235.232 146.031 235.226 145.993 235.219 145.948C235.217 145.93 235.214 145.909 235.21 145.888C235.207 145.868 235.205 145.848 235.201 145.829V145.816L235.182 145.704L235.125 145.42C235.122 145.404 235.12 145.39 235.116 145.376C235.113 145.361 235.109 145.347 235.107 145.331C235.1 145.293 235.094 145.25 235.082 145.212C235.078 145.19 235.072 145.172 235.067 145.153C235.063 145.138 235.059 145.125 235.056 145.111L235.037 145.036C235.018 144.941 234.993 144.854 234.968 144.765C234.955 144.733 234.95 144.696 234.937 144.664C234.937 144.651 234.93 144.633 234.924 144.613C234.917 144.595 234.912 144.57 234.905 144.545L234.867 144.431C234.858 144.386 234.843 144.345 234.828 144.301C234.824 144.291 234.821 144.279 234.816 144.268C234.814 144.255 234.809 144.241 234.805 144.226C234.799 144.213 234.794 144.199 234.792 144.186C234.785 144.154 234.78 144.129 234.767 144.103C234.763 144.091 234.759 144.081 234.754 144.069C234.75 144.059 234.744 144.047 234.742 144.035C234.738 144.025 234.735 144.017 234.732 144.009C234.729 144.001 234.726 143.993 234.722 143.984C234.716 143.966 234.709 143.948 234.704 143.931C234.697 143.914 234.691 143.896 234.684 143.877C234.68 143.853 234.672 143.832 234.661 143.809C234.659 143.803 234.656 143.796 234.653 143.789C234.59 143.631 234.527 143.474 234.458 143.317C234.455 143.308 234.45 143.298 234.445 143.289C234.441 143.279 234.436 143.27 234.433 143.26C234.433 143.248 234.427 143.241 234.42 143.228C234.417 143.226 234.415 143.223 234.414 143.219C234.412 143.216 234.411 143.213 234.407 143.21C234.402 143.191 234.389 143.179 234.382 143.159C234.382 143.159 234.376 143.154 234.376 143.147C234.367 143.125 234.357 143.104 234.348 143.084C234.339 143.064 234.329 143.043 234.319 143.021V143.015C234.307 142.986 234.293 142.959 234.279 142.933C234.265 142.907 234.25 142.879 234.237 142.852C234.229 142.834 234.221 142.818 234.213 142.8C234.196 142.764 234.177 142.725 234.156 142.687C234.143 142.662 234.131 142.639 234.118 142.615C234.105 142.591 234.093 142.568 234.08 142.543C234.074 142.537 234.067 142.524 234.062 142.512C234.036 142.461 234.011 142.41 233.98 142.36C233.964 142.335 233.948 142.308 233.932 142.282C233.917 142.254 233.901 142.228 233.885 142.203L233.696 141.9C233.696 141.897 233.694 141.896 233.693 141.894C233.692 141.892 233.69 141.891 233.69 141.888C233.659 141.832 233.628 141.781 233.59 141.73C233.57 141.705 233.553 141.68 233.536 141.655C233.518 141.629 233.501 141.604 233.482 141.579C233.455 141.548 233.431 141.513 233.409 141.48C233.4 141.466 233.391 141.454 233.382 141.441C233.375 141.434 233.369 141.421 233.362 141.416C233.324 141.371 233.293 141.327 233.262 141.284C233.243 141.258 233.224 141.234 233.205 141.211C233.186 141.187 233.167 141.164 233.149 141.139C233.149 141.134 233.149 141.133 233.146 141.131C233.146 141.13 233.144 141.129 233.143 141.126C233.123 141.104 233.106 141.081 233.089 141.06C233.072 141.038 233.054 141.016 233.035 140.994C233.033 140.991 233.029 140.986 233.026 140.982C233.022 140.977 233.02 140.971 233.016 140.969C233.007 140.959 232.997 140.948 232.988 140.937C232.979 140.926 232.969 140.915 232.96 140.906C232.944 140.89 232.93 140.872 232.915 140.855C232.902 140.838 232.888 140.821 232.872 140.805C232.834 140.761 232.79 140.71 232.752 140.667C232.72 140.629 232.682 140.584 232.644 140.546C232.635 140.534 232.625 140.523 232.613 140.512C232.602 140.501 232.591 140.49 232.582 140.477C232.5 140.389 232.418 140.302 232.336 140.219C232.307 140.186 232.274 140.155 232.242 140.125C232.227 140.11 232.212 140.095 232.197 140.081C232.172 140.059 232.149 140.035 232.125 140.012C232.102 139.988 232.078 139.964 232.053 139.942C232.009 139.904 231.959 139.861 231.915 139.817C231.745 139.665 231.581 139.521 231.405 139.382C231.385 139.367 231.367 139.352 231.348 139.338C231.329 139.324 231.31 139.309 231.291 139.294C231.273 139.28 231.256 139.266 231.237 139.252C231.204 139.225 231.171 139.199 231.134 139.175C231.078 139.13 231.027 139.092 230.971 139.054C230.933 139.03 230.888 138.998 230.844 138.967C230.818 138.953 230.794 138.937 230.769 138.919C230.758 138.912 230.748 138.905 230.738 138.897C230.716 138.882 230.692 138.866 230.668 138.85C230.645 138.835 230.62 138.819 230.599 138.803C230.504 138.739 230.403 138.677 230.303 138.614L230.152 138.52C229.982 138.419 229.812 138.325 229.642 138.236C229.598 138.211 229.553 138.186 229.51 138.167C229.497 138.155 229.478 138.148 229.466 138.142C229.421 138.117 229.371 138.092 229.327 138.072C229.324 138.072 229.32 138.071 229.318 138.07C229.314 138.068 229.311 138.066 229.308 138.066C229.289 138.057 229.271 138.049 229.251 138.041C229.233 138.033 229.213 138.025 229.195 138.016C229.173 138.007 229.153 137.997 229.132 137.987C229.111 137.978 229.09 137.969 229.069 137.96C229.064 137.955 229.056 137.954 229.049 137.95C229.047 137.949 229.046 137.948 229.043 137.947C229.022 137.938 229.001 137.927 228.98 137.918C228.961 137.909 228.94 137.9 228.918 137.889C228.893 137.88 228.868 137.87 228.842 137.858C228.817 137.847 228.792 137.837 228.767 137.827C228.748 137.821 228.729 137.813 228.71 137.805C228.691 137.798 228.672 137.79 228.653 137.783C228.603 137.757 228.553 137.739 228.496 137.72C228.474 137.714 228.453 137.706 228.433 137.698C228.413 137.69 228.392 137.683 228.37 137.676C228.326 137.66 228.283 137.646 228.241 137.632C228.198 137.617 228.156 137.603 228.112 137.587C228.817 137.072 229.472 136.499 230.076 135.869C230.158 135.788 230.233 135.705 230.309 135.623C230.548 135.372 230.775 135.108 230.989 134.836L231.215 134.553C232.235 133.225 233.035 131.72 233.564 130.096C233.608 129.97 233.646 129.843 233.684 129.718C233.734 129.554 233.778 129.397 233.822 129.234C233.838 129.17 233.854 129.106 233.87 129.041C233.885 128.976 233.901 128.912 233.917 128.849C234.174 127.735 234.313 126.577 234.313 125.38V125.197V125.059C234.313 125.031 234.312 125.004 234.31 124.978C234.309 124.95 234.307 124.924 234.307 124.895C234.307 124.795 234.302 124.694 234.296 124.593C234.293 124.543 234.29 124.493 234.288 124.443C234.285 124.416 234.283 124.389 234.281 124.36C234.28 124.334 234.279 124.306 234.275 124.278C234.264 124.112 234.247 123.95 234.231 123.785L234.225 123.737C234.222 123.703 234.217 123.666 234.212 123.631C234.208 123.594 234.203 123.558 234.2 123.523C234.187 123.43 234.175 123.341 234.163 123.254L234.162 123.253C234.151 123.207 234.144 123.156 234.139 123.11L234.137 123.095C234.105 122.893 234.067 122.692 234.03 122.491C234.017 122.415 234.004 122.345 233.986 122.271C233.98 122.238 233.973 122.213 233.967 122.188C233.957 122.151 233.949 122.114 233.942 122.078C233.934 122.042 233.926 122.005 233.917 121.969C233.892 121.848 233.866 121.735 233.834 121.622L233.74 121.282C233.725 121.225 233.707 121.168 233.69 121.112C233.672 121.055 233.655 120.998 233.64 120.942C233.57 120.715 233.494 120.495 233.42 120.274C233.394 120.193 233.362 120.111 233.331 120.029L233.237 119.784C233.174 119.62 233.105 119.457 233.035 119.299C233.01 119.245 232.987 119.194 232.962 119.142C232.939 119.089 232.915 119.037 232.89 118.984C232.852 118.896 232.809 118.808 232.765 118.719C232.755 118.698 232.744 118.678 232.734 118.656C232.712 118.611 232.689 118.565 232.664 118.518C232.645 118.484 232.628 118.449 232.61 118.416C232.574 118.346 232.539 118.278 232.5 118.209C232.336 117.907 232.16 117.605 231.977 117.316C231.945 117.259 231.909 117.204 231.875 117.151C231.862 117.132 231.851 117.113 231.839 117.095C231.814 117.061 231.79 117.024 231.767 116.988C231.743 116.951 231.72 116.916 231.694 116.881C231.555 116.679 231.418 116.484 231.273 116.29C231.26 116.27 231.245 116.253 231.231 116.236C231.218 116.219 231.203 116.201 231.19 116.182C231.156 116.138 231.12 116.092 231.083 116.046C231.048 116.002 231.011 115.956 230.976 115.912C230.96 115.892 230.945 115.872 230.929 115.852C230.913 115.832 230.897 115.811 230.882 115.792C230.879 115.786 230.874 115.781 230.87 115.776C230.865 115.772 230.861 115.767 230.857 115.76L230.763 115.647C230.725 115.603 230.687 115.56 230.649 115.518C230.611 115.475 230.573 115.433 230.535 115.389C230.517 115.367 230.498 115.347 230.479 115.326C230.461 115.305 230.441 115.285 230.423 115.263C230.403 115.241 230.385 115.22 230.365 115.2C230.347 115.18 230.328 115.16 230.309 115.138C230.266 115.093 230.228 115.055 230.19 115.011C230.152 114.968 230.114 114.93 230.076 114.892L229.931 114.747L229.824 114.64C229.796 114.612 229.766 114.583 229.736 114.555C229.706 114.527 229.676 114.498 229.648 114.47C229.604 114.426 229.566 114.388 229.522 114.35C229.466 114.294 229.409 114.243 229.352 114.194V114.192C229.311 114.152 229.267 114.113 229.223 114.074C229.198 114.053 229.174 114.032 229.15 114.01C229.135 113.997 229.12 113.983 229.105 113.97C229.076 113.943 229.046 113.916 229.012 113.89C228.817 113.72 228.616 113.557 228.408 113.4C228.358 113.355 228.307 113.317 228.257 113.28C228.228 113.257 228.2 113.238 228.172 113.217C228.143 113.197 228.115 113.176 228.087 113.154C227.828 112.966 227.558 112.783 227.287 112.606C227.253 112.584 227.216 112.563 227.18 112.541C227.144 112.518 227.108 112.496 227.074 112.474C226.846 112.335 226.62 112.203 226.387 112.078C226.343 112.046 226.292 112.02 226.242 111.995C226.191 111.971 226.14 111.943 226.088 111.917C226.036 111.891 225.983 111.863 225.934 111.838C225.745 111.738 225.549 111.649 225.354 111.561L225.146 111.467C225.065 111.436 224.984 111.402 224.904 111.369C224.825 111.336 224.744 111.303 224.661 111.272C224.634 111.262 224.606 111.251 224.58 111.241C224.553 111.229 224.527 111.219 224.498 111.208C224.413 111.174 224.324 111.143 224.238 111.112C224.215 111.105 224.193 111.097 224.171 111.089C224.007 111.033 223.844 110.975 223.674 110.926C223.56 110.888 223.447 110.856 223.334 110.825C223.283 110.805 223.233 110.794 223.182 110.781C223.176 110.781 223.172 110.779 223.167 110.778C223.162 110.775 223.157 110.774 223.151 110.774C223.122 110.768 223.096 110.76 223.069 110.752C223.042 110.744 223.015 110.736 222.987 110.731L222.836 110.693C222.827 110.689 222.819 110.688 222.811 110.686C222.803 110.685 222.795 110.683 222.786 110.68C222.764 110.673 222.742 110.668 222.719 110.664C222.719 110.664 222.719 110.664 222.718 110.664C222.006 110.489 221.273 110.365 220.524 110.295C220.547 110.227 220.571 110.161 220.595 110.094C220.619 110.023 220.645 109.953 220.67 109.881C220.746 109.66 220.815 109.446 220.878 109.226V109.225C220.897 109.168 220.916 109.112 220.928 109.056C220.935 109.049 220.935 109.043 220.935 109.036C220.941 109.009 220.949 108.981 220.957 108.955C220.965 108.928 220.972 108.901 220.979 108.873L221.017 108.741C221.055 108.596 221.093 108.445 221.124 108.294C221.129 108.266 221.136 108.236 221.142 108.206C221.149 108.176 221.155 108.146 221.162 108.117V108.112C221.167 108.076 221.175 108.04 221.183 108.004C221.191 107.968 221.2 107.931 221.205 107.897V107.891C221.225 107.815 221.237 107.746 221.25 107.671V107.651C221.252 107.627 221.257 107.599 221.263 107.573C221.267 107.547 221.272 107.519 221.275 107.494C221.278 107.482 221.279 107.472 221.281 107.463C221.282 107.451 221.285 107.441 221.287 107.432C221.287 107.425 221.289 107.419 221.29 107.412C221.293 107.406 221.294 107.4 221.294 107.394C221.297 107.365 221.302 107.336 221.306 107.309C221.311 107.28 221.316 107.251 221.319 107.224C221.325 107.217 221.325 107.204 221.325 107.199C221.328 107.173 221.332 107.149 221.335 107.126C221.337 107.102 221.341 107.079 221.344 107.054C221.344 107.043 221.345 107.034 221.348 107.025C221.349 107.016 221.35 107.007 221.35 106.996C221.35 106.988 221.351 106.979 221.353 106.97C221.355 106.958 221.357 106.947 221.357 106.934C221.357 106.929 221.358 106.923 221.359 106.916C221.361 106.909 221.363 106.9 221.363 106.89C221.363 106.851 221.368 106.816 221.373 106.778C221.374 106.774 221.375 106.769 221.375 106.764C221.375 106.752 221.378 106.737 221.379 106.723C221.38 106.709 221.382 106.694 221.382 106.682C221.382 106.632 221.388 106.587 221.395 106.544L221.413 106.374C221.417 106.349 221.418 106.323 221.42 106.298C221.421 106.273 221.422 106.247 221.426 106.222C221.426 106.21 221.427 106.197 221.429 106.184C221.43 106.172 221.433 106.159 221.433 106.146C221.433 106.131 221.434 106.115 221.435 106.098C221.437 106.08 221.438 106.059 221.438 106.04V106.034C221.438 106.012 221.44 105.988 221.442 105.964C221.443 105.941 221.445 105.917 221.445 105.895C221.451 105.87 221.451 105.839 221.451 105.813C221.457 105.788 221.457 105.763 221.457 105.738V105.687V105.631V105.612C221.464 105.58 221.464 105.549 221.464 105.517V105.43V105.334V105.222V104.994V104.989C221.464 99.0411 218.04 93.8941 213.056 91.4177C211.024 90.4001 208.73 89.8281 206.303 89.8281C205.212 89.8281 204.144 89.951 203.113 90.1715C203.116 90.152 203.117 90.1336 203.118 90.1152C203.119 90.0911 203.121 90.0681 203.124 90.0428C203.127 90.0107 203.128 89.9797 203.131 89.9475C203.132 89.9165 203.134 89.8855 203.136 89.8533C203.143 89.7775 203.149 89.7029 203.149 89.627C203.156 89.5891 203.156 89.5512 203.156 89.5133V89.4065V89.2928C203.156 89.155 203.156 89.0229 203.149 88.8839V88.8667C203.142 88.7403 203.136 88.6071 203.124 88.4807C203.121 88.4589 203.119 88.4371 203.118 88.4153C203.117 88.3934 203.115 88.3705 203.111 88.3486C203.109 88.3268 203.107 88.305 203.105 88.2832C203.104 88.2602 203.102 88.2384 203.099 88.2166C203.086 88.0845 203.068 87.9524 203.049 87.8203L203.03 87.6882C203.024 87.6514 203.017 87.6124 203.01 87.5745C203.002 87.5262 202.993 87.478 202.986 87.4297C202.954 87.254 202.917 87.084 202.879 86.914C202.865 86.8612 202.852 86.8083 202.839 86.7567C202.81 86.6395 202.782 86.5235 202.746 86.4098C202.74 86.388 202.734 86.3673 202.728 86.3466C202.722 86.3259 202.715 86.3064 202.709 86.2834C202.697 86.2398 202.684 86.2019 202.671 86.164C202.608 85.9561 202.532 85.7482 202.456 85.5472C202.454 85.5403 202.452 85.5322 202.45 85.5242C202.439 85.492 202.428 85.4576 202.413 85.4277C202.391 85.3772 202.37 85.3266 202.35 85.2761C202.329 85.2267 202.309 85.1762 202.286 85.1256L202.212 84.9556C202.192 84.912 202.174 84.8741 202.154 84.8362C202.098 84.7167 202.042 84.603 201.984 84.4893L201.928 84.3767C201.903 84.3388 201.884 84.3009 201.865 84.263C201.838 84.2205 201.814 84.1769 201.789 84.1309C201.773 84.1022 201.757 84.0724 201.74 84.0425C201.734 84.0344 201.728 84.0253 201.722 84.0149C201.706 83.9908 201.69 83.9632 201.677 83.9357C201.57 83.753 201.456 83.5762 201.337 83.4004C201.311 83.366 201.287 83.3315 201.264 83.297C201.24 83.2614 201.217 83.227 201.192 83.1925C201.154 83.1362 201.109 83.0731 201.065 83.0168C201.047 82.9915 201.026 82.9639 201.006 82.9375C200.985 82.9111 200.964 82.8847 200.946 82.8594C200.926 82.8341 200.907 82.8089 200.886 82.7836C200.866 82.7583 200.845 82.7331 200.827 82.7078C200.827 82.7021 200.82 82.6952 200.814 82.6894C200.794 82.6664 200.777 82.6446 200.76 82.6228C200.743 82.601 200.725 82.5792 200.707 82.5573C200.684 82.5321 200.665 82.5068 200.644 82.4815C200.623 82.4563 200.603 82.431 200.581 82.4057C200.565 82.3873 200.55 82.369 200.534 82.3517C200.518 82.3345 200.501 82.3173 200.487 82.2989C200.342 82.1346 200.19 81.9773 200.04 81.8268L199.907 81.6947C199.738 81.5247 199.555 81.3674 199.372 81.21C199.353 81.1905 199.335 81.1721 199.309 81.1526C199.165 81.0331 199.02 80.9194 198.868 80.8068C198.812 80.762 198.754 80.7184 198.698 80.6805C198.689 80.6736 198.679 80.6667 198.668 80.6598C198.633 80.6334 198.593 80.6047 198.553 80.5794L198.383 80.4669L198.213 80.3531L198.063 80.259H198.056C198.031 80.2429 198.008 80.2291 197.984 80.2153C197.96 80.2004 197.937 80.1866 197.911 80.1705C197.88 80.1544 197.851 80.1372 197.819 80.12C197.79 80.1027 197.76 80.0855 197.729 80.0694C197.703 80.0579 197.678 80.043 197.653 80.0292C197.628 80.0155 197.602 80.0005 197.577 79.9879C197.515 79.95 197.452 79.919 197.389 79.888L197.162 79.7742C197.146 79.7651 197.129 79.757 197.112 79.749C197.095 79.7409 197.077 79.7329 197.061 79.7237C196.848 79.6226 196.627 79.5284 196.4 79.44C196.381 79.4343 196.361 79.4262 196.34 79.4182C196.321 79.4101 196.3 79.4021 196.28 79.3963C196.241 79.386 196.206 79.3722 196.168 79.3584C196.157 79.3538 196.147 79.3504 196.136 79.3458C196.126 79.3447 196.118 79.3424 196.109 79.3401C196.082 79.3309 196.054 79.3205 196.025 79.3114C195.947 79.2815 195.875 79.2574 195.796 79.2321C195.781 79.2264 195.763 79.2218 195.745 79.2172C195.728 79.2126 195.711 79.208 195.696 79.2011C195.69 79.1999 195.684 79.1988 195.68 79.1965C195.577 79.1655 195.476 79.1356 195.373 79.108C195.365 79.1058 195.357 79.1023 195.349 79.1C195.135 79.038 194.915 78.9874 194.694 78.9426L194.661 78.9369C194.547 78.9151 194.435 78.8933 194.32 78.8749C194.285 78.8657 194.246 78.8611 194.207 78.8565C194.203 78.8554 194.198 78.8542 194.193 78.8542C194.182 78.8519 194.17 78.8496 194.159 78.8485C194.157 78.8485 194.154 78.8485 194.152 78.8473C194.146 78.8473 194.14 78.8462 194.134 78.845C194.13 78.8439 194.126 78.8439 194.121 78.8427C194.023 78.8289 193.923 78.814 193.821 78.8025C193.672 78.7853 193.523 78.7704 193.371 78.7589C193.303 78.7543 193.235 78.7497 193.168 78.7462C193.132 78.7439 193.096 78.7416 193.062 78.7405C193.021 78.7347 192.979 78.7347 192.938 78.7347C192.875 78.729 192.818 78.729 192.755 78.729H192.591H192.566H192.428C192.346 78.729 192.258 78.729 192.169 78.7347C192.151 78.7347 192.134 78.737 192.117 78.7382C192.093 78.7393 192.07 78.7405 192.045 78.7416C192.002 78.7416 191.963 78.7428 191.918 78.7474C191.889 78.7497 191.862 78.752 191.834 78.7543C191.782 78.7577 191.731 78.7612 191.679 78.7658C191.674 78.7658 191.67 78.7669 191.666 78.7669C191.496 78.7795 191.322 78.7979 191.153 78.8232C191.152 78.8232 191.151 78.8232 191.149 78.8232C191.116 78.8232 191.089 78.8278 191.056 78.8335C191.052 78.8347 191.047 78.8347 191.043 78.8358C190.999 78.8427 190.954 78.8508 190.911 78.8576C190.905 78.8588 190.898 78.8599 190.892 78.8611C190.855 78.8668 190.819 78.8737 190.782 78.8795C190.781 78.8795 190.78 78.8795 190.778 78.8806L235.283 147.805ZM190.776 78.8806C189.999 79.0139 189.25 79.2332 188.536 79.5284C188.543 79.5296 188.549 79.5319 188.555 79.533C185.357 80.8585 182.956 83.7105 182.26 87.1839V87.1908C182.179 87.5929 182.159 88.0086 182.191 88.4176C182.216 88.7013 182.228 88.9907 182.228 89.2802V178.151C182.228 178.46 182.216 178.769 182.191 179.071C182.159 179.505 182.179 179.946 182.26 180.373V180.38C183.306 185.939 188.178 190.145 194.034 190.145C199.838 190.145 204.686 186.001 205.781 180.512V180.505C207.361 181.406 209.112 182.042 210.969 182.35C211.009 182.357 211.052 182.363 211.094 182.37C211.137 182.375 211.179 182.382 211.22 182.388C211.226 182.389 211.232 182.39 211.236 182.39C211.225 182.394 211.213 182.397 211.202 182.401C211.964 182.514 212.743 182.577 213.537 182.577C216.942 182.577 220.095 181.497 222.672 179.659L222.704 179.637C223.422 179.12 224.102 178.548 224.725 177.924H224.726C224.807 177.842 224.882 177.767 224.958 177.686C225.034 177.61 225.108 177.528 225.184 177.447C225.222 177.405 225.259 177.364 225.294 177.324C225.331 177.282 225.367 177.241 225.405 177.201C225.549 177.037 225.694 176.867 225.833 176.697C225.902 176.615 225.971 176.527 226.041 176.439C226.11 176.351 226.179 176.262 226.242 176.174C226.249 176.174 226.249 176.168 226.249 176.168C226.318 176.08 226.381 175.992 226.443 175.904H226.444C226.564 175.734 226.676 175.564 226.79 175.394C226.817 175.343 226.847 175.298 226.878 175.249C226.891 175.231 226.904 175.211 226.916 175.192C226.998 175.06 227.079 174.928 227.161 174.789C227.193 174.739 227.224 174.682 227.256 174.626C227.28 174.581 227.306 174.536 227.331 174.492C227.4 174.368 227.467 174.247 227.533 174.121C227.602 173.989 227.671 173.857 227.734 173.725C227.752 173.692 227.77 173.656 227.786 173.619C227.798 173.594 227.81 173.568 227.822 173.542C227.822 173.53 227.828 173.524 227.835 173.511C227.851 173.477 227.866 173.444 227.882 173.41C227.898 173.377 227.913 173.345 227.929 173.309C227.967 173.235 227.998 173.165 228.03 173.09C228.043 173.061 228.056 173.031 228.068 173.001C228.081 172.972 228.093 172.942 228.106 172.913C228.119 172.884 228.131 172.854 228.143 172.825C228.156 172.795 228.168 172.765 228.181 172.737C228.2 172.68 228.226 172.617 228.251 172.56C228.263 172.529 228.274 172.5 228.285 172.47C228.296 172.44 228.307 172.41 228.32 172.378C228.345 172.315 228.37 172.258 228.389 172.195C228.411 172.135 228.431 172.075 228.452 172.013C228.473 171.952 228.493 171.89 228.515 171.83C228.559 171.705 228.597 171.585 228.634 171.459C228.647 171.421 228.659 171.383 228.669 171.345C228.68 171.307 228.691 171.271 228.703 171.233C228.71 171.213 228.715 171.195 228.719 171.175C228.724 171.157 228.729 171.137 228.736 171.119C228.742 171.09 228.752 171.06 228.761 171.03C228.773 170.987 228.787 170.943 228.799 170.898C228.81 170.851 228.822 170.805 228.833 170.761C228.844 170.715 228.855 170.669 228.868 170.622C228.873 170.615 228.873 170.609 228.873 170.602C228.884 170.555 228.894 170.51 228.906 170.464C228.916 170.418 228.927 170.372 228.937 170.325C228.946 170.285 228.956 170.245 228.965 170.206C228.974 170.167 228.984 170.128 228.993 170.086C229.005 170.048 229.012 170.01 229.018 169.973C229.025 169.935 229.033 169.898 229.041 169.86C229.048 169.822 229.056 169.784 229.063 169.746C229.069 169.713 229.076 169.677 229.082 169.642C229.09 169.598 229.1 169.552 229.107 169.507C229.113 169.463 229.119 169.426 229.126 169.388C229.135 169.318 229.146 169.248 229.157 169.177C229.169 169.105 229.179 169.035 229.188 168.965C229.192 168.934 229.196 168.901 229.201 168.868C229.205 168.835 229.211 168.802 229.213 168.77C229.225 168.713 229.232 168.649 229.238 168.591L229.239 168.576C229.241 168.559 229.242 168.543 229.243 168.526C229.248 168.476 229.252 168.427 229.258 168.374C229.264 168.305 229.271 168.242 229.277 168.173C229.28 168.138 229.283 168.105 229.286 168.072C229.289 168.038 229.293 168.006 229.296 167.971C229.296 167.896 229.302 167.82 229.308 167.744C229.314 167.688 229.32 167.625 229.32 167.569C229.32 167.533 229.322 167.501 229.324 167.467C229.326 167.434 229.327 167.401 229.327 167.366C229.333 167.165 229.34 166.957 229.34 166.756C229.34 166.447 229.333 166.145 229.314 165.843C229.314 165.824 229.313 165.805 229.311 165.786C229.31 165.767 229.308 165.749 229.308 165.73C229.308 165.711 229.306 165.692 229.305 165.673C229.303 165.654 229.302 165.635 229.302 165.616L229.283 165.39C229.277 165.321 229.271 165.245 229.264 165.169C229.26 165.129 229.256 165.089 229.251 165.05C229.247 165.011 229.242 164.972 229.239 164.93C229.235 164.896 229.231 164.861 229.226 164.827C229.221 164.791 229.217 164.757 229.213 164.722C229.213 164.684 229.208 164.646 229.201 164.609C229.201 164.572 229.195 164.534 229.188 164.496L229.17 164.364C229.17 164.354 229.169 164.347 229.166 164.339C229.165 164.331 229.163 164.323 229.163 164.313C229.163 164.308 229.162 164.301 229.161 164.293C229.159 164.283 229.157 164.273 229.157 164.263C229.151 164.203 229.141 164.148 229.131 164.089C229.128 164.08 229.127 164.071 229.126 164.062C229.123 164.037 229.118 164.012 229.113 163.989C229.108 163.965 229.103 163.941 229.101 163.917C229.097 163.907 229.095 163.894 229.094 163.881C229.093 163.871 229.09 163.858 229.088 163.847C229.088 163.822 229.081 163.796 229.076 163.771C229.072 163.764 229.071 163.756 229.07 163.748C229.068 163.738 229.066 163.726 229.063 163.715C229.059 163.706 229.058 163.697 229.056 163.686C229.055 163.677 229.054 163.668 229.05 163.659C229.05 163.652 229.048 163.647 229.047 163.643C229.046 163.638 229.043 163.633 229.043 163.626C229.038 163.577 229.025 163.52 229.012 163.463C229.009 163.444 229.004 163.424 229 163.404C228.995 163.383 228.991 163.362 228.987 163.344C228.974 163.293 228.969 163.25 228.956 163.199L228.937 163.123C228.911 163.022 228.886 162.928 228.861 162.827C228.857 162.82 228.856 162.812 228.855 162.803C228.853 162.794 228.852 162.786 228.848 162.777C228.842 162.751 228.834 162.725 228.826 162.698C228.818 162.672 228.81 162.644 228.804 162.619C228.799 162.601 228.792 162.575 228.786 162.55L228.767 162.474L228.754 162.424V162.423C228.734 162.354 228.716 162.286 228.698 162.223C228.691 162.201 228.683 162.177 228.676 162.154C228.668 162.13 228.66 162.107 228.653 162.084C228.64 162.044 228.628 162.002 228.615 161.962C228.599 161.909 228.583 161.858 228.566 161.807C228.549 161.763 228.533 161.717 228.518 161.672C228.502 161.627 228.486 161.581 228.47 161.537C228.464 161.521 228.459 161.504 228.452 161.487C228.446 161.469 228.439 161.452 228.433 161.436C228.423 161.407 228.413 161.38 228.401 161.351C228.391 161.322 228.379 161.295 228.37 161.266C228.362 161.251 228.358 161.235 228.351 161.219C228.347 161.207 228.344 161.197 228.338 161.185C228.32 161.121 228.294 161.058 228.269 160.995C228.266 160.993 228.265 160.987 228.263 160.982C228.261 160.978 228.26 160.973 228.257 160.97C228.251 160.951 228.243 160.934 228.235 160.917C228.227 160.9 228.219 160.882 228.213 160.863L228.156 160.731L228.043 160.467C227.998 160.378 227.961 160.29 227.923 160.202C227.903 160.153 227.879 160.104 227.857 160.055C227.845 160.03 227.833 160.006 227.822 159.982C227.822 159.982 227.816 159.975 227.816 159.969L227.741 159.818C227.721 159.774 227.703 159.73 227.678 159.686C227.656 159.645 227.633 159.603 227.611 159.559C227.589 159.518 227.567 159.475 227.546 159.434C227.542 159.427 227.538 159.42 227.533 159.412C227.528 159.404 227.524 159.396 227.52 159.39C227.517 159.384 227.512 159.375 227.508 159.367C227.503 159.361 227.499 159.352 227.495 159.346C227.476 159.315 227.458 159.281 227.441 159.248C227.424 159.215 227.407 159.183 227.388 159.15L227.312 159.018C227.3 159 227.294 158.98 227.281 158.962C227.278 158.957 227.277 158.953 227.276 158.949C227.273 158.945 227.272 158.94 227.269 158.937C227.265 158.933 227.263 158.93 227.262 158.928C227.261 158.924 227.258 158.921 227.256 158.917L227.124 158.691C227.086 158.635 227.048 158.571 227.01 158.508C226.991 158.481 226.972 158.451 226.954 158.421C226.935 158.39 226.916 158.36 226.897 158.333C226.821 158.213 226.746 158.092 226.663 157.973C226.739 157.96 226.808 157.948 226.884 157.929C226.886 157.929 226.89 157.928 226.892 157.928C227.106 157.883 227.317 157.832 227.525 157.775C227.53 157.774 227.534 157.773 227.539 157.772L227.608 157.752C227.629 157.747 227.65 157.74 227.671 157.734C227.678 157.734 227.69 157.728 227.696 157.728C227.721 157.721 227.747 157.713 227.772 157.705C227.797 157.697 227.822 157.69 227.848 157.684C227.911 157.665 227.967 157.646 228.023 157.627C228.16 157.581 228.29 157.537 228.421 157.487C228.439 157.48 228.458 157.472 228.477 157.465C228.547 157.441 228.613 157.417 228.678 157.388H228.685C228.741 157.363 228.804 157.338 228.867 157.313H228.868C228.87 157.309 228.873 157.307 228.877 157.305C228.891 157.299 228.903 157.293 228.916 157.287C228.917 157.287 228.917 157.287 228.918 157.287C228.94 157.278 228.961 157.269 228.983 157.259C230.26 156.697 231.395 155.894 232.338 154.912L232.362 154.889L232.4 154.851C232.5 154.743 232.601 154.631 232.702 154.517C232.758 154.454 232.809 154.397 232.859 154.334C232.881 154.309 232.902 154.283 232.922 154.256C232.942 154.229 232.962 154.202 232.984 154.177C232.991 154.171 232.997 154.164 233.004 154.152C233.042 154.121 233.067 154.083 233.092 154.039C233.111 154.019 233.13 153.994 233.143 153.976C233.161 153.949 233.182 153.921 233.203 153.892C233.216 153.874 233.23 153.855 233.243 153.837C233.275 153.793 233.307 153.748 233.338 153.704C233.415 153.594 233.491 153.483 233.564 153.37C233.57 153.365 233.577 153.352 233.583 153.346C233.592 153.33 233.603 153.314 233.615 153.299C233.625 153.283 233.637 153.267 233.646 153.251C233.649 153.245 233.654 153.237 233.659 153.229C233.663 153.221 233.668 153.214 233.671 153.207C233.687 153.182 233.701 153.159 233.715 153.135C233.73 153.111 233.744 153.088 233.76 153.063L233.816 152.968L233.872 152.874C233.892 152.842 233.91 152.809 233.93 152.777C233.948 152.743 233.967 152.71 233.986 152.679C234.004 152.641 234.024 152.609 234.042 152.578C234.055 152.547 234.074 152.509 234.093 152.477C234.109 152.442 234.126 152.409 234.143 152.377C234.16 152.344 234.178 152.31 234.194 152.276C234.197 152.269 234.198 152.264 234.2 152.26C234.202 152.255 234.203 152.251 234.206 152.244L234.244 152.169C234.253 152.153 234.262 152.136 234.27 152.119C234.276 152.101 234.285 152.084 234.295 152.068L234.389 151.86C234.398 151.838 234.407 151.818 234.417 151.797C234.427 151.776 234.436 151.757 234.445 151.734C234.452 151.71 234.465 151.69 234.471 151.672C234.483 151.646 234.496 151.614 234.508 151.589L234.565 151.457C234.584 151.426 234.597 151.388 234.61 151.35C234.612 151.346 234.613 151.34 234.614 151.334C234.616 151.327 234.618 151.32 234.622 151.312C234.635 151.294 234.641 151.274 234.647 151.256V151.249C234.647 151.247 234.647 151.244 234.649 151.242C234.651 151.239 234.653 151.234 234.653 151.231C234.666 151.196 234.678 151.159 234.691 151.124C234.704 151.087 234.716 151.051 234.729 151.017C234.729 151.004 234.735 150.997 234.735 150.992C234.744 150.963 234.754 150.933 234.763 150.903C234.773 150.873 234.782 150.844 234.792 150.815C234.798 150.815 234.798 150.809 234.798 150.802C234.811 150.746 234.829 150.69 234.848 150.632C234.859 150.612 234.865 150.586 234.87 150.563C234.871 150.559 234.873 150.555 234.874 150.551C234.892 150.5 234.905 150.456 234.917 150.406C234.922 150.393 234.923 150.384 234.925 150.373C234.927 150.368 234.928 150.362 234.93 150.355V150.35C234.937 150.337 234.943 150.324 234.943 150.312C234.946 150.305 234.947 150.297 234.95 150.29C234.951 150.282 234.952 150.274 234.955 150.267C234.962 150.236 234.975 150.205 234.981 150.173C234.984 150.167 234.985 150.159 234.986 150.151C234.989 150.143 234.99 150.135 234.993 150.129C234.997 150.11 235.001 150.092 235.006 150.075C235.01 150.058 235.015 150.041 235.018 150.022C235.022 150.003 235.027 149.986 235.031 149.968C235.036 149.951 235.04 149.934 235.044 149.914C235.048 149.901 235.049 149.882 235.053 149.865C235.054 149.86 235.055 149.856 235.056 149.852C235.062 149.827 235.067 149.802 235.071 149.776C235.077 149.751 235.082 149.726 235.087 149.701V149.695V149.682L235.125 149.474C235.125 149.455 235.132 149.442 235.132 149.424C235.138 149.399 235.145 149.368 235.151 149.335C235.151 149.326 235.152 149.318 235.154 149.31C235.155 149.302 235.156 149.295 235.156 149.285V149.267V149.26C235.163 149.254 235.163 149.241 235.163 149.234V149.229V149.21V149.203C235.163 149.194 235.164 149.185 235.167 149.175C235.168 149.165 235.169 149.156 235.169 149.147L235.188 149.033C235.188 149.028 235.19 149.02 235.192 149.012C235.193 149.003 235.194 148.995 235.194 148.99C235.201 148.983 235.201 148.97 235.201 148.964C235.207 148.952 235.207 148.945 235.207 148.932C235.214 148.894 235.214 148.858 235.219 148.82C235.219 148.807 235.222 148.792 235.223 148.778C235.224 148.765 235.226 148.75 235.226 148.737L235.245 148.549V148.523C235.248 148.502 235.249 148.477 235.252 148.454C235.253 148.43 235.254 148.407 235.257 148.384C235.264 148.366 235.264 148.348 235.264 148.328V148.322V148.29C235.27 148.24 235.277 148.183 235.277 148.127V148.082V148.064V148.051C235.283 148.001 235.283 147.95 235.283 147.9V147.894V147.831V147.805" fill="#FFCEE3"/>
<path d="M213.921 150.853C213.707 149.946 212.807 149.385 211.901 149.6C209.181 150.235 206.75 151.791 205.032 153.988C202.646 152.962 200.008 152.722 197.433 153.321C196.526 153.535 195.966 154.435 196.181 155.342C196.394 156.248 197.295 156.809 198.201 156.594C200.512 156.053 202.885 156.449 204.9 157.697C206.908 158.943 208.312 160.9 208.853 163.206C208.985 163.778 209.061 164.363 209.08 164.949C209.105 165.862 209.855 166.579 210.761 166.579C210.779 166.579 210.799 166.579 210.812 166.579C211.736 166.548 212.467 165.774 212.442 164.848C212.416 164.043 212.309 163.237 212.127 162.443C211.504 159.774 210.037 157.444 207.94 155.744C209.162 154.315 210.824 153.302 212.669 152.874C213.568 152.66 214.136 151.76 213.921 150.853Z" fill="#FDB2D2"/>
<path d="M199.774 117.083C199.787 117.114 199.807 117.146 199.825 117.177C200.682 118.883 201.185 120.791 201.254 122.8C201.342 125.494 200.631 128.113 199.202 130.385C198.705 131.173 198.944 132.211 199.731 132.702C200.008 132.879 200.317 132.96 200.624 132.96C201.185 132.96 201.726 132.683 202.048 132.173C203.836 129.334 204.723 126.054 204.61 122.686C204.541 120.545 204.068 118.492 203.268 116.611C205.851 113.394 207.191 109.289 206.97 105.158C206.92 104.233 206.121 103.521 205.202 103.572C204.276 103.622 203.565 104.416 203.615 105.341C203.766 108.18 202.992 111.014 201.456 113.394C199.29 110.39 196.136 108.124 192.37 107.06C191.477 106.808 190.551 107.33 190.299 108.225C190.048 109.119 190.571 110.044 191.464 110.296C195.154 111.334 198.112 113.834 199.774 117.083Z" fill="#FDB2D2"/>
<path d="M200.291 175.728C197.772 174.664 195.632 172.895 194.095 170.622C193.573 169.854 192.527 169.647 191.76 170.169C190.992 170.692 190.784 171.73 191.306 172.504C193.207 175.318 195.858 177.51 198.974 178.825C199.189 178.914 199.409 178.957 199.629 178.957C200.284 178.957 200.908 178.574 201.179 177.931C201.543 177.076 201.146 176.087 200.291 175.728Z" fill="#FDB2D2"/>
<defs>
<filter id="filter0_d_1332_27055" x="85.2197" y="50.094" width="181.174" height="206.425" filterUnits="userSpaceOnUse" color-interpolation-filters="sRGB">
<feFlood flood-opacity="0" result="BackgroundImageFix"/>
<feColorMatrix in="SourceAlpha" type="matrix" values="0 0 0 0 0 0 0 0 0 0 0 0 0 0 0 0 0 0 127 0" result="hardAlpha"/>
<feOffset dy="4"/>
<feGaussianBlur stdDeviation="10"/>
<feColorMatrix type="matrix" values="0 0 0 0 0.754167 0 0 0 0 0.702801 0 0 0 0 0.487066 0 0 0 0.4 0"/>
<feBlend mode="normal" in2="BackgroundImageFix" result="effect1_dropShadow_1332_27055"/>
<feBlend mode="normal" in="SourceGraphic" in2="effect1_dropShadow_1332_27055" result="shape"/>
</filter>
<filter id="filter1_d_1332_27055" x="124.218" y="246.777" width="100.52" height="62.7012" filterUnits="userSpaceOnUse" color-interpolation-filters="sRGB">
<feFlood flood-opacity="0" result="BackgroundImageFix"/>
<feColorMatrix in="SourceAlpha" type="matrix" values="0 0 0 0 0 0 0 0 0 0 0 0 0 0 0 0 0 0 127 0" result="hardAlpha"/>
<feOffset dy="4"/>
<feGaussianBlur stdDeviation="10"/>
<feColorMatrix type="matrix" values="0 0 0 0 0.808264 0 0 0 0 0.83785 0 0 0 0 0.858333 0 0 0 0.8 0"/>
<feBlend mode="normal" in2="BackgroundImageFix" result="effect1_dropShadow_1332_27055"/>
<feBlend mode="normal" in="SourceGraphic" in2="effect1_dropShadow_1332_27055" result="shape"/>
</filter>
</defs>
</svg>
