<svg width="512" height="373" viewBox="0 0 512 373" fill="none" xmlns="http://www.w3.org/2000/svg">
<g clip-path="url(#clip0_1296_28759)">
<path d="M358.144 128.155L465.65 66.157C466.709 65.5203 467.93 65.1968 469.173 65.2241C470.415 65.2514 471.628 65.6284 472.672 66.3113C473.715 66.9943 474.546 67.9553 475.068 69.0832C475.591 70.2111 475.783 71.4598 475.623 72.6847L452.575 278.088C452.426 279.456 451.847 280.739 450.92 281.752C449.993 282.766 448.766 283.459 447.412 283.734C446.058 284.008 444.647 283.85 443.38 283.281C442.113 282.712 441.055 281.762 440.355 280.566L355.803 137.128C354.922 135.615 354.673 133.823 355.111 132.142C355.55 130.461 356.64 129.028 358.144 128.155Z" fill="#DAE7F0"/>
<path d="M42.0566 166.328L346.815 195.298C349.039 195.534 351.29 195.136 353.311 194.15C355.332 193.165 357.042 191.63 358.245 189.722C359.448 187.815 360.096 185.611 360.114 183.362C360.133 181.113 359.522 178.911 358.351 177.006L263.885 19.4621C263.077 18.1192 262.013 16.9519 260.753 16.0269C259.492 15.102 258.06 14.4375 256.538 14.0714C255.016 13.7054 253.435 13.645 251.884 13.8937C250.333 14.1424 248.843 14.6953 247.499 15.5208L37.2068 144.094C35.0295 145.393 33.3111 147.347 32.2981 149.677C31.2851 152.006 31.0296 154.591 31.5682 157.06C32.1068 159.53 33.4119 161.756 35.2962 163.421C37.1806 165.086 39.5473 166.104 42.0566 166.328Z" fill="#DAE7F0"/>
<path d="M80.6687 202.711L188.22 366.124C188.878 367.104 189.773 367.905 190.822 368.454C191.871 369.002 193.04 369.28 194.218 369.26C195.396 369.24 196.544 368.924 197.556 368.341C198.569 367.758 199.411 366.927 200.004 365.926L287.525 217.269C288.107 216.265 288.421 215.127 288.437 213.961C288.452 212.795 288.169 211.64 287.614 210.603C287.059 209.566 286.25 208.682 285.263 208.033C284.275 207.384 283.142 206.991 281.968 206.891L86.8952 192.135C85.6071 192.039 84.323 192.3 83.1865 192.889C82.0501 193.477 81.106 194.37 80.46 195.467C79.8139 196.565 79.4912 197.823 79.5281 199.103C79.5649 200.382 79.9599 201.631 80.6687 202.711V202.711Z" fill="#DAE7F0"/>
<path d="M338.235 310.211L337.412 322.352C337.408 322.426 337.422 322.499 337.453 322.566C337.484 322.632 337.532 322.69 337.591 322.733C337.65 322.777 337.719 322.804 337.791 322.814C337.863 322.823 337.936 322.813 338.003 322.786L347.933 318.717C347.999 318.689 348.058 318.644 348.102 318.587C348.147 318.53 348.177 318.462 348.188 318.39C348.2 318.318 348.193 318.243 348.168 318.174C348.144 318.105 348.102 318.043 348.048 317.994L338.941 309.921C338.881 309.868 338.808 309.832 338.729 309.819C338.651 309.805 338.57 309.814 338.497 309.844C338.424 309.874 338.36 309.924 338.314 309.989C338.268 310.054 338.24 310.13 338.235 310.211V310.211Z" fill="#2F82B8"/>
<path d="M109.864 234.117L120.789 240.113C120.856 240.149 120.93 240.167 121.005 240.167C121.081 240.166 121.155 240.147 121.221 240.111C121.286 240.075 121.342 240.023 121.381 239.96C121.421 239.897 121.443 239.825 121.447 239.751L121.945 228.773C121.948 228.699 121.931 228.625 121.898 228.559C121.864 228.493 121.813 228.437 121.751 228.395C121.689 228.353 121.617 228.327 121.542 228.32C121.467 228.313 121.392 228.325 121.323 228.354L109.899 233.336C109.824 233.369 109.76 233.422 109.713 233.489C109.667 233.556 109.64 233.635 109.636 233.716C109.633 233.797 109.652 233.877 109.692 233.948C109.732 234.019 109.792 234.078 109.864 234.117V234.117Z" fill="#2F82B8"/>
<path d="M317.349 29.3985L306.405 35.3605C306.34 35.3971 306.284 35.4497 306.244 35.5134C306.203 35.5771 306.18 35.6498 306.175 35.7247C306.17 35.7995 306.184 35.8741 306.215 35.9415C306.247 36.0088 306.295 36.0667 306.356 36.1096L315.329 42.4534C315.39 42.4957 315.461 42.5216 315.534 42.5288C315.608 42.5359 315.683 42.5241 315.752 42.4943C315.821 42.4646 315.881 42.4179 315.928 42.3587C315.974 42.2994 316.005 42.2296 316.018 42.1556L317.988 29.8498C318.001 29.7685 317.991 29.6856 317.96 29.6104C317.928 29.5351 317.877 29.4704 317.81 29.4236C317.744 29.3768 317.666 29.3496 317.584 29.3452C317.503 29.3407 317.422 29.3592 317.349 29.3985V29.3985Z" fill="#2F82B8"/>
<path d="M83.0754 151.785L90.5433 154.19C90.5885 154.204 90.6366 154.207 90.6832 154.198C90.7297 154.189 90.7732 154.168 90.8095 154.138C90.8459 154.107 90.8738 154.069 90.8908 154.025C90.9078 153.981 90.9132 153.934 90.9066 153.888L89.9069 147.042C89.8998 146.996 89.881 146.953 89.8522 146.916C89.8234 146.879 89.7855 146.85 89.7421 146.832C89.6987 146.813 89.6512 146.806 89.6041 146.81C89.5569 146.815 89.5116 146.831 89.4724 146.858L83.0043 151.298C82.9616 151.327 82.928 151.368 82.9073 151.415C82.8865 151.462 82.8795 151.513 82.8869 151.564C82.8942 151.614 82.9158 151.662 82.9491 151.701C82.9824 151.74 83.0261 151.769 83.0754 151.785V151.785Z" fill="#9AAFBC"/>
<path d="M171.216 88.4878L184.248 88.3347C184.326 88.333 184.403 88.3117 184.472 88.2726C184.54 88.2335 184.598 88.1779 184.639 88.1112C184.68 88.0444 184.704 87.9686 184.708 87.8909C184.711 87.8132 184.695 87.7361 184.66 87.6668L179.473 77.4123C179.437 77.3435 179.385 77.285 179.32 77.2422C179.255 77.1994 179.18 77.1737 179.102 77.1676C179.024 77.1614 178.945 77.175 178.873 77.207C178.801 77.239 178.739 77.2884 178.691 77.3506L170.847 87.7583C170.795 87.827 170.764 87.9084 170.756 87.9933C170.748 88.0782 170.764 88.1633 170.802 88.239C170.841 88.3147 170.9 88.378 170.973 88.422C171.046 88.4659 171.13 88.4887 171.216 88.4878V88.4878Z" fill="#9AAFBC"/>
<path d="M395.496 143.334L403.221 151.649C403.268 151.699 403.327 151.736 403.392 151.758C403.458 151.779 403.527 151.783 403.594 151.771C403.662 151.759 403.724 151.729 403.777 151.686C403.829 151.643 403.869 151.588 403.893 151.525L407.472 142.177C407.495 142.114 407.502 142.046 407.492 141.979C407.482 141.912 407.454 141.849 407.413 141.795C407.371 141.741 407.316 141.698 407.253 141.671C407.191 141.643 407.122 141.631 407.054 141.637L395.751 142.669C395.676 142.676 395.605 142.703 395.546 142.747C395.486 142.792 395.441 142.852 395.414 142.921C395.388 142.99 395.382 143.065 395.396 143.138C395.41 143.211 395.445 143.279 395.496 143.334V143.334Z" fill="#2F82B8"/>
<path d="M380.116 226.674L385.327 230.081C385.378 230.116 385.439 230.136 385.501 230.138C385.563 230.14 385.625 230.125 385.679 230.093C385.734 230.062 385.778 230.016 385.807 229.961C385.837 229.906 385.85 229.844 385.845 229.782L385.267 219.429C385.264 219.36 385.238 219.295 385.195 219.241C385.151 219.188 385.091 219.15 385.024 219.132C384.957 219.115 384.886 219.119 384.821 219.143C384.756 219.168 384.7 219.213 384.662 219.271L380.024 226.218C379.976 226.292 379.959 226.381 379.976 226.466C379.993 226.551 380.044 226.626 380.116 226.674Z" fill="#9AAFBC"/>
<g filter="url(#filter0_d_1296_28759)">
<rect x="145" y="159" width="226" height="144" rx="8" fill="#3A8FC6"/>
<path fill-rule="evenodd" clip-rule="evenodd" d="M191.096 260.14C191.096 274.358 196.19 288.183 205.647 299.282C206.723 300.546 207.836 301.78 208.967 303C208.162 302.685 207.362 302.362 206.566 302.032L208.205 303H153.33C148.911 303 145.33 299.419 145.33 295V247.129C145.219 246.922 145.109 246.713 145 246.505V175H210C201.717 175 191.096 181.31 191.096 189.094V260.14Z" fill="#2F82B8"/>
<path d="M176.767 258.718H205.481V268.68H219.213V258.718H226.326V247.291H219.213V208.674H201.126L176.767 247.409V258.718ZM205.771 247.291H191.051V246.823L205.306 224.027H205.771V247.291Z" fill="white"/>
<path d="M258.451 270.145C274.013 270.175 283.565 258.572 283.594 238.765C283.623 219.076 274.013 207.854 258.451 207.854C242.889 207.854 233.367 219.046 233.338 238.765C233.28 258.513 242.889 270.145 258.451 270.145ZM258.451 258.279C252.267 258.279 248.057 252.009 248.115 238.765C248.144 225.785 252.296 219.632 258.451 219.632C264.635 219.632 268.787 225.785 268.816 238.765C268.845 252.009 264.664 258.279 258.451 258.279Z" fill="white"/>
<path d="M291.099 258.718H319.812V268.68H333.545V258.718H340.658V247.291H333.545V208.674H315.457L291.099 247.409V258.718ZM320.102 247.291H305.383V246.823L319.638 224.027H320.102V247.291Z" fill="white"/>
<path d="M250.264 175H275L259.736 148H235L250.264 175Z" fill="#2F82B8"/>
<path d="M306.77 148H282L297.23 175H322L306.77 148Z" fill="#2F82B8"/>
<path d="M367.306 148H329L344.204 175H367.306C369.346 175 371 173.319 371 171.246V151.755C371 149.681 369.346 148 367.306 148Z" fill="#2F82B8"/>
<path d="M212.928 148H186.163L194.614 156.596C195.485 157.482 195.467 158.613 195.161 159.375C194.855 160.138 194.09 160.953 192.864 160.953H161.512C160.141 160.953 159.027 159.81 159.027 158.405V148H149.662C147.639 148 146 149.682 146 151.755V171.246C146 173.319 147.639 175 149.662 175H228L212.928 148Z" fill="#2F82B8"/>
<path d="M199.108 170.865V151.694C199.108 149.654 200.772 148 202.825 148H185.779L194.359 156.455C195.243 157.327 195.226 158.439 194.915 159.189C194.604 159.939 193.828 160.741 192.582 160.741H160.749C159.358 160.741 158.227 159.616 158.227 158.235V148H148.718C146.665 148 145 149.654 145 151.694V170.865C145 172.904 146.638 175 148.691 175H205C202.946 175 199.108 172.904 199.108 170.865Z" fill="#3A8FC6"/>
<path d="M216.276 98.1694L142.77 116.847C140.805 117.347 139.615 119.349 140.113 121.319L144.796 139.839C145.294 141.809 147.292 143.002 149.257 142.503L158.625 140.122V127.306C158.625 126.079 159.417 125.311 160.159 125.001C160.443 124.881 160.783 124.805 161.141 124.805C161.714 124.805 162.336 125.001 162.872 125.533L173.694 136.293L207.896 127.603L216.276 98.1694Z" fill="#2F82B8"/>
<path d="M190.041 128.664L185.111 109.165C184.817 108.003 185.082 106.83 185.735 105.93L142.77 116.847C140.805 117.347 139.615 119.349 140.113 121.319L144.796 139.839C145.294 141.809 147.292 143.002 149.257 142.503L158.625 140.122V127.306C158.625 126.079 159.417 125.311 160.159 125.001C160.443 124.881 160.782 124.805 161.141 124.805C161.714 124.805 162.336 125.001 162.871 125.533L173.694 136.293L192.767 131.447C191.47 131.089 190.396 130.065 190.041 128.664V128.664Z" fill="#3A8FC6"/>
<path d="M261.871 86.584L238.661 92.4815L230.281 121.915L253.491 116.017L261.871 86.584Z" fill="#2F82B8"/>
<path d="M307.561 74.9741L284.256 80.8962L275.876 110.329L299.181 104.407L307.561 74.9741Z" fill="#2F82B8"/>
<path d="M363.38 84.2974L358.697 65.7776C358.199 63.8073 356.202 62.6147 354.236 63.1142L329.947 69.2863L321.567 98.7194L360.723 88.7699C362.689 88.2703 363.878 86.2681 363.38 84.2974V84.2974Z" fill="#2F82B8"/>
<path d="M194.687 156.411L163.248 125.151C161.338 123.252 158.09 124.609 158.09 127.306V158.565C158.09 160.241 159.445 161.6 161.117 161.6H192.556C195.258 161.599 196.605 158.318 194.687 156.411V156.411Z" fill="#2F82B8"/>
<path d="M227.332 175H251L235.668 148H212L227.332 175Z" fill="white"/>
<path d="M274.331 175H298L282.668 148H259L274.331 175Z" fill="white"/>
<path d="M321.331 175H345L329.668 148H306L321.331 175Z" fill="white"/>
<path d="M207.615 127.673L230.461 121.869L238.841 92.4355L215.995 98.2407L207.615 127.673Z" fill="white"/>
<path d="M253.26 116.075L276.105 110.27L284.486 80.8374L261.64 86.6421L253.26 116.075Z" fill="white"/>
<path d="M298.951 104.465L321.796 98.6606L330.176 69.2275L307.331 75.0322L298.951 104.465Z" fill="white"/>
<path d="M165.476 150.642L173.064 144.181C171.674 139.346 176.839 138.665 176.839 138.665L163.248 125.151C161.338 123.252 158.09 124.609 158.09 127.306V158.565C158.876 150.247 165.476 150.642 165.476 150.642V150.642Z" fill="#2F82B8"/>
<path d="M170.535 154.27C167.621 154.27 165.182 151.892 165.182 148.904C165.182 145.485 168.328 142.984 171.579 143.64C174.125 144.158 175.887 146.383 175.887 148.904C175.888 151.88 173.459 154.27 170.535 154.27V154.27Z" fill="white"/>
</g>
</g>
<defs>
<filter id="filter0_d_1296_28759" x="120" y="47.0005" width="271" height="280" filterUnits="userSpaceOnUse" color-interpolation-filters="sRGB">
<feFlood flood-opacity="0" result="BackgroundImageFix"/>
<feColorMatrix in="SourceAlpha" type="matrix" values="0 0 0 0 0 0 0 0 0 0 0 0 0 0 0 0 0 0 127 0" result="hardAlpha"/>
<feOffset dy="4"/>
<feGaussianBlur stdDeviation="10"/>
<feColorMatrix type="matrix" values="0 0 0 0 0.808264 0 0 0 0 0.83785 0 0 0 0 0.858333 0 0 0 0.8 0"/>
<feBlend mode="normal" in2="BackgroundImageFix" result="effect1_dropShadow_1296_28759"/>
<feBlend mode="normal" in="SourceGraphic" in2="effect1_dropShadow_1296_28759" result="shape"/>
</filter>
<clipPath id="clip0_1296_28759">
<rect width="512" height="373" fill="white"/>
</clipPath>
</defs>
</svg>
