<svg width="21" height="20" viewBox="0 0 21 20" fill="none" xmlns="http://www.w3.org/2000/svg">
<path d="M3.56313 0H16.5581C18.5283 0 20.1212 1.62393 20.1212 3.63248V16.3675C20.1212 18.3761 18.5283 20 16.5581 20H3.56313C1.59293 20 0 18.3761 0 16.3675V3.63248C0 1.62393 1.59293 0 3.56313 0Z" fill="#CCD2D7"/>
<path d="M4.77832 14.0171V5.21366C4.77832 5.15383 4.80347 5.11964 4.86216 5.11964C5.00468 5.11964 5.13883 5.11964 5.33165 5.11109C5.53287 5.10255 5.74246 5.10255 5.96882 5.094C6.19519 5.08545 6.43832 5.08545 6.69822 5.07691C6.95812 5.06836 7.20963 5.06836 7.46115 5.06836C8.14862 5.06836 8.71872 5.15383 9.18822 5.33332C9.60741 5.47862 9.99307 5.71793 10.3117 6.03417C10.5799 6.30768 10.7895 6.64101 10.9237 7.00853C11.0494 7.3675 11.1165 7.73503 11.1165 8.11964C11.1165 8.85468 10.9488 9.46152 10.6135 9.94015C10.2781 10.4188 9.80862 10.7778 9.26367 10.9829C8.69357 11.1966 8.06478 11.2735 7.37731 11.2735C7.1761 11.2735 7.04196 11.2735 6.95812 11.2649C6.87428 11.2564 6.75691 11.2564 6.59761 11.2564V14C6.606 14.0598 6.56408 14.1111 6.50539 14.1196H6.47186H4.87893C4.81186 14.1196 4.77832 14.0855 4.77832 14.0085V14.0171ZM6.606 6.77776V9.64956C6.72337 9.6581 6.83236 9.66665 6.93297 9.66665H7.37731C7.70428 9.66665 8.03125 9.61537 8.34145 9.5128C8.60973 9.43588 8.84448 9.27349 9.02893 9.05981C9.20499 8.84614 9.28883 8.55554 9.28883 8.17947C9.29721 7.91451 9.23014 7.64956 9.096 7.41879C8.95347 7.19656 8.75226 7.02562 8.50913 6.93161C8.19893 6.8034 7.86357 6.75212 7.51983 6.76067C7.30186 6.76067 7.10903 6.76067 6.94973 6.76921C6.78206 6.76067 6.66468 6.76921 6.606 6.77776Z" fill="white"/>
<path d="M12.3237 7.28213H13.7909C13.8747 7.28213 13.9418 7.34196 13.967 7.41888C13.9921 7.48726 14.0089 7.55563 14.0173 7.63256C14.034 7.71803 14.0508 7.81205 14.0592 7.89752C14.0676 7.99153 14.0759 8.0941 14.0759 8.20521C14.3275 7.90606 14.6293 7.6582 14.973 7.47016C15.3587 7.24794 15.803 7.13683 16.2474 7.13683C16.306 7.12828 16.3564 7.17102 16.3647 7.23085V7.26504V8.9317C16.3647 9.00008 16.3228 9.02572 16.2306 9.02572C15.9288 9.01717 15.6186 9.04281 15.3251 9.11119C15.082 9.16247 14.8473 9.2394 14.6209 9.34196C14.4616 9.41888 14.3107 9.52145 14.1933 9.6582V14.0172C14.1933 14.1026 14.1598 14.1368 14.0843 14.1368H12.4327C12.3656 14.1454 12.307 14.1026 12.2986 14.0343V14.0001V9.26504C12.2986 9.05991 12.2986 8.84623 12.2902 8.62401C12.2818 8.40179 12.2818 8.17957 12.2734 7.95734C12.2734 7.76076 12.2567 7.57273 12.2399 7.37615C12.2315 7.33341 12.2567 7.29068 12.2986 7.28213C12.2986 7.27358 12.3153 7.27358 12.3237 7.28213Z" fill="white"/>
</svg>
