<svg width="360" height="360" viewBox="0 0 360 360" fill="none" xmlns="http://www.w3.org/2000/svg">
<g clip-path="url(#clip0_1296_28547)">
<path d="M33.7877 195.833L42.2324 321.004C42.2935 322.251 42.7093 323.458 43.4316 324.487C44.1539 325.515 45.1533 326.321 46.314 326.813C47.4747 327.305 48.7493 327.462 49.9904 327.265C51.2315 327.069 52.3882 326.528 53.3268 325.704L212.84 190.745C213.905 189.85 214.656 188.642 214.985 187.293C215.315 185.944 215.206 184.523 214.675 183.232C214.143 181.941 213.216 180.845 212.025 180.101C210.835 179.357 209.441 179.003 208.042 179.089L40.0054 188.817C38.2387 188.929 36.5937 189.728 35.429 191.043C34.2643 192.357 33.6743 194.079 33.7877 195.833Z" fill="#FDD2BE"/>
<path d="M314.606 129.854L153.521 270.298C152.333 271.31 151.453 272.642 150.982 274.139C150.51 275.636 150.466 277.239 150.854 278.765C151.243 280.291 152.048 281.678 153.178 282.768C154.308 283.858 155.717 284.606 157.244 284.928L282.424 312.768C283.492 313.004 284.594 313.026 285.669 312.831C286.743 312.637 287.767 312.231 288.684 311.636C289.6 311.041 290.391 310.269 291.01 309.364C291.629 308.459 292.065 307.439 292.292 306.362L328.197 138.079C328.585 136.352 328.421 134.543 327.728 132.911C327.035 131.279 325.848 129.907 324.339 128.994C322.829 128.081 321.074 127.672 319.326 127.826C317.577 127.981 315.925 128.691 314.606 129.854Z" fill="#FDD2BE"/>
<path d="M246.245 159.518L75.3604 170.299C74.3292 170.354 73.2974 170.15 72.3617 169.705C71.4261 169.26 70.6173 168.589 70.0112 167.755C69.4052 166.921 69.0218 165.951 68.8969 164.936C68.7721 163.921 68.91 162.895 69.2977 161.954L127.203 22.513C127.599 21.5772 128.23 20.7587 129.038 20.1343C129.845 19.5098 130.802 19.0997 131.819 18.9424C132.836 18.785 133.88 18.8855 134.854 19.2344C135.827 19.5834 136.699 20.1694 137.386 20.9377L250.365 149.598C251.109 150.449 251.603 151.484 251.789 152.588C251.976 153.693 251.848 154.823 251.421 155.852C250.993 156.882 250.283 157.77 249.369 158.417C248.455 159.065 247.373 159.446 246.245 159.518Z" fill="#FDD2BE"/>
<path d="M290.417 80.6385L281.904 84.8085C281.853 84.8341 281.809 84.8723 281.776 84.9193C281.743 84.9664 281.723 85.0209 281.717 85.0776C281.71 85.1343 281.718 85.1915 281.74 85.2437C281.762 85.2959 281.797 85.3415 281.841 85.3761L288.452 90.4929C288.496 90.527 288.549 90.5491 288.605 90.5569C288.661 90.5648 288.718 90.5583 288.772 90.538C288.825 90.5176 288.872 90.4841 288.91 90.4406C288.947 90.3972 288.973 90.3451 288.985 90.2893L290.888 81.0025C290.9 80.9412 290.895 80.8779 290.874 80.8196C290.853 80.7614 290.816 80.7106 290.767 80.6728C290.718 80.635 290.659 80.6118 290.598 80.6057C290.536 80.5997 290.474 80.611 290.417 80.6385Z" fill="#FFB694"/>
<path d="M97.6468 141.111L82.7316 140.373C82.6416 140.369 82.5519 140.388 82.4708 140.428C82.3898 140.468 82.32 140.527 82.2681 140.601C82.2163 140.674 82.184 140.759 82.1743 140.848C82.1646 140.937 82.1779 141.026 82.2128 141.107L87.4273 153.199C87.463 153.281 87.519 153.351 87.5901 153.405C87.6612 153.458 87.7452 153.493 87.8341 153.505C87.9229 153.518 88.0139 153.508 88.0984 153.476C88.1829 153.445 88.2582 153.393 88.3172 153.325L98.0178 141.971C98.0818 141.896 98.1236 141.805 98.1385 141.709C98.1535 141.612 98.141 141.514 98.1025 141.424C98.064 141.335 98.001 141.259 97.9206 141.203C97.8401 141.148 97.7453 141.116 97.6468 141.111Z" fill="white"/>
<path d="M257.86 264.705L247.033 267.747C246.968 267.766 246.909 267.801 246.86 267.849C246.812 267.897 246.776 267.956 246.757 268.021C246.738 268.085 246.735 268.154 246.749 268.219C246.763 268.285 246.794 268.346 246.839 268.396L253.455 275.782C253.5 275.831 253.557 275.868 253.62 275.889C253.684 275.911 253.752 275.915 253.819 275.903C253.885 275.891 253.948 275.862 254.001 275.819C254.053 275.776 254.095 275.721 254.12 275.658L258.33 265.231C258.358 265.162 258.366 265.087 258.354 265.014C258.341 264.942 258.309 264.875 258.26 264.82C258.211 264.766 258.148 264.726 258.077 264.706C258.006 264.685 257.931 264.685 257.86 264.705Z" fill="white"/>
<path d="M72.6902 221.888L61.1631 214.66C61.0932 214.617 61.0134 214.592 60.9312 214.588C60.849 214.583 60.7671 214.599 60.6931 214.635C60.6192 214.67 60.5557 214.723 60.5085 214.789C60.4613 214.855 60.4321 214.932 60.4235 215.013L59.1845 226.946C59.1767 227.027 59.1897 227.108 59.2224 227.182C59.2552 227.256 59.3065 227.321 59.3715 227.371C59.4366 227.42 59.5134 227.453 59.5946 227.465C59.6758 227.478 59.7589 227.47 59.836 227.442L72.6021 222.737C72.6863 222.705 72.76 222.652 72.8149 222.582C72.8697 222.512 72.9037 222.428 72.9128 222.34C72.9219 222.252 72.906 222.163 72.8667 222.083C72.8273 222.003 72.7663 221.935 72.6902 221.888Z" fill="#FFB694"/>
<path d="M156.15 2.33332L149.52 2.89232C149.454 2.89666 149.391 2.91978 149.337 2.959C149.283 2.99821 149.241 3.05191 149.216 3.1139C149.191 3.17588 149.184 3.2436 149.195 3.30923C149.207 3.37487 149.236 3.43572 149.281 3.48475L156.579 11.8227C156.627 11.8784 156.692 11.9171 156.764 11.9334C156.835 11.9497 156.911 11.9427 156.979 11.9133C157.047 11.884 157.104 11.8339 157.142 11.7701C157.181 11.7063 157.198 11.6321 157.192 11.558L156.527 2.65677C156.52 2.56319 156.476 2.47668 156.405 2.41609C156.334 2.3555 156.243 2.32575 156.15 2.33332Z" fill="#FFB694"/>
<g filter="url(#filter0_d_1296_28547)">
<path d="M250.924 38.4018L216.913 34.1624C211.756 33.5197 207.054 37.2761 206.395 42.5648L202.215 76.0979C201.556 81.3867 205.192 86.1824 210.349 86.8251L244.36 91.0645C249.517 91.7072 254.219 87.9509 254.878 82.6621L259.058 49.129C259.717 43.8402 256.081 39.0445 250.924 38.4018Z" fill="#F99E74"/>
</g>
<path d="M213.153 77.5373L213.166 77.5389C213.688 77.6007 214.225 77.3891 214.546 76.9402C217.729 72.5013 219.746 67.3573 220.421 61.9613L220.422 61.9614L220.426 61.9311C221.086 56.6177 220.433 51.1407 218.407 45.9683C218.311 45.7239 218.149 45.5095 217.939 45.3477C217.729 45.186 217.478 45.083 217.214 45.0499L217.204 45.0486C216.975 45.0201 216.736 45.0454 216.507 45.1302C216.326 45.1959 216.161 45.296 216.021 45.4247C215.881 45.5534 215.768 45.7081 215.689 45.8801C215.611 46.0521 215.567 46.2378 215.562 46.4266C215.557 46.6154 215.589 46.8035 215.659 46.9801C217.484 51.631 218.117 56.646 217.502 61.5825C216.886 66.519 215.042 71.2252 212.13 75.2857C212.02 75.44 211.942 75.6143 211.901 75.7986C211.86 75.9829 211.856 76.1736 211.89 76.3597C211.924 76.5457 211.996 76.7234 212.1 76.8826C212.204 77.0418 212.34 77.1793 212.498 77.2872C212.693 77.4209 212.917 77.5066 213.152 77.5371L213.153 77.5373ZM221.28 74.9672C221.62 75.1567 222.021 75.2072 222.396 75.1077C222.772 75.0083 223.091 74.767 223.285 74.4364C225.369 70.8541 226.702 66.8972 227.209 62.7964L227.21 62.7877C227.723 58.6695 227.405 54.5501 226.263 50.5428C226.045 49.7778 225.233 49.3265 224.45 49.535C224.265 49.5838 224.091 49.6682 223.939 49.7834C223.787 49.8985 223.66 50.042 223.565 50.2058C223.47 50.3695 223.409 50.5502 223.386 50.7375C223.362 50.9248 223.377 51.115 223.428 51.2972C224.463 54.9131 224.756 58.6916 224.29 62.4127L224.288 62.4279L224.286 62.4431C223.825 66.1652 222.613 69.7565 220.722 73.0081C220.322 73.696 220.572 74.5739 221.28 74.9672ZM229.993 72.0736C230.357 72.21 230.762 72.199 231.117 72.043C231.472 71.8869 231.748 71.5986 231.886 71.2415C232.823 68.7894 233.458 66.228 233.783 63.6269L233.787 63.5965C234.111 60.9964 234.124 58.3574 233.815 55.7511C233.769 55.3715 233.572 55.0247 233.266 54.7865C232.961 54.5483 232.572 54.438 232.186 54.4798C231.994 54.4995 231.809 54.556 231.64 54.6462C231.472 54.7364 231.323 54.8585 231.203 55.0055C231.083 55.1525 230.993 55.3214 230.94 55.5026C230.887 55.6839 230.87 55.8739 230.892 56.0617C231.172 58.4513 231.163 60.8638 230.864 63.2486C230.567 65.6297 229.986 67.9765 229.127 70.2204C229.06 70.3973 229.029 70.5856 229.036 70.7747C229.043 70.9637 229.088 71.1496 229.168 71.3219C229.249 71.4941 229.363 71.6492 229.504 71.7782C229.646 71.9072 229.812 72.0076 229.993 72.0736ZM237.474 68.7832C237.662 68.8436 237.86 68.8661 238.057 68.8495C238.254 68.8329 238.445 68.7775 238.62 68.6865C238.794 68.5955 238.947 68.4709 239.071 68.3201C239.195 68.1694 239.286 67.9955 239.339 67.8089C239.656 66.69 239.882 65.5532 240.016 64.4038L240.02 64.3734C240.172 63.2249 240.232 62.066 240.2 60.9074C240.194 60.7134 240.148 60.5225 240.065 60.3461C239.982 60.1696 239.863 60.0112 239.717 59.8803C239.57 59.7494 239.399 59.6487 239.212 59.5842C239.025 59.5197 238.827 59.4927 238.63 59.5049C237.839 59.5505 237.238 60.2233 237.259 60.9988C237.285 62.0086 237.232 63.0139 237.098 64.0091L237.096 64.0243L237.094 64.0395C236.979 65.0395 236.784 66.0288 236.511 66.9983C236.305 67.727 236.735 68.5502 237.474 68.7832ZM242.888 64.7308C242.776 65.6275 243.43 66.4469 244.35 66.5615C245.268 66.676 246.104 66.0424 246.216 65.1457C246.327 64.25 245.673 63.4307 244.754 63.3162C243.835 63.2016 242.999 63.8352 242.888 64.7308Z" fill="white"/>
<g filter="url(#filter1_d_1296_28547)">
<path d="M249.258 126.27L196.812 109.786C188.861 107.286 180.36 111.859 177.796 120.015L161.544 171.722C158.981 179.878 163.337 188.492 171.288 190.991L223.734 207.475C231.685 209.975 240.186 205.402 242.75 197.246L259.002 145.538C261.565 137.383 257.209 128.769 249.258 126.27Z" fill="#F99E74"/>
</g>
<path d="M189.165 140.983C190.083 139.707 191.323 138.713 192.807 138.028C194.291 137.344 196.208 137.123 198.532 137.418C200.856 137.714 202.663 138.424 203.872 139.444C205.135 140.49 206.062 141.838 206.623 143.278C207.212 144.796 207.513 146.377 207.554 148.099C207.595 149.82 207.476 151.467 207.301 152.958L205.221 168.426C204.883 170.822 204.834 173.157 205.072 175.428C205.21 176.802 205.505 178.118 205.956 179.376L188.384 171.2C185.349 169.788 183.56 166.533 184.033 163.151L185.881 150.129C186.057 148.639 186.467 147.061 186.98 145.401C187.468 143.795 188.169 142.288 189.165 140.983Z" fill="white"/>
<path d="M229.525 180.65C228.607 181.926 227.367 182.92 225.883 183.605C224.398 184.289 222.482 184.51 220.158 184.215C217.834 183.919 216.027 183.21 214.818 182.189C213.555 181.143 212.628 179.795 212.067 178.355C211.478 176.837 211.177 175.256 211.136 173.535C211.095 171.813 211.214 170.166 211.389 168.676L213.522 153.232C213.86 150.836 213.91 148.501 213.671 146.229C213.533 144.856 213.238 143.54 212.787 142.282L230.359 150.458C233.394 151.87 235.183 155.125 234.71 158.507L232.915 171.554C232.74 173.044 232.33 174.621 231.816 176.281C231.222 177.838 230.467 179.32 229.525 180.65Z" fill="white"/>
<g filter="url(#filter2_d_1296_28547)">
<path d="M155.418 64.5832L115.394 72.6988C109.326 73.9292 105.441 79.9559 106.703 86.1796L114.704 125.64C115.966 131.864 121.892 135.901 127.96 134.67L167.984 126.555C174.052 125.324 177.937 119.297 176.675 113.074L168.674 73.6134C167.412 67.3898 161.486 63.3527 155.418 64.5832Z" fill="#F99E74"/>
</g>
<path d="M125.661 116.311L120.317 88.9962C120.28 88.8106 120.337 88.6894 120.518 88.6539C120.958 88.5679 121.371 88.487 121.961 88.3441C122.576 88.1962 123.223 88.0697 123.916 87.9066C124.609 87.7435 125.359 87.5967 126.155 87.4134C126.951 87.23 127.727 87.0783 128.503 86.9265C130.623 86.5116 132.433 86.4328 133.99 86.7064C135.371 86.9043 136.706 87.4141 137.88 88.2031C138.874 88.8898 139.722 89.7976 140.359 90.857C140.965 91.8949 141.395 92.9948 141.629 94.1882C142.075 96.4689 141.926 98.4529 141.182 100.14C140.439 101.828 139.209 103.225 137.653 104.19C136.024 105.197 134.131 105.815 132.011 106.23C131.391 106.352 130.977 106.433 130.713 106.457C130.449 106.481 130.087 106.552 129.596 106.648L131.262 115.161C131.324 115.341 131.226 115.526 131.05 115.587L130.947 115.608L126.034 116.569C125.827 116.609 125.703 116.524 125.656 116.285L125.661 116.311ZM126.903 92.7464L128.646 101.657C129.014 101.613 129.355 101.573 129.665 101.513L131.036 101.245C132.044 101.047 133.021 100.691 133.916 100.185C134.697 99.7849 135.322 99.1394 135.761 98.3651C136.174 97.5958 136.256 96.6436 136.028 95.4767C135.893 94.6496 135.525 93.8679 134.972 93.2328C134.397 92.6293 133.673 92.2204 132.866 92.0754C131.831 91.8648 130.766 91.908 129.711 92.1419C129.039 92.2735 128.444 92.3898 127.958 92.5125C127.436 92.5872 127.079 92.6845 126.903 92.7464Z" fill="white"/>
<path d="M144.844 90.8616L149.369 89.9763C149.627 89.9257 149.87 90.0709 149.995 90.2944C150.114 90.4913 150.207 90.6934 150.279 90.927C150.383 91.1821 150.492 91.4637 150.57 91.7238C150.652 92.0105 150.741 92.3236 150.808 92.6684C151.402 91.5884 152.182 90.6372 153.128 89.8464C154.183 88.9241 155.486 88.3113 156.856 88.0431C157.032 87.9812 157.213 88.0834 157.275 88.264L157.296 88.3701L158.308 93.5414C158.349 93.7536 158.236 93.8584 157.951 93.9141C157.015 94.0697 156.074 94.3364 155.211 94.7257C154.492 95.0315 153.815 95.4118 153.179 95.8667C152.734 96.2015 152.331 96.6108 152.052 97.1059L154.698 110.631C154.75 110.896 154.668 111.022 154.435 111.068L149.341 112.065C149.14 112.132 148.933 112.034 148.865 111.827L148.844 111.721L145.97 97.0294C145.845 96.3929 145.716 95.7299 145.555 95.0454C145.394 94.361 145.259 93.6715 145.098 92.987C144.979 92.3771 144.813 91.8038 144.642 91.2039C144.59 91.0764 144.642 90.9286 144.766 90.8768C144.761 90.8503 144.813 90.8402 144.844 90.8616Z" fill="white"/>
<path d="M92 174.144C93.6539 240.299 130.59 262.351 176.072 262.351C221.554 262.351 258.49 240.299 260.144 174.144H92Z" fill="#98BFDA"/>
<path d="M176.072 262.626C221.554 262.626 258.49 239.748 260.144 174.42L176.072 262.626Z" fill="#98BFDA"/>
<path d="M168.778 222.679L175.401 235.809C175.465 235.941 175.565 236.052 175.689 236.13C175.814 236.208 175.959 236.249 176.106 236.249C176.254 236.249 176.398 236.208 176.523 236.13C176.648 236.052 176.747 235.941 176.811 235.809L187.835 213.939C187.909 213.793 187.935 213.628 187.909 213.468C187.883 213.307 187.806 213.158 187.69 213.043C187.574 212.928 187.424 212.852 187.262 212.826C187.099 212.801 186.933 212.826 186.786 212.899L169.128 221.637C168.943 221.73 168.802 221.892 168.736 222.087C168.671 222.282 168.686 222.495 168.778 222.679Z" fill="white"/>
<path d="M197.179 192.294L179.176 201.211C179.044 201.275 178.933 201.374 178.855 201.498C178.777 201.621 178.735 201.764 178.735 201.91C178.735 202.055 178.777 202.198 178.855 202.321C178.933 202.445 179.044 202.544 179.176 202.608L189.978 207.96C190.07 208.006 190.17 208.033 190.273 208.04C190.376 208.047 190.479 208.034 190.577 208.002C190.674 207.969 190.765 207.918 190.842 207.851C190.92 207.784 190.984 207.702 191.029 207.611L198.23 193.342C198.306 193.196 198.333 193.03 198.308 192.868C198.282 192.706 198.206 192.556 198.089 192.439C197.972 192.323 197.821 192.246 197.658 192.22C197.494 192.194 197.326 192.22 197.179 192.294Z" fill="white"/>
<path d="M165.844 197.656L155.023 192.295C154.876 192.223 154.71 192.198 154.548 192.224C154.387 192.25 154.237 192.326 154.121 192.441C154.005 192.556 153.928 192.704 153.901 192.864C153.874 193.024 153.899 193.189 153.972 193.334L164.796 214.777C164.875 214.933 165.005 215.057 165.164 215.13C165.324 215.204 165.503 215.222 165.675 215.182C165.846 215.142 165.998 215.046 166.108 214.91C166.217 214.774 166.278 214.605 166.279 214.431V198.349C166.278 198.205 166.237 198.064 166.161 197.941C166.084 197.819 165.974 197.72 165.844 197.656Z" fill="white"/>
<path d="M188.608 208.935L168.911 199.177C168.792 199.119 168.659 199.093 168.527 199.099C168.394 199.106 168.266 199.146 168.153 199.216C168.04 199.285 167.947 199.382 167.882 199.497C167.818 199.612 167.784 199.741 167.783 199.873V219.388C167.784 219.519 167.819 219.648 167.883 219.763C167.948 219.877 168.041 219.974 168.154 220.043C168.267 220.112 168.395 220.152 168.528 220.159C168.66 220.165 168.792 220.138 168.911 220.081L188.608 210.323C188.738 210.259 188.847 210.159 188.923 210.037C189 209.914 189.04 209.773 189.04 209.629C189.04 209.485 189 209.344 188.923 209.221C188.847 209.098 188.738 208.999 188.608 208.935Z" fill="white"/>
<path d="M92 174.419C93.6539 239.747 130.59 262.626 176.072 262.626L92 174.419Z" fill="#98BFDA"/>
<path d="M92.2751 176.901H260.144C260.144 176.901 260.144 176.901 260.419 174.144H92.2751C91.9994 176.901 91.9994 176.901 92.2751 176.901Z" fill="#6EA7CF"/>
<path fill-rule="evenodd" clip-rule="evenodd" d="M139.962 267.864C138.584 267.864 137.481 266.21 137.481 264.832V254.082H145.751H214.662V264.832C214.662 266.21 213.56 267.864 212.182 267.864H148.232H139.962Z" fill="#6EA7CF"/>
</g>
<defs>
<filter id="filter0_d_1296_28547" x="188.138" y="24.0908" width="84.9971" height="85.0452" filterUnits="userSpaceOnUse" color-interpolation-filters="sRGB">
<feFlood flood-opacity="0" result="BackgroundImageFix"/>
<feColorMatrix in="SourceAlpha" type="matrix" values="0 0 0 0 0 0 0 0 0 0 0 0 0 0 0 0 0 0 127 0" result="hardAlpha"/>
<feOffset dy="4"/>
<feGaussianBlur stdDeviation="7"/>
<feColorMatrix type="matrix" values="0 0 0 0 0.833333 0 0 0 0 0.381944 0 0 0 0 0.542666 0 0 0 0.2 0"/>
<feBlend mode="normal" in2="BackgroundImageFix" result="effect1_dropShadow_1296_28547"/>
<feBlend mode="normal" in="SourceGraphic" in2="effect1_dropShadow_1296_28547" result="shape"/>
</filter>
<filter id="filter1_d_1296_28547" x="146.81" y="99.1025" width="126.927" height="127.056" filterUnits="userSpaceOnUse" color-interpolation-filters="sRGB">
<feFlood flood-opacity="0" result="BackgroundImageFix"/>
<feColorMatrix in="SourceAlpha" type="matrix" values="0 0 0 0 0 0 0 0 0 0 0 0 0 0 0 0 0 0 127 0" result="hardAlpha"/>
<feOffset dy="4"/>
<feGaussianBlur stdDeviation="7"/>
<feColorMatrix type="matrix" values="0 0 0 0 0.833333 0 0 0 0 0.381944 0 0 0 0 0.542666 0 0 0 0.2 0"/>
<feBlend mode="normal" in2="BackgroundImageFix" result="effect1_dropShadow_1296_28547"/>
<feBlend mode="normal" in="SourceGraphic" in2="effect1_dropShadow_1296_28547" result="shape"/>
</filter>
<filter id="filter2_d_1296_28547" x="92.4648" y="54.3623" width="98.4482" height="98.5286" filterUnits="userSpaceOnUse" color-interpolation-filters="sRGB">
<feFlood flood-opacity="0" result="BackgroundImageFix"/>
<feColorMatrix in="SourceAlpha" type="matrix" values="0 0 0 0 0 0 0 0 0 0 0 0 0 0 0 0 0 0 127 0" result="hardAlpha"/>
<feOffset dy="4"/>
<feGaussianBlur stdDeviation="7"/>
<feColorMatrix type="matrix" values="0 0 0 0 0.833333 0 0 0 0 0.381944 0 0 0 0 0.542666 0 0 0 0.2 0"/>
<feBlend mode="normal" in2="BackgroundImageFix" result="effect1_dropShadow_1296_28547"/>
<feBlend mode="normal" in="SourceGraphic" in2="effect1_dropShadow_1296_28547" result="shape"/>
</filter>
<clipPath id="clip0_1296_28547">
<rect width="360" height="360" fill="white"/>
</clipPath>
</defs>
</svg>
