<svg width="342" height="275" viewBox="0 0 342 275" fill="none" xmlns="http://www.w3.org/2000/svg">
<path d="M122.503 11.2939L5.17418 53.9311C3.99864 54.3339 2.95873 55.0657 2.17471 56.0418C1.39069 57.0179 0.894668 58.1984 0.743986 59.4468C0.593305 60.6951 0.794145 61.9603 1.32328 63.0958C1.85241 64.2313 2.68819 65.1907 3.73388 65.8631L176.641 181.525C177.79 182.299 179.152 182.686 180.532 182.63C181.912 182.572 183.24 182.076 184.328 181.21C185.416 180.344 186.209 179.154 186.592 177.807C186.975 176.461 186.93 175.027 186.464 173.71L130.921 15.3181C130.328 13.6552 129.111 12.299 127.534 11.5453C125.958 10.7915 124.15 10.7011 122.503 11.2939Z" fill="#DAE7F0"/>
<path d="M241.931 250.578L50.9507 122.142C49.563 121.189 48.0114 120.637 46.4734 120.549C44.9352 120.46 43.4727 120.839 42.2526 121.643C41.0326 122.446 40.1042 123.641 39.5737 125.092C39.0431 126.542 38.9318 128.189 39.2523 129.845L64.2027 265.927C64.4167 267.088 64.8379 268.227 65.4424 269.28C66.0467 270.333 66.8223 271.279 67.7249 272.064C68.6275 272.849 69.6394 273.457 70.7027 273.854C71.7658 274.251 72.8596 274.429 73.9212 274.377L239.951 266.73C241.663 266.672 243.228 266.024 244.422 264.879C245.616 263.734 246.377 262.151 246.597 260.357C246.817 258.563 246.484 256.651 245.646 254.894C244.808 253.137 243.507 251.626 241.931 250.578Z" fill="#DAE7F0"/>
<path d="M336.364 44.7857L163.387 23.7279C162.343 23.6106 161.283 23.7579 160.306 24.1561C159.33 24.5543 158.468 25.1903 157.804 26.0044C157.139 26.8185 156.692 27.784 156.505 28.8104C156.319 29.8367 156.399 30.8902 156.738 31.8719L207.368 177.344C207.715 178.321 208.309 179.192 209.092 179.876C209.875 180.56 210.824 181.034 211.848 181.254C212.872 181.474 213.938 181.434 214.948 181.135C215.957 180.837 216.877 180.292 217.621 179.55L339.966 55.1349C340.773 54.3125 341.335 53.2869 341.589 52.1727C341.844 51.0585 341.781 49.8996 341.407 48.8257C341.033 47.7519 340.363 46.8053 339.472 46.0918C338.582 45.3783 337.506 44.9261 336.364 44.7857Z" fill="#DAE7F0"/>
<path d="M240.181 55.9562L232.662 59.6492C232.617 59.6719 232.578 59.7057 232.55 59.7474C232.521 59.7891 232.503 59.8373 232.497 59.8876C232.492 59.9378 232.499 59.9884 232.518 60.0347C232.537 60.0809 232.567 60.1213 232.607 60.1519L238.445 64.6834C238.484 64.7137 238.531 64.7332 238.581 64.7402C238.63 64.7472 238.68 64.7414 238.727 64.7234C238.774 64.7053 238.816 64.6757 238.849 64.6372C238.882 64.5987 238.905 64.5525 238.916 64.5031L240.596 56.2786C240.607 56.2243 240.603 56.1682 240.584 56.1166C240.565 56.065 240.532 56.02 240.489 55.9866C240.447 55.9531 240.395 55.9326 240.34 55.9272C240.286 55.9218 240.23 55.9319 240.181 55.9562Z" fill="#185E8A"/>
<path d="M309.639 97.083L295.941 93.725C295.858 93.705 295.771 93.707 295.689 93.729C295.607 93.752 295.532 93.795 295.47 93.854C295.409 93.913 295.364 93.986 295.339 94.067C295.315 94.147 295.311 94.233 295.328 94.315L298.004 106.492C298.022 106.573 298.062 106.649 298.118 106.712C298.175 106.774 298.245 106.821 298.326 106.849C298.406 106.876 298.493 106.883 298.576 106.869C298.66 106.855 298.739 106.82 298.806 106.768L309.828 97.949C309.901 97.891 309.956 97.814 309.988 97.727C310.019 97.64 310.025 97.546 310.005 97.456C309.985 97.366 309.94 97.284 309.876 97.218C309.811 97.152 309.728 97.105 309.639 97.083Z" fill="#185E8A"/>
<path d="M151.775 0.921658L135.375 0.107659C135.276 0.103659 135.177 0.124658 135.088 0.168658C134.999 0.212658 134.922 0.278259 134.865 0.359259C134.808 0.440259 134.772 0.533958 134.762 0.631758C134.751 0.729458 134.766 0.827958 134.804 0.917958L140.538 14.2509C140.577 14.3403 140.639 14.4182 140.717 14.4772C140.796 14.5362 140.887 14.5744 140.985 14.5882C141.083 14.602 141.183 14.591 141.276 14.5562C141.369 14.5213 141.452 14.4639 141.517 14.3891L152.183 1.87016C152.254 1.78746 152.3 1.68726 152.316 1.58076C152.332 1.47436 152.319 1.36586 152.277 1.26746C152.234 1.16896 152.165 1.08456 152.076 1.02346C151.987 0.962359 151.884 0.927158 151.775 0.921658Z" fill="#9AAFBC"/>
<path d="M299.111 178.096L289.55 180.79C289.493 180.806 289.44 180.837 289.397 180.88C289.354 180.922 289.323 180.975 289.306 181.032C289.288 181.09 289.286 181.15 289.299 181.208C289.311 181.266 289.339 181.32 289.378 181.364L295.222 187.906C295.261 187.949 295.312 187.982 295.368 188.001C295.423 188.02 295.484 188.024 295.543 188.013C295.602 188.002 295.657 187.976 295.704 187.938C295.749 187.901 295.786 187.852 295.809 187.796L299.527 178.561C299.552 178.5 299.559 178.434 299.548 178.37C299.537 178.306 299.508 178.246 299.465 178.198C299.422 178.149 299.366 178.114 299.304 178.096C299.241 178.078 299.175 178.078 299.111 178.096Z" fill="#9AAFBC"/>
<path d="M124.902 223.829L114.721 217.428C114.659 217.39 114.588 217.368 114.516 217.364C114.444 217.36 114.371 217.374 114.306 217.406C114.24 217.437 114.184 217.484 114.142 217.542C114.102 217.601 114.076 217.669 114.068 217.74L112.974 228.309C112.967 228.38 112.978 228.452 113.007 228.518C113.036 228.583 113.081 228.641 113.138 228.685C113.196 228.728 113.264 228.757 113.336 228.768C113.408 228.779 113.48 228.772 113.549 228.748L124.824 224.581C124.898 224.553 124.962 224.506 125.011 224.444C125.06 224.381 125.09 224.307 125.098 224.229C125.106 224.151 125.092 224.072 125.057 224.002C125.022 223.931 124.968 223.871 124.902 223.829Z" fill="#185E8A"/>
<path d="M40.9104 64.2245L31.9812 64.9795C31.8923 64.9854 31.8065 65.0166 31.7339 65.0696C31.6614 65.1226 31.605 65.1951 31.5713 65.2788C31.5375 65.3625 31.5278 65.454 31.5434 65.5426C31.5588 65.6313 31.5989 65.7135 31.6588 65.7797L41.4881 77.0414C41.5534 77.1164 41.6405 77.1684 41.7373 77.1904C41.834 77.2124 41.9353 77.2034 42.0269 77.1634C42.1185 77.1244 42.1957 77.0564 42.2473 76.9704C42.299 76.8844 42.3226 76.7834 42.3148 76.6834L41.4189 64.6614C41.4089 64.535 41.3498 64.4182 41.2546 64.3363C41.1594 64.2545 41.0356 64.2143 40.9104 64.2245Z" fill="#185E8A"/>
<path d="M214.608 125.113L223.636 163.968L215.199 163.135L215.945 166.34L214.335 163.05L206.746 162.27L203.415 161.947L200.7 163.283C200.637 163.314 200.605 163.33 200.542 163.361L200.147 161.592L199.111 157.156L196.295 144.999L189.415 115.176L188.137 109.603L187.802 108.197C199.898 105.463 211.87 113.036 214.608 125.113Z" fill="#DBE4EA"/>
<path d="M214.608 125.113L223.636 163.967L215.198 163.135L208.168 132.443C206.175 123.65 199.29 117.264 191.016 115.487C190.499 115.388 189.964 115.258 189.431 115.207L188.152 109.634L187.817 108.229C199.899 105.463 211.87 113.036 214.608 125.113Z" fill="#96ABBA"/>
<path d="M145.942 37.3949L148.652 42.9309C149.395 44.4494 148.782 46.3207 147.236 47.0819L144.489 48.4335C142.974 49.1792 141.108 48.5668 140.35 47.0167L137.64 41.4806L87.9552 65.9332L90.6647 71.4691C91.4076 72.9881 90.7953 74.8591 89.2486 75.6201L86.4713 76.9871C84.9565 77.7331 83.0897 77.1211 82.3308 75.5701L79.6213 70.0341L74.1289 72.7381L117.481 161.315L123.005 158.596L120.311 153.092C119.568 151.573 120.18 149.702 121.726 148.941L124.473 147.589C125.988 146.843 127.854 147.456 128.613 149.006L131.323 154.542L181.039 130.074L178.329 124.538C177.586 123.019 178.199 121.148 179.745 120.387L182.523 119.02C184.038 118.274 185.904 118.886 186.663 120.436L189.373 125.972L194.833 123.285L151.481 34.7078L145.957 37.4265L145.942 37.3949ZM123.194 137.934C123.937 139.452 123.325 141.323 121.778 142.085L119.001 143.452C117.486 144.197 115.619 143.585 114.86 142.035L112.151 136.499C111.408 134.98 112.019 133.109 113.566 132.348L116.344 130.981C117.859 130.235 119.726 130.847 120.485 132.398L123.194 137.934ZM115.05 121.294C115.793 122.812 115.182 124.684 113.635 125.445L110.857 126.812C109.342 127.558 107.475 126.945 106.716 125.395L104.007 119.859C103.264 118.341 103.876 116.469 105.423 115.708L108.2 114.341C109.716 113.595 111.582 114.208 112.34 115.758L115.05 121.294ZM106.922 104.686C107.664 106.204 107.053 108.075 105.506 108.837L102.728 110.204C101.213 110.949 99.3466 110.337 98.5877 108.787L95.8782 103.251C95.1353 101.732 95.7466 99.861 97.2943 99.1L100.072 97.7331C101.586 96.9871 103.453 97.5991 104.212 99.15L106.922 104.686ZM98.7931 88.0771C99.536 89.5961 98.9247 91.4671 97.378 92.2281L94.5998 93.5951C93.085 94.3411 91.2181 93.7291 90.4592 92.1791L87.7498 86.6431C87.0068 85.1241 87.6181 83.2531 89.1648 82.4921L91.9431 81.1251C93.4579 80.3791 95.3247 80.9911 96.0836 82.5411L98.7931 88.0771ZM181.181 109.395C181.924 110.914 181.312 112.785 179.765 113.546L177.019 114.898C175.504 115.644 173.637 115.031 172.879 113.481L170.17 107.945C169.426 106.427 170.038 104.555 171.585 103.794L174.362 102.427C175.878 101.681 177.744 102.294 178.503 103.844L181.212 109.38L181.181 109.395ZM173.037 92.7551C173.78 94.2741 173.169 96.1451 171.622 96.9061L168.875 98.2581C167.36 99.0041 165.494 98.3911 164.735 96.8411L162.025 91.3051C161.283 89.7871 161.894 87.9151 163.441 87.1541L166.219 85.7871C167.734 85.0411 169.6 85.6541 170.359 87.2041L173.069 92.7401L173.037 92.7551ZM164.908 76.1471C165.651 77.6661 165.04 79.5371 163.493 80.2981L160.747 81.6501C159.231 82.3951 157.365 81.7831 156.607 80.2331L153.897 74.6971C153.154 73.1781 153.765 71.3071 155.312 70.5461L158.09 69.1791C159.605 68.4333 161.472 69.0456 162.23 70.5961L164.939 76.1321L164.908 76.1471ZM156.78 59.5391C157.523 61.0576 156.911 62.9289 155.364 63.6901L152.619 65.0417C151.103 65.7874 149.237 65.175 148.478 63.6249L145.769 58.0889C145.025 56.5704 145.637 54.6991 147.184 53.9379L149.961 52.5708C151.477 51.8251 153.344 52.4374 154.101 53.9875L156.811 59.5236L156.78 59.5391Z" fill="#4A6B80"/>
<path d="M140.207 67.6956L107.063 84.0073C105.548 84.7533 104.889 86.6083 105.648 88.1583L124.614 126.911C125.357 128.429 127.208 129.089 128.755 128.328L161.898 112.016C163.414 111.27 164.072 109.415 163.315 107.865L144.347 69.1123C143.604 67.5939 141.753 66.9344 140.207 67.6956ZM93.4785 63.215L100.26 77.0713C101.004 78.5893 102.853 79.2493 104.4 78.4873L137.545 62.1757C139.06 61.43 139.719 59.5748 138.96 58.0247L132.178 44.1687L93.4785 63.215ZM164.608 117.552L131.464 133.864C129.949 134.609 129.29 136.465 130.049 138.015L136.83 151.871L175.499 132.84L168.718 118.984C167.99 117.418 166.155 116.79 164.608 117.552Z" fill="#86ADC9"/>
<path d="M189.262 125.908L191.971 131.444C192.715 132.963 192.103 134.834 190.556 135.595L187.81 136.947C186.295 137.693 184.428 137.08 183.67 135.53L180.961 129.994L131.276 154.447L133.985 159.983C134.728 161.501 134.116 163.373 132.569 164.134L129.792 165.501C128.276 166.247 126.41 165.634 125.651 164.084L122.942 158.548L117.449 161.251L160.802 249.828L166.325 247.11L163.616 241.574C162.873 240.055 163.484 238.184 165.031 237.423L167.777 236.071C169.293 235.325 171.159 235.938 171.918 237.488L174.627 243.024L224.344 218.556L221.635 213.02C220.892 211.501 221.503 209.63 223.05 208.869L225.828 207.502C227.343 206.756 229.21 207.368 229.968 208.918L232.677 214.454L238.138 211.767L194.786 123.19L189.262 125.908ZM166.499 226.416C167.242 227.934 166.631 229.805 165.084 230.567L162.306 231.934C160.791 232.679 158.924 232.067 158.165 230.517L155.456 224.981C154.713 223.462 155.325 221.591 156.872 220.83L159.649 219.463C161.165 218.717 163.031 219.329 163.79 220.88L166.499 226.416ZM158.371 209.807C159.113 211.326 158.502 213.197 156.955 213.958L154.177 215.326C152.662 216.071 150.796 215.459 150.037 213.909L147.327 208.373C146.584 206.854 147.197 204.983 148.743 204.222L151.521 202.855C153.035 202.109 154.902 202.721 155.661 204.271L158.371 209.807ZM150.242 193.199C150.985 194.718 150.374 196.589 148.827 197.35L146.049 198.717C144.534 199.463 142.667 198.851 141.908 197.301L139.199 191.764C138.456 190.246 139.067 188.375 140.614 187.614L143.392 186.246C144.907 185.501 146.774 186.113 147.533 187.663L150.242 193.199ZM142.114 176.591C142.857 178.11 142.244 179.981 140.698 180.742L137.92 182.109C136.406 182.855 134.539 182.242 133.78 180.692L131.07 175.156C130.327 173.638 130.939 171.767 132.485 171.005L135.264 169.638C136.779 168.893 138.645 169.505 139.404 171.055L142.114 176.591ZM224.486 197.877C225.229 199.396 224.618 201.267 223.071 202.028L220.324 203.38C218.809 204.126 216.943 203.513 216.184 201.963L213.474 196.427C212.732 194.909 213.343 193.037 214.89 192.276L217.668 190.909C219.183 190.163 221.049 190.776 221.808 192.326L224.518 197.862L224.486 197.877ZM216.357 181.269C217.1 182.788 216.489 184.659 214.942 185.42L212.196 186.772C210.68 187.517 208.814 186.905 208.056 185.355L205.346 179.819C204.603 178.3 205.214 176.429 206.761 175.668L209.539 174.301C211.054 173.555 212.921 174.167 213.679 175.718L216.388 181.254L216.357 181.269ZM208.229 164.661C208.972 166.179 208.361 168.051 206.813 168.812L204.068 170.163C202.552 170.909 200.686 170.297 199.927 168.747L197.218 163.211C196.475 161.692 197.086 159.821 198.633 159.06L201.411 157.693C202.926 156.947 204.793 157.559 205.55 159.109L208.26 164.645L208.229 164.661ZM200.101 148.053C200.844 149.571 200.231 151.442 198.685 152.204L195.938 153.555C194.423 154.301 192.557 153.689 191.799 152.138L189.089 146.602C188.345 145.084 188.958 143.213 190.504 142.451L193.282 141.084C194.797 140.339 196.663 140.951 197.422 142.501L200.132 148.037L200.101 148.053Z" fill="#4A6B80"/>
<path d="M183.527 156.209L150.383 172.521C148.868 173.267 148.209 175.122 148.968 176.672L167.934 215.424C168.677 216.943 170.528 217.602 172.075 216.841L205.219 200.529C206.735 199.783 207.393 197.928 206.634 196.378L187.668 157.626C186.925 156.107 185.074 155.448 183.527 156.209ZM136.799 151.728L143.58 165.584C144.324 167.103 146.174 167.762 147.72 167.001L180.865 150.689C182.38 149.943 183.039 148.088 182.28 146.538L175.498 132.682L136.799 151.728ZM207.913 206.034L174.768 222.346C173.254 223.091 172.594 224.947 173.353 226.497L180.134 240.353L218.803 221.322L212.022 207.466C211.31 205.932 209.46 205.272 207.913 206.034Z" fill="#86ADC9"/>
<path d="M224.077 163.986L225.949 172.054L229.451 187.053L230.151 190.163L230.531 191.899L222.624 193.671L208.732 196.818L208.35 195.318L208.352 195.161L205.931 184.693L202.476 169.71L200.604 161.643L215.64 163.153L224.077 163.986Z" fill="#DBE4EA"/>
<path d="M224.077 163.987L225.95 172.054L229.452 187.053L230.151 190.163L230.531 191.9L222.624 193.671L222.228 191.982L220.92 186.188L218.683 176.415L217.572 171.584L217.466 171.205L215.64 163.154L224.077 163.987Z" fill="#96ABBA"/>
<path d="M234.824 165.056L234.057 172.853L232.625 187.375L229.452 187.053L220.92 186.188L205.931 184.693L166.149 180.719C156.595 179.768 149.037 172.968 146.729 164.172C146.699 164.109 146.683 164.077 146.684 163.998C146.607 163.761 146.562 163.509 146.516 163.256C146.471 163.004 146.425 162.751 146.38 162.499C146.336 162.246 146.29 161.994 146.245 161.741C146.2 161.489 146.186 161.221 146.141 160.968C146.095 160.716 146.081 160.448 146.068 160.18C146.054 159.912 146.04 159.644 146.027 159.375C146.013 159.107 146.015 158.871 146.001 158.603C146.001 158.603 146.001 158.603 145.986 158.571C145.973 158.303 146.005 158.051 145.992 157.783C146.009 157.5 146.011 157.263 146.029 156.98C146.047 156.696 146.08 156.444 146.098 156.161L200.619 161.596L215.655 163.106L224.093 163.939L234.824 165.056Z" fill="#F2F9FD"/>
<path d="M236.05 165.16L235.205 172.956L234.058 172.853L225.95 172.054L217.466 171.205L216.68 171.121L214.779 170.918L202.43 169.694L146.7 164.188C146.669 164.124 146.685 164.077 146.654 164.014C146.577 163.777 146.531 163.525 146.486 163.272C146.441 163.02 146.395 162.767 146.35 162.515C146.306 162.262 146.26 162.009 146.215 161.757C146.169 161.504 146.156 161.236 146.11 160.984C146.065 160.731 146.051 160.463 146.037 160.195C146.024 159.927 146.01 159.659 145.996 159.391C145.984 159.123 145.985 158.887 145.972 158.619C145.972 158.619 145.972 158.619 145.956 158.587C145.942 158.319 145.976 158.067 145.962 157.799C145.98 157.515 145.982 157.279 145.999 156.995C146.017 156.712 146.05 156.46 146.068 156.176L200.589 161.611L215.625 163.122L224.063 163.955L234.81 165.025L236.05 165.16Z" fill="#DBE4EA"/>
<path d="M282.512 153.089C282.2 152.771 281.857 152.469 281.513 152.167C281.169 151.865 280.825 151.563 280.465 151.309C280.278 151.165 280.09 151.022 279.919 150.911C279.559 150.656 279.152 150.385 278.761 150.146C278.088 149.731 277.383 149.332 276.678 149.012C276.365 148.852 276.02 148.708 275.675 148.563C273.747 147.745 271.645 147.21 269.461 146.99C267.606 146.803 265.829 146.853 264.082 147.124C261.705 147.47 259.419 148.242 257.352 149.299C257.098 149.423 256.846 149.547 256.609 149.703C256.483 149.765 256.34 149.875 256.215 149.937C255.961 150.061 255.756 150.201 255.52 150.357C255.408 150.451 255.282 150.513 255.172 150.607C254.934 150.763 254.697 150.919 254.476 151.106C254.017 151.45 253.59 151.778 253.147 152.153C252.735 152.512 252.293 152.888 251.912 153.31C251.801 153.404 251.705 153.53 251.627 153.608C251.341 153.905 251.056 154.203 250.786 154.532C250.342 155.064 249.913 155.629 249.484 156.193C249.325 156.428 249.166 156.664 249.007 156.899C248.943 157.009 248.848 157.134 248.784 157.244C248.561 157.589 248.354 157.966 248.147 158.343C246.871 160.698 245.986 163.292 245.666 166.08L234.856 165.041L234.089 172.837L232.658 187.36L233.679 187.446L261.616 190.184L265.151 190.524C272.441 191.254 279.209 188.277 283.714 183.155C283.857 182.967 284.016 182.81 284.19 182.607C284.317 182.466 284.443 182.325 284.555 182.152C284.682 182.011 284.793 181.839 284.92 181.698C285.047 181.557 285.158 181.384 285.238 181.227C285.476 180.914 285.668 180.584 285.858 180.254C285.97 180.082 286.05 179.925 286.13 179.768C286.241 179.595 286.321 179.438 286.401 179.281C286.481 179.124 286.575 178.999 286.655 178.842C286.736 178.685 286.816 178.527 286.912 178.323C287.007 178.119 287.103 177.915 287.199 177.711C287.311 177.459 287.439 177.161 287.551 176.909C287.6 176.768 287.663 176.658 287.711 176.516C287.823 176.265 287.92 175.982 287.985 175.714C288.032 175.573 288.049 175.447 288.113 175.337C288.145 175.243 288.194 175.101 288.21 174.975C288.276 174.708 288.356 174.472 288.42 174.204C288.469 174.063 288.502 173.89 288.55 173.748C288.614 173.56 288.632 173.355 288.681 173.135C288.714 172.961 288.761 172.82 288.762 172.662C288.795 172.489 288.844 172.269 288.877 172.096C288.91 171.844 288.944 171.592 288.993 171.371C289.026 171.198 289.027 171.041 289.044 170.915C289.677 164.047 287.101 157.582 282.512 153.089ZM266.135 181.011C259.426 180.348 254.488 174.339 255.152 167.614C255.817 160.888 261.813 155.935 268.523 156.598C270.046 156.75 271.505 157.171 272.806 157.826C273.683 158.258 274.449 158.784 275.184 159.404C275.294 159.468 275.387 159.579 275.465 159.658C275.574 159.722 275.668 159.833 275.761 159.944C275.965 160.119 276.136 160.309 276.308 160.499C276.401 160.61 276.48 160.69 276.572 160.801C276.666 160.912 276.744 160.991 276.838 161.102C276.931 161.213 277.009 161.293 277.071 161.419C277.165 161.53 277.211 161.625 277.304 161.736C277.398 161.847 277.46 161.974 277.538 162.053C277.538 162.053 277.538 162.053 277.554 162.085C279.045 164.333 279.779 167.113 279.474 170.011C278.841 176.721 272.876 181.659 266.135 181.011Z" fill="#3A8FC6"/>
<path d="M269.428 147.005C260.425 146.137 252.165 150.869 248.1 158.327C252.273 155.331 257.474 153.792 262.973 154.304C266.634 154.661 269.99 155.915 272.837 157.811C274.764 158.786 276.372 160.232 277.522 162.021C281.169 166.351 283.137 172.134 282.509 178.213C282.219 181.221 281.317 184.021 279.977 186.486C284.894 182.927 288.302 177.404 288.949 170.883C290.204 158.881 281.448 148.195 269.428 147.005Z" fill="#3A8FC6"/>
<path d="M222.228 191.981L208.319 195.176L208.365 195.35L210.723 205.769C199.27 208.698 192.184 220.232 194.801 231.82C197.25 242.587 207.213 249.656 217.864 248.771C218.053 248.757 218.274 248.727 218.462 248.713C218.651 248.698 218.871 248.668 219.06 248.654C219.249 248.639 219.423 248.593 219.611 248.579C220.052 248.519 220.477 248.428 220.902 248.336C228.731 246.564 234.624 240.759 236.88 233.603C237.025 233.179 237.122 232.738 237.251 232.282C237.349 231.841 237.447 231.401 237.544 230.96C237.643 230.362 237.743 229.763 237.795 229.149C237.843 228.85 237.846 228.535 237.864 228.251C237.866 227.936 237.884 227.652 237.886 227.337C237.915 225.635 237.74 223.916 237.36 222.179L236.553 218.69L230.515 191.946L230.103 190.225L222.228 191.981ZM204.172 229.759C202.665 223.16 206.804 216.569 213.403 215.088C219.988 213.575 226.56 217.72 228.035 224.335C229.51 230.95 225.403 237.524 218.819 239.037C212.204 240.487 205.679 236.358 204.172 229.759Z" fill="#3A8FC6"/>
<path d="M222.229 191.982L228.602 220.131L229.409 223.62C231.828 234.324 225.993 244.969 216.072 248.869C217.676 248.865 219.312 248.688 220.935 248.321C232.701 245.631 240.055 233.926 237.377 222.133L236.57 218.643L230.12 190.179L222.229 191.982Z" fill="#3A8FC6"/>
<path d="M217.037 178.011C218.885 177.101 219.648 174.863 218.741 173.011C217.835 171.159 215.602 170.395 213.754 171.304C211.906 172.214 211.143 174.452 212.05 176.304C212.956 178.156 215.189 178.92 217.037 178.011Z" fill="#95ABBA"/>
</svg>
