<svg width="140" height="140" viewBox="0 0 140 140" fill="none" xmlns="http://www.w3.org/2000/svg">
<g clip-path="url(#clip0_3774_52408)">
<path d="M25.9555 41.9009L5.23667 94.2671C5.02081 94.7843 4.95727 95.3573 5.05342 95.9198C5.14956 96.4824 5.40146 97.0115 5.77995 97.446C6.15845 97.8804 6.64806 98.2024 7.19214 98.3747C7.73622 98.547 8.31254 98.5626 8.85438 98.4196L99.9681 76.1585C100.575 76.0124 101.115 75.6758 101.51 75.1968C101.904 74.7177 102.135 74.1205 102.167 73.4902C102.2 72.8598 102.033 72.2285 101.691 71.686C101.349 71.1435 100.849 70.7174 100.262 70.4684L29.8458 40.323C29.1037 40.0097 28.2784 39.9997 27.5496 40.2952C26.8209 40.5908 26.2479 41.168 25.9555 41.9009Z" fill="#DAE7F0"/>
<path d="M45.9453 103.099L126.88 137.848C127.469 138.109 128.12 138.198 128.761 138.105C129.401 138.013 130.005 137.743 130.502 137.327C130.999 136.91 131.371 136.363 131.574 135.749C131.777 135.134 131.803 134.477 131.65 133.852L119.634 82.3842C119.531 81.9453 119.342 81.5319 119.078 81.1676C118.814 80.8033 118.48 80.4953 118.095 80.2611C117.711 80.0269 117.283 79.8712 116.836 79.8029C116.389 79.7346 115.933 79.755 115.492 79.8629L46.573 96.5813C45.8623 96.7455 45.2196 97.1296 44.7372 97.6786C44.2547 98.2276 43.9573 98.9132 43.8876 99.637C43.8179 100.361 43.9795 101.086 44.3491 101.708C44.7188 102.329 45.2776 102.816 45.9453 103.099Z" fill="#DAE7F0"/>
<path d="M124.662 71.3219L112.615 8.34171C112.539 7.96256 112.368 7.60743 112.12 7.30966C111.871 7.01188 111.552 6.78123 111.193 6.63932C110.834 6.49742 110.446 6.44894 110.066 6.49842C109.687 6.54789 109.328 6.69371 109.022 6.92219L63.8593 40.9428C63.5568 41.1738 63.3189 41.479 63.1678 41.8301C63.0167 42.1811 62.9574 42.5664 62.9953 42.95C63.0332 43.3336 63.1671 43.7029 63.3846 44.0234C63.602 44.3439 63.8959 44.6051 64.2387 44.7827L121.449 73.7422C121.827 73.9329 122.248 74.0152 122.666 73.9797C123.084 73.9442 123.482 73.7924 123.815 73.5412C124.149 73.2901 124.404 72.9495 124.554 72.5576C124.703 72.1656 124.741 71.7378 124.662 71.3219Z" fill="#DAE7F0"/>
<path d="M79.7878 12.0274L75.4172 13.2993C75.3907 13.3073 75.367 13.3219 75.3474 13.3417C75.3278 13.362 75.3132 13.3866 75.3055 13.414C75.2977 13.4409 75.2968 13.4697 75.3023 13.4971C75.3082 13.5244 75.3205 13.5499 75.3388 13.5707L78.0096 16.6586C78.0278 16.6794 78.0506 16.695 78.0766 16.7035C78.1021 16.7124 78.1295 16.7143 78.1564 16.7091C78.1833 16.704 78.2083 16.6921 78.2298 16.6742C78.2512 16.6563 78.2676 16.6331 78.2781 16.6072L79.9779 12.2474C79.9889 12.2186 79.9921 12.1875 79.987 12.1568C79.982 12.1266 79.9693 12.0987 79.9492 12.0756C79.9296 12.0529 79.9041 12.0364 79.8758 12.0279C79.8471 12.0194 79.8166 12.0194 79.7878 12.0274Z" fill="#9AAFBC"/>
<path d="M6.49877 77.1085L2.12811 78.3803C2.10168 78.3883 2.07798 78.403 2.05838 78.4228C2.03878 78.4431 2.02418 78.4676 2.01643 78.495C2.00869 78.5219 2.00778 78.5507 2.01325 78.5781C2.01918 78.6055 2.03148 78.631 2.04971 78.6518L4.72052 81.7397C4.73875 81.7605 4.76155 81.776 4.78753 81.7845C4.81306 81.7935 4.8404 81.7954 4.8673 81.7902C4.89419 81.785 4.91927 81.7732 4.94069 81.7553C4.96212 81.7373 4.97852 81.7142 4.98901 81.6882L6.68886 77.3285C6.6998 77.2997 6.70299 77.2685 6.69797 77.2379C6.69296 77.2076 6.6802 77.1798 6.66015 77.1567C6.64054 77.134 6.61501 77.1175 6.58675 77.109C6.55803 77.1005 6.52749 77.1005 6.49877 77.1085Z" fill="#9AAFBC"/>
<path d="M133.582 101.591L129.594 99.3981C129.569 99.3851 129.542 99.3787 129.514 99.3788C129.486 99.3793 129.458 99.3863 129.434 99.4002C129.409 99.4137 129.388 99.4334 129.373 99.4567C129.357 99.4802 129.348 99.5069 129.346 99.5345L129.049 103.606C129.047 103.634 129.052 103.661 129.065 103.685C129.076 103.71 129.094 103.731 129.117 103.746C129.14 103.761 129.166 103.771 129.194 103.773C129.222 103.776 129.249 103.771 129.275 103.76L133.561 101.881C133.589 101.869 133.613 101.849 133.632 101.824C133.649 101.799 133.66 101.77 133.662 101.74C133.665 101.71 133.658 101.68 133.644 101.654C133.63 101.628 133.608 101.606 133.582 101.591Z" fill="#9AAFBC"/>
<path d="M115.714 51.4558L110.183 50.1033C110.149 50.0955 110.114 50.0961 110.081 50.1052C110.048 50.1143 110.017 50.1316 109.993 50.1553C109.968 50.1791 109.95 50.2086 109.94 50.2411C109.93 50.2736 109.928 50.308 109.935 50.3411L111.016 55.2451C111.023 55.278 111.039 55.3085 111.062 55.3337C111.085 55.3588 111.114 55.3778 111.146 55.389C111.178 55.4001 111.213 55.4029 111.247 55.3971C111.281 55.3914 111.313 55.3773 111.34 55.3562L115.791 51.8046C115.821 51.7812 115.843 51.7502 115.855 51.7151C115.868 51.68 115.87 51.6423 115.862 51.6061C115.854 51.5699 115.836 51.5366 115.81 51.5101C115.784 51.4836 115.751 51.4647 115.714 51.4558Z" fill="#176EA5"/>
<path d="M39.678 111.971L35.5666 109.393C35.5416 109.377 35.5132 109.369 35.4839 109.367C35.4545 109.365 35.4253 109.371 35.3989 109.384C35.3726 109.396 35.3499 109.415 35.3331 109.439C35.3163 109.463 35.3058 109.49 35.3028 109.519L34.8609 113.775C34.8581 113.804 34.8627 113.833 34.8744 113.859C34.8861 113.886 34.9044 113.909 34.9276 113.926C34.9508 113.944 34.9782 113.956 35.0071 113.96C35.0361 113.965 35.0657 113.962 35.0932 113.952L39.6465 112.274C39.6766 112.262 39.7029 112.243 39.7224 112.218C39.742 112.193 39.7541 112.163 39.7574 112.132C39.7606 112.101 39.7549 112.069 39.7409 112.04C39.7269 112.012 39.7051 111.988 39.678 111.971Z" fill="#176EA5"/>
<path d="M36.5137 30.8526L33.8742 33.3284C33.8475 33.3526 33.8281 33.3839 33.8184 33.4189C33.8086 33.4538 33.8089 33.4908 33.8191 33.5257C33.8294 33.5606 33.8492 33.5919 33.8762 33.616C33.9033 33.6401 33.9365 33.6561 33.972 33.662L39.8992 34.756C39.9386 34.7634 39.9793 34.7581 40.0155 34.7408C40.0516 34.7235 40.0813 34.6951 40.1004 34.6597C40.1195 34.6242 40.1271 34.5835 40.1219 34.5433C40.1167 34.5032 40.0992 34.4656 40.0717 34.4359L36.7839 30.8632C36.7491 30.8258 36.7012 30.8037 36.6506 30.8017C36.6 30.7997 36.5507 30.818 36.5137 30.8526Z" fill="#176EA5"/>
<path d="M71.0445 40.3979C53.7611 40.3979 39.7012 54.4579 39.7012 71.7412C39.7012 89.0246 53.7611 103.085 71.0445 103.085C88.3278 103.085 102.388 89.0246 102.388 71.7412C102.388 54.4579 88.3278 40.3979 71.0445 40.3979Z" fill="#176EA5"/>
<path d="M86.9296 65.0994L69.9519 82.0767C69.4425 82.5861 68.7739 82.8424 68.1053 82.8424C67.4367 82.8424 66.7681 82.5861 66.2587 82.0767L57.7701 73.5881C56.7485 72.567 56.7485 70.916 57.7701 69.895C58.7912 68.8734 60.4416 68.8734 61.4632 69.895L68.1053 76.537L83.2365 61.4063C84.2576 60.3847 85.9081 60.3847 86.9296 61.4063C87.9507 62.4274 87.9507 64.0779 86.9296 65.0994Z" fill="#FAFAFA"/>
</g>
<defs>
<clipPath id="clip0_3774_52408">
<rect width="140" height="140" fill="white"/>
</clipPath>
</defs>
</svg>
