<svg width="95" height="76" viewBox="0 0 95 76" fill="none" xmlns="http://www.w3.org/2000/svg">
<path d="M88.5484 4L11.3781 4C8.01448 4 6.15281 7.8992 8.26759 10.5149L56.0795 69.651C57.9123 71.9179 61.4765 71.5258 62.7728 68.9148L92.1312 9.77868C93.4512 7.11976 91.5169 4 88.5484 4Z" fill="#F486AE"/>
<path d="M50.9985 43.3378C56.2868 43.3378 60.1384 40.3073 60.1263 36.1297C60.1384 33.0388 58.2066 30.8172 54.7414 30.3222V30.129C57.4218 29.5495 59.2208 27.5573 59.2087 24.7803C59.2208 21.0132 56.0091 17.9344 51.0709 17.9344C46.2655 17.9344 42.5468 20.7959 42.4502 24.9373H46.7606C46.833 22.8606 48.7648 21.5686 51.0468 21.5686C53.3529 21.5686 54.8863 22.9692 54.8742 25.0459C54.8863 27.2071 53.0993 28.6439 50.5397 28.6439H48.3543V32.0971H50.5397C53.6668 32.0971 55.5262 33.6667 55.5141 35.9003C55.5262 38.0857 53.6306 39.5829 50.9864 39.5829C48.4992 39.5829 46.5795 38.2909 46.4708 36.2746H41.931C42.0518 40.4522 45.7826 43.3378 50.9985 43.3378Z" fill="white"/>
</svg>
