<svg width="22" height="15" viewBox="0 0 22 15" fill="none" xmlns="http://www.w3.org/2000/svg">
<path fill-rule="evenodd" clip-rule="evenodd" d="M19.0941 0.458312C20.0117 0.705446 20.7352 1.42887 20.9822 2.34663C21.4412 4.02296 21.4235 7.51716 21.4235 7.51716C21.4235 7.51716 21.4235 10.9936 20.9824 12.67C20.7352 13.5876 20.0118 14.3112 19.0941 14.5582C17.4176 14.9995 10.7118 14.9995 10.7118 14.9995C10.7118 14.9995 4.02345 14.9995 2.32947 14.5407C1.41171 14.2936 0.688282 13.57 0.441148 12.6524C0 10.9936 0 7.49951 0 7.49951C0 7.49951 0 4.02296 0.441148 2.34663C0.688118 1.42903 1.42936 0.687794 2.32931 0.440823C4.0058 -0.000488281 10.7116 -0.000488281 10.7116 -0.000488281C10.7116 -0.000488281 17.4176 -0.000488281 19.0941 0.458312ZM14.1528 7.49962L8.57642 10.7114V4.28784L14.1528 7.49962Z" fill="#CCD2D7"/>
</svg>
