<svg width="134" height="13" viewBox="0 0 134 13" fill="none" xmlns="http://www.w3.org/2000/svg">
<path d="M7.7832 9.03125H3.01758L1.94727 12H0.400391L4.74414 0.625H6.05664L10.4082 12H8.86914L7.7832 9.03125ZM3.4707 7.79688H7.33789L5.40039 2.47656L3.4707 7.79688ZM11.3613 7.70312C11.3613 6.40625 11.6686 5.36458 12.2832 4.57812C12.8978 3.78646 13.7025 3.39062 14.6973 3.39062C15.6868 3.39062 16.4707 3.72917 17.0488 4.40625V0H18.4941V12H17.166L17.0957 11.0938C16.5176 11.8021 15.7129 12.1562 14.6816 12.1562C13.7025 12.1562 12.903 11.7552 12.2832 10.9531C11.6686 10.151 11.3613 9.10417 11.3613 7.8125V7.70312ZM12.8066 7.86719C12.8066 8.82552 13.0046 9.57552 13.4004 10.1172C13.7962 10.6589 14.3431 10.9297 15.041 10.9297C15.9577 10.9297 16.627 10.5182 17.0488 9.69531V5.8125C16.6165 5.01562 15.9525 4.61719 15.0566 4.61719C14.3483 4.61719 13.7962 4.89062 13.4004 5.4375C13.0046 5.98438 12.8066 6.79427 12.8066 7.86719ZM20.3613 7.69531C20.3613 6.86719 20.5228 6.1224 20.8457 5.46094C21.1738 4.79948 21.627 4.28906 22.2051 3.92969C22.7884 3.57031 23.4525 3.39062 24.1973 3.39062C25.3483 3.39062 26.278 3.78906 26.9863 4.58594C27.6999 5.38281 28.0566 6.44271 28.0566 7.76562V7.86719C28.0566 8.6901 27.8978 9.42969 27.5801 10.0859C27.2676 10.737 26.8171 11.2448 26.2285 11.6094C25.6452 11.974 24.9733 12.1562 24.2129 12.1562C23.0671 12.1562 22.1374 11.7578 21.4238 10.9609C20.7155 10.1641 20.3613 9.10938 20.3613 7.79688V7.69531ZM21.8145 7.86719C21.8145 8.80469 22.0306 9.55729 22.4629 10.125C22.9004 10.6927 23.4837 10.9766 24.2129 10.9766C24.9473 10.9766 25.5306 10.6901 25.9629 10.1172C26.3952 9.53906 26.6113 8.73177 26.6113 7.69531C26.6113 6.76823 26.39 6.01823 25.9473 5.44531C25.5098 4.86719 24.9264 4.57812 24.1973 4.57812C23.4837 4.57812 22.9082 4.86198 22.4707 5.42969C22.0332 5.9974 21.8145 6.8099 21.8145 7.86719ZM37.0254 7.86719C37.0254 9.15885 36.7285 10.1979 36.1348 10.9844C35.541 11.7656 34.7441 12.1562 33.7441 12.1562C32.6764 12.1562 31.8509 11.7786 31.2676 11.0234L31.1973 12H29.8691V0H31.3145V4.47656C31.8978 3.7526 32.7025 3.39062 33.7285 3.39062C34.7546 3.39062 35.5592 3.77865 36.1426 4.55469C36.7311 5.33073 37.0254 6.39323 37.0254 7.74219V7.86719ZM35.5801 7.70312C35.5801 6.71875 35.39 5.95833 35.0098 5.42188C34.6296 4.88542 34.0827 4.61719 33.3691 4.61719C32.416 4.61719 31.7311 5.0599 31.3145 5.94531V9.60156C31.7572 10.487 32.4473 10.9297 33.3848 10.9297C34.0775 10.9297 34.6165 10.6615 35.002 10.125C35.3874 9.58854 35.5801 8.78125 35.5801 7.70312ZM42.3613 12.1562C41.2155 12.1562 40.2832 11.7812 39.5645 11.0312C38.8457 10.276 38.4863 9.26823 38.4863 8.00781V7.74219C38.4863 6.90365 38.6452 6.15625 38.9629 5.5C39.2858 4.83854 39.7337 4.32292 40.3066 3.95312C40.8848 3.57812 41.5098 3.39062 42.1816 3.39062C43.2806 3.39062 44.1348 3.7526 44.7441 4.47656C45.3535 5.20052 45.6582 6.23698 45.6582 7.58594V8.1875H39.9316C39.9525 9.02083 40.1947 9.69531 40.6582 10.2109C41.127 10.7214 41.7207 10.9766 42.4395 10.9766C42.9499 10.9766 43.3822 10.8724 43.7363 10.6641C44.0905 10.4557 44.4004 10.1797 44.666 9.83594L45.5488 10.5234C44.8405 11.612 43.778 12.1562 42.3613 12.1562ZM42.1816 4.57812C41.5983 4.57812 41.1087 4.79167 40.7129 5.21875C40.3171 5.64062 40.0723 6.23438 39.9785 7H44.2129V6.89062C44.1712 6.15625 43.9733 5.58854 43.6191 5.1875C43.265 4.78125 42.7858 4.57812 42.1816 4.57812ZM53.0332 7.54688V12H51.5332V0.625H55.7285C56.9733 0.625 57.9473 0.942708 58.6504 1.57812C59.3587 2.21354 59.7129 3.05469 59.7129 4.10156C59.7129 5.20573 59.3665 6.05729 58.6738 6.65625C57.9863 7.25 56.9993 7.54688 55.7129 7.54688H53.0332ZM53.0332 6.32031H55.7285C56.5306 6.32031 57.1452 6.13281 57.5723 5.75781C57.9993 5.3776 58.2129 4.83073 58.2129 4.11719C58.2129 3.4401 57.9993 2.89844 57.5723 2.49219C57.1452 2.08594 56.5592 1.875 55.8145 1.85938H53.0332V6.32031ZM65.4863 4.84375C65.2676 4.80729 65.0306 4.78906 64.7754 4.78906C63.8275 4.78906 63.1842 5.19271 62.8457 6V12H61.4004V3.54688H62.8066L62.8301 4.52344C63.304 3.76823 63.9759 3.39062 64.8457 3.39062C65.127 3.39062 65.3405 3.42708 65.4863 3.5V4.84375ZM70.1738 12.1562C69.028 12.1562 68.0957 11.7812 67.377 11.0312C66.6582 10.276 66.2988 9.26823 66.2988 8.00781V7.74219C66.2988 6.90365 66.4577 6.15625 66.7754 5.5C67.0983 4.83854 67.5462 4.32292 68.1191 3.95312C68.6973 3.57812 69.3223 3.39062 69.9941 3.39062C71.0931 3.39062 71.9473 3.7526 72.5566 4.47656C73.166 5.20052 73.4707 6.23698 73.4707 7.58594V8.1875H67.7441C67.765 9.02083 68.0072 9.69531 68.4707 10.2109C68.9395 10.7214 69.5332 10.9766 70.252 10.9766C70.7624 10.9766 71.1947 10.8724 71.5488 10.6641C71.903 10.4557 72.2129 10.1797 72.4785 9.83594L73.3613 10.5234C72.653 11.612 71.5905 12.1562 70.1738 12.1562ZM69.9941 4.57812C69.4108 4.57812 68.9212 4.79167 68.5254 5.21875C68.1296 5.64062 67.8848 6.23438 67.791 7H72.0254V6.89062C71.9837 6.15625 71.7858 5.58854 71.4316 5.1875C71.0775 4.78125 70.5983 4.57812 69.9941 4.57812ZM76.5098 3.54688L76.5488 4.48438C77.1686 3.75521 78.0046 3.39062 79.0566 3.39062C80.2389 3.39062 81.0436 3.84375 81.4707 4.75C81.752 4.34375 82.1165 4.01562 82.5645 3.76562C83.0176 3.51562 83.5514 3.39062 84.166 3.39062C86.0202 3.39062 86.9629 4.3724 86.9941 6.33594V12H85.5488V6.42188C85.5488 5.81771 85.4108 5.36719 85.1348 5.07031C84.8587 4.76823 84.3952 4.61719 83.7441 4.61719C83.2077 4.61719 82.7624 4.77865 82.4082 5.10156C82.054 5.41927 81.8483 5.84896 81.791 6.39062V12H80.3379V6.46094C80.3379 5.23177 79.7363 4.61719 78.5332 4.61719C77.5853 4.61719 76.9368 5.02083 76.5879 5.82812V12H75.1426V3.54688H76.5098ZM90.752 12H89.3066V3.54688H90.752V12ZM89.1895 1.30469C89.1895 1.07031 89.2598 0.872396 89.4004 0.710938C89.5462 0.549479 89.7598 0.46875 90.041 0.46875C90.3223 0.46875 90.5358 0.549479 90.6816 0.710938C90.8275 0.872396 90.9004 1.07031 90.9004 1.30469C90.9004 1.53906 90.8275 1.73438 90.6816 1.89062C90.5358 2.04688 90.3223 2.125 90.041 2.125C89.7598 2.125 89.5462 2.04688 89.4004 1.89062C89.2598 1.73438 89.1895 1.53906 89.1895 1.30469ZM96.5801 12.1562C95.4342 12.1562 94.502 11.7812 93.7832 11.0312C93.0645 10.276 92.7051 9.26823 92.7051 8.00781V7.74219C92.7051 6.90365 92.8639 6.15625 93.1816 5.5C93.5046 4.83854 93.9525 4.32292 94.5254 3.95312C95.1035 3.57812 95.7285 3.39062 96.4004 3.39062C97.4993 3.39062 98.3535 3.7526 98.9629 4.47656C99.5723 5.20052 99.877 6.23698 99.877 7.58594V8.1875H94.1504C94.1712 9.02083 94.4134 9.69531 94.877 10.2109C95.3457 10.7214 95.9395 10.9766 96.6582 10.9766C97.1686 10.9766 97.6009 10.8724 97.9551 10.6641C98.3092 10.4557 98.6191 10.1797 98.8848 9.83594L99.7676 10.5234C99.0592 11.612 97.9967 12.1562 96.5801 12.1562ZM96.4004 4.57812C95.8171 4.57812 95.3275 4.79167 94.9316 5.21875C94.5358 5.64062 94.291 6.23438 94.1973 7H98.4316V6.89062C98.39 6.15625 98.1921 5.58854 97.8379 5.1875C97.4837 4.78125 97.0046 4.57812 96.4004 4.57812ZM105.643 4.84375C105.424 4.80729 105.187 4.78906 104.932 4.78906C103.984 4.78906 103.34 5.19271 103.002 6V12H101.557V3.54688H102.963L102.986 4.52344C103.46 3.76823 104.132 3.39062 105.002 3.39062C105.283 3.39062 105.497 3.42708 105.643 3.5V4.84375ZM112.674 7.54688V12H111.174V0.625H115.369C116.614 0.625 117.588 0.942708 118.291 1.57812C118.999 2.21354 119.354 3.05469 119.354 4.10156C119.354 5.20573 119.007 6.05729 118.314 6.65625C117.627 7.25 116.64 7.54688 115.354 7.54688H112.674ZM112.674 6.32031H115.369C116.171 6.32031 116.786 6.13281 117.213 5.75781C117.64 5.3776 117.854 4.83073 117.854 4.11719C117.854 3.4401 117.64 2.89844 117.213 2.49219C116.786 2.08594 116.2 1.875 115.455 1.85938H112.674V6.32031ZM125.127 4.84375C124.908 4.80729 124.671 4.78906 124.416 4.78906C123.468 4.78906 122.825 5.19271 122.486 6V12H121.041V3.54688H122.447L122.471 4.52344C122.945 3.76823 123.617 3.39062 124.486 3.39062C124.768 3.39062 124.981 3.42708 125.127 3.5V4.84375ZM125.924 7.69531C125.924 6.86719 126.085 6.1224 126.408 5.46094C126.736 4.79948 127.189 4.28906 127.768 3.92969C128.351 3.57031 129.015 3.39062 129.76 3.39062C130.911 3.39062 131.84 3.78906 132.549 4.58594C133.262 5.38281 133.619 6.44271 133.619 7.76562V7.86719C133.619 8.6901 133.46 9.42969 133.143 10.0859C132.83 10.737 132.38 11.2448 131.791 11.6094C131.208 11.974 130.536 12.1562 129.775 12.1562C128.63 12.1562 127.7 11.7578 126.986 10.9609C126.278 10.1641 125.924 9.10938 125.924 7.79688V7.69531ZM127.377 7.86719C127.377 8.80469 127.593 9.55729 128.025 10.125C128.463 10.6927 129.046 10.9766 129.775 10.9766C130.51 10.9766 131.093 10.6901 131.525 10.1172C131.958 9.53906 132.174 8.73177 132.174 7.69531C132.174 6.76823 131.952 6.01823 131.51 5.44531C131.072 4.86719 130.489 4.57812 129.76 4.57812C129.046 4.57812 128.471 4.86198 128.033 5.42969C127.596 5.9974 127.377 6.8099 127.377 7.86719Z" fill="#CCD2D7"/>
</svg>
