<svg width="22" height="21" viewBox="0 0 22 21" fill="none" xmlns="http://www.w3.org/2000/svg">
<path d="M2.55 17.09L3.96 18.5L5.75 16.7L4.34 15.29L2.55 17.09ZM10 18H12V21H10V18ZM0 8.99999H3V11H0V8.99999ZM12 2.04999V6.00999L13 6.58999C14.24 7.30999 15 8.62999 15 10.05C15 12.26 13.21 14.05 11 14.05C8.79 14.05 7 12.26 7 10.05C7 8.62999 7.77 7.30999 9 6.58999L10 6.00999V2.04999H12ZM14 0.0499878H8V4.85999C6.21 5.89999 5 7.82999 5 10.05C5 13.36 7.69 16.05 11 16.05C14.31 16.05 17 13.36 17 10.05C17 7.82999 15.79 5.89999 14 4.85999V0.0499878ZM19 8.99999H22V11H19V8.99999ZM16.24 16.71L18.03 18.51L19.44 17.1L17.64 15.31L16.24 16.71Z" fill="#CCD2D7"/>
</svg>
