<svg width="24" height="24" viewBox="0 0 24 24" fill="none" xmlns="http://www.w3.org/2000/svg">
<path d="M20 14C21.1046 14 22 13.1046 22 12C22 10.8954 21.1046 10 20 10C18.8954 10 18 10.8954 18 12C18 13.1046 18.8954 14 20 14Z" fill="#CCD2D7"/>
<path d="M4 14C5.10457 14 6 13.1046 6 12C6 10.8954 5.10457 10 4 10C2.89543 10 2 10.8954 2 12C2 13.1046 2.89543 14 4 14Z" fill="#CCD2D7"/>
<path d="M12 22C13.1046 22 14 21.1046 14 20C14 18.8954 13.1046 18 12 18C10.8954 18 10 18.8954 10 20C10 21.1046 10.8954 22 12 22Z" fill="#CCD2D7"/>
<path d="M18.3477 4.2272L13.9434 8.61914L15.3556 10.0353L19.7599 5.6434L18.3477 4.2272Z" fill="#CCD2D7"/>
<path d="M8.32004 9.67998L8.63004 9.99998L10.05 8.58998L6.03004 4.54998H6.02004L5.71004 4.22998L4.29004 5.63998L8.31004 9.68998L8.32004 9.67998Z" fill="#CCD2D7"/>
<path d="M15.41 13.9399L14 15.3499L17.99 19.3599L18.34 19.7099L19.76 18.2999L15.77 14.2899L15.41 13.9399Z" fill="#CCD2D7"/>
<path d="M8.59023 13.95L4.56023 17.96L4.24023 18.29L5.65023 19.7L9.68023 15.68L10.0102 15.36L8.59023 13.95Z" fill="#CCD2D7"/>
<path d="M12 6C13.1046 6 14 5.10457 14 4C14 2.89543 13.1046 2 12 2C10.8954 2 10 2.89543 10 4C10 5.10457 10.8954 6 12 6Z" fill="#CCD2D7"/>
</svg>
