<svg width="250" height="150" viewBox="0 0 250 150" fill="none" xmlns="http://www.w3.org/2000/svg">
<path d="M133.017 36H117.381C116.085 36 115.035 37.0501 115.035 38.3454V43.0363C115.035 44.3317 116.085 45.3818 117.381 45.3818H133.017C134.312 45.3818 135.362 44.3317 135.362 43.0363V38.3454C135.362 37.0501 134.312 36 133.017 36Z" fill="white"/>
<path d="M87.6731 70.3989H72.0368C71.4148 70.3989 70.8182 70.646 70.3784 71.0859C69.9385 71.5257 69.6914 72.1223 69.6914 72.7444C69.6914 73.3664 69.9385 73.963 70.3784 74.4028C70.8182 74.8427 71.4148 75.0898 72.0368 75.0898H87.6731C88.2952 75.0898 88.8917 74.8427 89.3316 74.4028C89.7714 73.963 90.0186 73.3664 90.0186 72.7444C90.0186 72.1223 89.7714 71.5257 89.3316 71.0859C88.8917 70.646 88.2952 70.3989 87.6731 70.3989V70.3989Z" fill="white"/>
<path d="M86.8916 91.5085C86.8916 90.8865 86.6445 90.2899 86.2046 89.85C85.7648 89.4102 85.1682 89.1631 84.5462 89.1631H68.9099C68.2878 89.1631 67.6913 89.4102 67.2514 89.85C66.8116 90.2899 66.5645 90.8865 66.5645 91.5085C66.5645 92.1306 66.8116 92.7271 67.2514 93.167C67.6913 93.6069 68.2878 93.854 68.9099 93.854H84.5462C85.1682 93.854 85.7648 93.6069 86.2046 93.167C86.6445 92.7271 86.8916 92.1306 86.8916 91.5085Z" fill="white"/>
<path d="M86.1102 98.5442H75.1648C74.5427 98.5442 73.9462 98.7913 73.5063 99.2312C73.0664 99.671 72.8193 100.268 72.8193 100.89C72.8193 101.512 73.0664 102.108 73.5063 102.548C73.9462 102.988 74.5427 103.235 75.1648 103.235H86.1102C86.7322 103.235 87.3288 102.988 87.7686 102.548C88.2085 102.108 88.4556 101.512 88.4556 100.89C88.4556 100.268 88.2085 99.671 87.7686 99.2312C87.3288 98.7913 86.7322 98.5442 86.1102 98.5442Z" fill="white"/>
<path d="M86.8911 82.1264C86.8911 81.5044 86.644 80.9078 86.2041 80.468C85.7643 80.0281 85.1677 79.781 84.5456 79.781H64.2185C63.5964 79.781 62.9999 80.0281 62.56 80.468C62.1202 80.9078 61.873 81.5044 61.873 82.1264C61.873 82.7485 62.1202 83.3451 62.56 83.7849C62.9999 84.2248 63.5964 84.4719 64.2185 84.4719H84.5456C85.1677 84.4719 85.7643 84.2248 86.2041 83.7849C86.644 83.3451 86.8911 82.7485 86.8911 82.1264V82.1264Z" fill="white"/>
<path d="M125.2 86.8185V60.2368C110.543 60.2368 98.6182 72.1612 98.6182 86.8185C98.6182 101.476 110.543 113.4 125.2 113.4C139.857 113.4 151.781 101.476 151.781 86.8185H125.2Z" fill="white"/>
<path d="M150.925 62.8467L153.44 60.3316C153.661 60.1145 153.836 59.8558 153.957 59.5704C154.077 59.2851 154.139 58.9788 154.141 58.6692C154.142 58.3596 154.082 58.0528 153.964 57.7665C153.846 57.4802 153.673 57.2201 153.454 57.0012C153.235 56.7823 152.975 56.6088 152.688 56.4909C152.402 56.373 152.095 56.313 151.786 56.3142C151.476 56.3155 151.17 56.3781 150.885 56.4983C150.599 56.6185 150.341 56.794 150.123 57.0147L147.506 59.6321C142.465 55.4795 136.364 52.8186 129.891 51.9496V47.7278H120.509V51.9496C114.037 52.8182 107.935 55.4788 102.894 59.6309L100.277 57.0136C100.06 56.7929 99.8011 56.6173 99.5158 56.4971C99.2305 56.3769 98.9242 56.3143 98.6146 56.3131C98.3049 56.3118 97.9981 56.3719 97.7119 56.4898C97.4256 56.6077 97.1655 56.7811 96.9465 57C96.7276 57.2189 96.5542 57.4791 96.4363 57.7653C96.3184 58.0516 96.2583 58.3584 96.2596 58.668C96.2608 58.9777 96.3234 59.284 96.4436 59.5693C96.5639 59.8546 96.7394 60.1133 96.9601 60.3304L99.475 62.8455C93.3929 69.3457 90.0121 77.9166 90.0186 86.8185C90.0186 106.218 105.801 122 125.2 122C144.599 122 160.382 106.218 160.382 86.8185C160.388 77.917 157.007 69.3466 150.925 62.8467V62.8467ZM125.2 115.746C119.479 115.746 113.886 114.049 109.129 110.87C104.372 107.692 100.664 103.174 98.475 97.8884C96.2856 92.6026 95.7127 86.7864 96.8289 81.1751C97.9451 75.5638 100.7 70.4094 104.746 66.3639C108.791 62.3184 113.945 59.5633 119.557 58.4472C125.168 57.331 130.984 57.9039 136.27 60.0933C141.556 62.2827 146.074 65.9904 149.252 70.7474C152.431 75.5045 154.127 81.0972 154.127 86.8185C154.127 90.6172 153.379 94.3788 151.925 97.8884C150.472 101.398 148.341 104.587 145.655 107.273C142.969 109.959 139.78 112.09 136.27 113.544C132.76 114.997 128.999 115.746 125.2 115.746V115.746Z" fill="white"/>
<path d="M149.138 33.5856L144.189 36.01C144.159 36.0249 144.134 36.047 144.115 36.0744C144.095 36.1018 144.084 36.1334 144.08 36.1664C144.076 36.1994 144.081 36.2326 144.094 36.263C144.106 36.2933 144.127 36.3198 144.152 36.34L147.996 39.3147C148.022 39.3346 148.052 39.3474 148.085 39.352C148.117 39.3565 148.151 39.3527 148.182 39.3409C148.212 39.3291 148.24 39.3096 148.262 39.2843C148.283 39.2591 148.298 39.2288 148.305 39.1963L149.412 33.7973C149.419 33.7616 149.416 33.7248 149.404 33.6909C149.391 33.6571 149.37 33.6275 149.341 33.6056C149.313 33.5836 149.279 33.5701 149.243 33.5666C149.207 33.5631 149.171 33.5697 149.138 33.5856V33.5856Z" fill="#4794C5"/>
<path d="M177.49 117.069L168.473 114.864C168.418 114.851 168.361 114.852 168.307 114.867C168.253 114.882 168.204 114.91 168.163 114.949C168.123 114.988 168.093 115.036 168.077 115.089C168.061 115.142 168.058 115.198 168.07 115.252L169.831 123.245C169.843 123.299 169.869 123.349 169.906 123.39C169.943 123.431 169.99 123.462 170.043 123.48C170.096 123.498 170.152 123.502 170.208 123.493C170.263 123.484 170.315 123.461 170.359 123.426L177.615 117.637C177.663 117.599 177.699 117.549 177.719 117.491C177.74 117.434 177.744 117.373 177.731 117.314C177.718 117.255 177.688 117.201 177.646 117.157C177.603 117.114 177.549 117.083 177.49 117.069V117.069Z" fill="#4794C5"/>
<path d="M188.321 68.4962L177.525 67.9618C177.46 67.9592 177.395 67.973 177.337 68.0019C177.278 68.0308 177.227 68.0738 177.19 68.127C177.152 68.1802 177.129 68.2417 177.122 68.3059C177.115 68.37 177.124 68.4347 177.15 68.4938L180.924 77.2463C180.95 77.305 180.991 77.3561 181.042 77.3949C181.094 77.4336 181.154 77.4587 181.219 77.4677C181.283 77.4768 181.349 77.4696 181.41 77.4467C181.471 77.4238 181.526 77.3861 181.568 77.337L188.59 69.1189C188.636 69.0646 188.666 68.9988 188.677 68.9289C188.688 68.859 188.679 68.7878 188.651 68.7232C188.623 68.6586 188.578 68.6031 188.52 68.5631C188.461 68.523 188.393 68.4998 188.321 68.4962V68.4962Z" fill="#095382"/>
<path d="M80.6507 37.3401L74.2758 38.7906C74.2375 38.7997 74.2019 38.8184 74.1724 38.8448C74.143 38.8712 74.1206 38.9045 74.1074 38.9416C74.0942 38.9787 74.0906 39.0183 74.097 39.0568C74.1034 39.0953 74.1195 39.1314 74.1439 39.1617L77.7704 43.6432C77.795 43.6732 77.827 43.6964 77.8633 43.7106C77.8996 43.7247 77.9391 43.7294 77.978 43.7242C78.017 43.719 78.0541 43.704 78.086 43.6807C78.1179 43.6574 78.1435 43.6265 78.1604 43.591L80.9087 37.6589C80.9268 37.6197 80.9337 37.5765 80.9286 37.534C80.9235 37.4916 80.9066 37.4515 80.8798 37.4185C80.853 37.3854 80.8174 37.3605 80.777 37.3467C80.7365 37.3328 80.6928 37.3306 80.6507 37.3401V37.3401Z" fill="#095382"/>
<path d="M71.8803 135.569L65.1788 131.367C65.1381 131.342 65.0917 131.327 65.0439 131.325C64.9961 131.322 64.9485 131.332 64.9055 131.352C64.8625 131.373 64.8256 131.404 64.7982 131.442C64.7708 131.48 64.7538 131.525 64.7488 131.572L64.0284 138.51C64.0239 138.556 64.0315 138.604 64.0505 138.647C64.0695 138.69 64.0993 138.728 64.1372 138.756C64.175 138.785 64.2196 138.804 64.2669 138.811C64.3141 138.819 64.3624 138.814 64.4072 138.798L71.8291 136.062C71.878 136.044 71.9209 136.013 71.9528 135.972C71.9847 135.932 72.0044 135.883 72.0097 135.832C72.015 135.78 72.0057 135.729 71.9829 135.682C71.96 135.636 71.9245 135.597 71.8803 135.569V135.569Z" fill="#4794C5"/>
<path d="M44.9267 57.3655L39.0487 57.8611C38.9901 57.865 38.9337 57.8855 38.8859 57.9202C38.8382 57.955 38.801 58.0026 38.7788 58.0576C38.7566 58.1125 38.7502 58.1726 38.7604 58.2308C38.7706 58.289 38.797 58.3429 38.8365 58.3864L45.3069 65.7792C45.3498 65.8286 45.4072 65.8629 45.4709 65.8774C45.5346 65.8918 45.6013 65.8856 45.6616 65.8596C45.7219 65.8336 45.7727 65.7891 45.8067 65.7325C45.8407 65.676 45.8563 65.6102 45.8512 65.5445L45.2614 57.6523C45.2548 57.5693 45.2159 57.4926 45.1532 57.4389C45.0905 57.3852 45.0091 57.3588 44.9267 57.3655Z" fill="#4794C5"/>
</svg>
