<svg width="20" height="20" viewBox="0 0 20 20" fill="none" xmlns="http://www.w3.org/2000/svg">
<path d="M0.891609 0H0.89975C1.21995 0.00200247 1.52861 0.170877 1.68871 0.467243C3.27745 3.3984 4.10916 6.66904 4.11055 9.99099H4.11123V10.0097C4.10987 13.2804 3.30259 16.5511 1.68871 19.5334C1.61222 19.6743 1.49831 19.7921 1.35913 19.8742C1.21994 19.9564 1.06071 19.9999 0.898393 20H0.892288C0.751862 20 0.609401 19.9666 0.477116 19.8979C0.373209 19.8445 0.281072 19.7713 0.206013 19.6827C0.130955 19.5941 0.0744569 19.4918 0.0397754 19.3816C0.00509387 19.2714 -0.00708613 19.1555 0.00393707 19.0407C0.0149603 18.9258 0.0489688 18.8143 0.104003 18.7124C1.5575 16.0311 2.3178 13.0389 2.3178 10C2.3178 6.9611 1.5575 3.96893 0.104003 1.28759C0.0489688 1.18573 0.0149603 1.07417 0.00393707 0.959329C-0.00708613 0.844486 0.00509387 0.728632 0.0397754 0.61844C0.0744569 0.508249 0.130955 0.405899 0.206013 0.317286C0.281072 0.228673 0.373209 0.155549 0.477116 0.102126C0.604677 0.0357773 0.746645 0.000741017 0.890931 0H0.891609ZM5.60978 2.17201C5.82901 2.08281 6.0752 2.08249 6.29466 2.17115C6.51412 2.2598 6.68907 2.43022 6.78135 2.64526C7.77054 4.97417 8.27857 7.47356 8.27584 9.99766V10.003C8.27584 12.5381 7.77315 15.0112 6.78135 17.3541C6.5914 17.8013 6.06701 18.0136 5.60978 17.828C5.5013 17.7844 5.40264 17.7201 5.31949 17.6388C5.23633 17.5576 5.17032 17.4609 5.12525 17.3545C5.08017 17.2481 5.05692 17.1339 5.05684 17.0186C5.05675 16.9033 5.07982 16.7891 5.12474 16.6826C6.02257 14.5689 6.48423 12.3006 6.48286 10.0097V10.0003V9.99099C6.48431 7.69987 6.02264 5.43135 5.12474 3.31742C4.93479 2.87021 5.15187 2.35691 5.60978 2.17201ZM10.657 4.58432C10.8876 4.52919 11.1311 4.56643 11.3338 4.68783C11.5366 4.80924 11.6821 5.00489 11.7383 5.23179C12.1202 6.78904 12.3109 8.38968 12.3116 9.99099V10.0097C12.3116 11.6103 12.1202 13.211 11.7376 14.7675C11.6811 14.9941 11.5356 15.1894 11.3331 15.3107C11.1306 15.4321 10.8875 15.4696 10.657 15.415C10.5428 15.3886 10.4351 15.3404 10.34 15.2729C10.2448 15.2055 10.1642 15.1203 10.1026 15.0221C10.041 14.9239 9.99975 14.8148 9.98115 14.7009C9.96254 14.587 9.96697 14.4706 9.99419 14.3584C10.3435 12.931 10.5195 11.4679 10.5186 9.99967C10.5186 8.53386 10.3442 7.06738 9.99419 5.64229C9.96677 5.52999 9.96219 5.41347 9.98069 5.29942C9.9992 5.18537 10.0404 5.07604 10.102 4.97772C10.1636 4.87941 10.2444 4.79404 10.3396 4.72652C10.4348 4.65901 10.5427 4.61068 10.657 4.58432ZM14.9301 7.14415C15.0484 7.12177 15.17 7.12309 15.2878 7.14804C15.4055 7.17299 15.5169 7.22105 15.6153 7.28935C15.7138 7.35765 15.7972 7.44478 15.8606 7.54553C15.924 7.64628 15.9661 7.75858 15.9843 7.87571C16.0915 8.57791 16.1424 9.28412 16.137 9.99099V10.0097C16.1423 10.7174 16.0913 11.4244 15.9843 12.1243C15.966 12.2414 15.9238 12.3536 15.8604 12.4543C15.797 12.555 15.7136 12.6421 15.6152 12.7104C15.5168 12.7787 15.4054 12.8268 15.2877 12.8518C15.17 12.8767 15.0484 12.8781 14.9301 12.8559C14.4553 12.7684 14.1432 12.3152 14.2137 11.8466C14.306 11.2365 14.3494 10.6231 14.3433 10.0097V10.0003V9.99099C14.3489 9.37607 14.3056 8.76166 14.2137 8.15339C14.1445 7.69616 14.4661 7.22958 14.9301 7.14415ZM17.8967 10.0097C17.8967 9.45767 18.3539 9.01045 18.9184 9.01045C19.4821 9.01045 19.9393 9.45767 19.9393 10.0097C19.9393 10.561 19.4821 11.0082 18.9184 11.0082C18.3539 11.0082 17.8967 10.561 17.8967 10.0097Z" fill="#CCD2D7"/>
</svg>
