<svg width="62" height="12" viewBox="0 0 62 12" fill="none" xmlns="http://www.w3.org/2000/svg">
<path fill-rule="evenodd" clip-rule="evenodd" d="M1.29041 1.2567V5.72688H6.47328C6.52755 5.88641 6.54519 6.02725 6.54519 6.18678C6.54519 6.32762 6.52687 6.46913 6.47396 6.62799H1.29041V11.6816C1.11267 11.7169 0.953253 11.7523 0.793154 11.7523C0.633733 11.7523 0.474314 11.7169 0.295898 11.6816V0.338238H7.13063C7.16591 0.497101 7.18423 0.655963 7.18423 0.814826C7.18423 0.956334 7.16591 1.1152 7.13063 1.2567H1.28973H1.29041ZM13.6099 4.27843C13.1662 4.15428 12.6873 4.08419 12.0476 4.08419C11.1602 4.08419 10.3611 4.33116 9.86453 4.64955V11.6816C9.53706 11.7515 9.19816 11.7515 8.87069 11.6816V4.20768C9.54501 3.66034 10.7342 3.1477 12.1364 3.1477C12.8643 3.1477 13.3792 3.23581 13.8589 3.4127C13.8765 3.71307 13.7876 4.04881 13.6099 4.27843ZM18.1191 11.0101C19.1489 11.0101 19.9833 10.8158 20.5511 10.5862V8.11249C19.9121 7.77674 19.0065 7.51175 18.0126 7.51175C16.5392 7.51175 15.6695 8.11249 15.6695 9.15511C15.6695 10.2498 16.4862 11.0107 18.1184 11.0107L18.1191 11.0101ZM21.5097 6.27489V11.1342C20.64 11.6108 19.2371 11.8938 18.1015 11.8938C15.7583 11.8938 14.6573 10.7631 14.6573 9.22586C14.6573 7.52911 16.1131 6.62799 18.0126 6.62799C19.0777 6.62799 19.9297 6.87496 20.5511 7.17534V6.31027C20.5511 4.77304 19.5566 4.06617 18.0479 4.06617C16.9476 4.06617 16.1484 4.43729 15.5446 4.87917C15.4161 4.81536 15.3043 4.72307 15.2182 4.60957C15.132 4.49606 15.0738 4.36443 15.0481 4.22503C15.4565 3.83655 16.5392 3.1477 18.0838 3.1477C19.9833 3.1477 21.5097 4.03079 21.5097 6.27489ZM36.2035 6.39838V11.6816C36.0434 11.7169 35.884 11.735 35.7063 11.735C35.539 11.7356 35.3722 11.7177 35.209 11.6816V6.75215C35.245 5.30303 34.6053 4.06617 32.7241 4.06617C31.659 4.06617 30.807 4.5788 30.2385 5.10879C30.3809 5.51529 30.4515 5.93914 30.4515 6.39838V11.6816C30.3097 11.7169 30.1327 11.735 29.9726 11.735C29.7948 11.735 29.6171 11.7169 29.4753 11.6816V6.75215C29.4753 5.30303 28.8715 4.06617 27.008 4.06617C26.0671 4.06617 25.1967 4.43729 24.6649 4.77304V11.6816C24.3372 11.7516 23.998 11.7516 23.6704 11.6816V4.34918C24.3983 3.74844 25.6763 3.1477 27.1674 3.1477C28.4102 3.1477 29.2976 3.62429 29.8484 4.36654C30.5763 3.69504 31.6767 3.1477 32.9011 3.1477C35.0855 3.1477 36.2388 4.61418 36.2035 6.39838ZM44.5239 6.87563C44.5239 5.12681 43.4765 4.03079 41.9325 4.03079C40.2813 4.03079 39.181 5.26765 39.0209 6.87563H44.5239ZM45.5184 7.70599H38.9856C39.0385 9.6851 40.2101 10.9927 42.0743 10.9927C43.4765 10.9927 44.2044 10.4627 44.7017 10.0736C44.95 10.1971 45.163 10.4801 45.2342 10.7451C44.5599 11.3104 43.5654 11.8932 42.0743 11.8932C39.6775 11.8932 37.9734 10.3032 37.9734 7.54713C37.9734 4.87917 39.7664 3.1477 41.9325 3.1477C43.9744 3.1477 45.5537 4.56078 45.5714 7.01714C45.5714 7.28213 45.5537 7.40562 45.5184 7.70599ZM50.8519 11.6816V3.37799C51.012 3.32459 51.1891 3.30723 51.3492 3.30723C51.5086 3.30723 51.6863 3.32459 51.8281 3.37799V11.6816C51.6863 11.7169 51.5093 11.735 51.3492 11.735C51.1819 11.7347 51.0152 11.7168 50.8519 11.6816ZM50.55 0.903602C50.55 0.479079 50.9055 0.125977 51.3492 0.125977C51.7752 0.125977 52.1123 0.479746 52.1123 0.903602C52.1123 1.34548 51.7752 1.68056 51.3492 1.68056C51.1386 1.68145 50.9362 1.60017 50.7864 1.45454C50.6367 1.30891 50.5516 1.11079 50.55 0.903602ZM47.4722 10.8185C47.4722 10.3946 47.827 10.0415 48.2707 10.0415C48.6967 10.0415 49.0345 10.3953 49.0345 10.8185C49.0345 11.2604 48.6967 11.5961 48.2707 11.5961C48.0601 11.5968 47.8578 11.5154 47.7081 11.3696C47.5585 11.2239 47.4736 11.0257 47.4722 10.8185ZM61.0053 7.51108C61.0053 5.56802 59.7632 4.06617 57.7925 4.06617C55.8218 4.06617 54.5796 5.56802 54.5796 7.51108C54.5796 9.49019 55.8218 10.9567 57.7925 10.9567C59.7632 10.9567 61.0053 9.49019 61.0053 7.51108ZM53.5675 7.51108C53.5675 5.02001 55.3957 3.14704 57.8101 3.14704C60.2598 3.14704 61.9998 5.02001 61.9998 7.51108C61.9998 10.0028 60.1709 11.8758 57.7572 11.8758C55.3069 11.8758 53.5675 10.0382 53.5675 7.51108Z" fill="#CCD2D7"/>
</svg>
