<svg width="250" height="150" viewBox="0 0 250 150" fill="none" xmlns="http://www.w3.org/2000/svg">
<path d="M93.1383 22.5854L88.1889 25.0097C88.1592 25.0246 88.1336 25.0468 88.1145 25.0741C88.0955 25.1015 88.0836 25.1332 88.0799 25.1662C88.0763 25.1992 88.081 25.2324 88.0937 25.2627C88.1064 25.2931 88.1266 25.3196 88.1525 25.3397L91.9956 28.3145C92.0216 28.3343 92.0522 28.3471 92.0848 28.3517C92.1173 28.3563 92.1506 28.3525 92.1815 28.3407C92.2125 28.3288 92.2401 28.3094 92.2617 28.2841C92.2834 28.2588 92.2984 28.2285 92.3054 28.1961L93.4117 22.797C93.419 22.7614 93.4162 22.7245 93.4038 22.6907C93.3914 22.6568 93.3698 22.6273 93.3415 22.6053C93.3131 22.5834 93.2791 22.5699 93.2432 22.5663C93.2073 22.5628 93.171 22.5694 93.1383 22.5854Z" fill="#4794C5"/>
<path d="M189.532 42.229L182.375 40.4793C182.332 40.4692 182.287 40.47 182.244 40.4818C182.201 40.4935 182.162 40.5159 182.13 40.5466C182.098 40.5773 182.074 40.6155 182.061 40.6576C182.048 40.6996 182.046 40.7441 182.055 40.7869L183.453 47.1312C183.463 47.1739 183.483 47.2133 183.513 47.2458C183.542 47.2784 183.58 47.303 183.621 47.3174C183.663 47.3317 183.708 47.3354 183.752 47.328C183.796 47.3206 183.837 47.3023 183.872 47.275L189.631 42.6803C189.669 42.65 189.698 42.6098 189.714 42.5645C189.73 42.5191 189.734 42.4703 189.723 42.4234C189.713 42.3766 189.69 42.3336 189.656 42.2993C189.622 42.2649 189.579 42.2406 189.532 42.229Z" fill="#4794C5"/>
<path d="M160.842 54.9279H154.863C155.652 53.6797 156.172 52.2786 156.32 50.7968C156.795 46.0612 154.301 41.816 150.055 39.9339C146.152 38.2039 141.766 38.9111 138.608 41.7756L131.058 48.6182C129.587 47.01 127.473 45.9992 125.128 45.9992C122.777 45.9992 120.66 47.0132 119.19 48.6264L111.63 41.7748C108.466 38.9103 104.082 38.2058 100.181 39.9349C95.9365 41.8171 93.442 46.0637 93.9176 50.7992C94.0663 52.2799 94.5864 53.6803 95.375 54.9279H89.4128C86.454 54.9279 84.0557 57.3264 84.0557 60.285V68.3208C84.0557 69.8001 85.2549 70.9995 86.7343 70.9995H163.521C165 70.9995 166.2 69.8002 166.2 68.3208V60.285C166.199 57.3264 163.801 54.9279 160.842 54.9279ZM117.092 54.035V54.9279H104.491C101.161 54.9279 98.5409 51.8241 99.3724 48.3577C99.7387 46.8311 100.841 45.5298 102.266 44.871C104.223 43.9665 106.391 44.2569 108.034 45.7446L117.094 53.9561C117.093 53.9826 117.092 54.0086 117.092 54.035ZM151.005 50.0856C150.805 52.8696 148.291 54.9282 145.499 54.9282H133.163V54.0354C133.163 54.0038 133.161 53.9725 133.161 53.9409C135.213 52.0804 139.666 48.0451 142.08 45.8563C143.453 44.6124 145.373 44.0318 147.148 44.5612C149.695 45.3211 151.191 47.4873 151.005 50.0856Z" fill="white"/>
<path d="M89.4131 76.3567V115.643C89.4131 118.602 91.8115 121 94.7702 121H119.77V76.3567H89.4131Z" fill="white"/>
<path d="M130.483 76.3567V121H155.484C158.442 121 160.841 118.602 160.841 115.643V76.3567H130.483Z" fill="white"/>
<path d="M61.3214 74.496L50.5253 73.9616C50.4602 73.959 50.3952 73.9728 50.3366 74.0016C50.2779 74.0305 50.2274 74.0736 50.1899 74.1268C50.1523 74.1799 50.1289 74.2415 50.1219 74.3056C50.1149 74.3698 50.1245 74.4345 50.1498 74.4935L53.9242 83.246C53.95 83.3048 53.9906 83.3559 54.042 83.3946C54.0935 83.4334 54.1543 83.4584 54.2186 83.4675C54.283 83.4766 54.3488 83.4693 54.4099 83.4465C54.4711 83.4236 54.5256 83.3859 54.5683 83.3368L61.5899 75.1186C61.6362 75.0643 61.6665 74.9986 61.6773 74.9287C61.6881 74.8588 61.6791 74.7876 61.6513 74.723C61.6234 74.6583 61.5778 74.6029 61.5195 74.5628C61.4613 74.5227 61.3927 74.4996 61.3214 74.496Z" fill="#095382"/>
<path d="M197.651 75.3398L191.276 76.7904C191.237 76.7995 191.202 76.8181 191.172 76.8445C191.143 76.8709 191.121 76.9042 191.107 76.9413C191.094 76.9784 191.091 77.0181 191.097 77.0566C191.103 77.0951 191.12 77.1312 191.144 77.1615L194.77 81.643C194.795 81.673 194.827 81.6962 194.863 81.7103C194.9 81.7245 194.939 81.7292 194.978 81.7239C195.017 81.7187 195.054 81.7038 195.086 81.6805C195.118 81.6572 195.143 81.6263 195.16 81.5907L197.909 75.6587C197.927 75.6195 197.934 75.5762 197.929 75.5338C197.923 75.4913 197.907 75.4513 197.88 75.4182C197.853 75.3851 197.817 75.3603 197.777 75.3464C197.737 75.3326 197.693 75.3303 197.651 75.3398Z" fill="#095382"/>
<path d="M82.8803 127.569L76.1788 123.367C76.1381 123.342 76.0917 123.327 76.0439 123.325C75.9961 123.322 75.9485 123.332 75.9055 123.352C75.8625 123.373 75.8256 123.404 75.7982 123.442C75.7708 123.48 75.7538 123.525 75.7488 123.572L75.0284 130.51C75.0239 130.556 75.0315 130.604 75.0505 130.647C75.0695 130.69 75.0993 130.728 75.1372 130.756C75.175 130.785 75.2196 130.804 75.2669 130.811C75.3141 130.819 75.3624 130.814 75.4072 130.798L82.8291 128.062C82.878 128.044 82.9209 128.013 82.9528 127.972C82.9847 127.932 83.0044 127.883 83.0097 127.832C83.015 127.78 83.0057 127.729 82.9829 127.682C82.96 127.636 82.9245 127.597 82.8803 127.569Z" fill="#4794C5"/>
<path d="M116.679 11.0689L122.557 11.5645C122.615 11.5684 122.672 11.5888 122.72 11.6236C122.767 11.6584 122.804 11.706 122.827 11.761C122.849 11.8159 122.855 11.876 122.845 11.9342C122.835 11.9923 122.808 12.0463 122.769 12.0898L116.299 19.4826C116.256 19.532 116.198 19.5663 116.135 19.5807C116.071 19.5952 116.004 19.5889 115.944 19.5629C115.884 19.5369 115.833 19.4925 115.799 19.4359C115.765 19.3793 115.749 19.3135 115.754 19.2479L116.344 11.3557C116.351 11.2727 116.39 11.196 116.452 11.1423C116.515 11.0885 116.596 11.0622 116.679 11.0689Z" fill="#4794C5"/>
</svg>
