<svg width="18" height="18" viewBox="0 0 18 18" fill="none" xmlns="http://www.w3.org/2000/svg">
<g clip-path="url(#clip0_5347_5496)">
<path d="M17.3245 9.35414C17.3245 8.65539 17.2678 8.14548 17.1451 7.6167H9.16602V10.7705H13.8496C13.7552 11.5543 13.2453 12.7346 12.1121 13.5278L12.0962 13.6334L14.6191 15.5878L14.7939 15.6052C16.3991 14.1227 17.3245 11.9414 17.3245 9.35414Z" fill="#FE7A39"/>
<path d="M9.16626 17.6637C11.4608 17.6637 13.3871 16.9082 14.7942 15.6052L12.1124 13.5277C11.3948 14.0281 10.4316 14.3775 9.16626 14.3775C6.91889 14.3775 5.01145 12.895 4.33151 10.8459L4.23184 10.8544L1.60853 12.8846L1.57422 12.98C2.97174 15.7562 5.84236 17.6637 9.16626 17.6637Z" fill="#FE7A39"/>
<path d="M4.33172 10.8461C4.15231 10.3174 4.04848 9.75075 4.04848 9.16533C4.04848 8.57984 4.15231 8.0133 4.32228 7.48451L4.31753 7.37189L1.66136 5.30908L1.57445 5.35042C0.998469 6.50245 0.667969 7.79613 0.667969 9.16533C0.667969 10.5345 0.998469 11.8281 1.57445 12.9802L4.33172 10.8461Z" fill="#FE7A39"/>
<path d="M9.16621 3.95279C10.762 3.95279 11.8385 4.64211 12.4523 5.21815L14.8507 2.87634C13.3777 1.50715 11.4608 0.666748 9.16621 0.666748C5.84233 0.666748 2.97173 2.57416 1.57422 5.3503L4.32205 7.48438C5.01143 5.43532 6.91885 3.95279 9.16621 3.95279Z" fill="#FE7A39"/>
</g>
<defs>
<clipPath id="clip0_5347_5496">
<rect width="16.6667" height="17.0555" fill="white" transform="translate(0.666992 0.666748)"/>
</clipPath>
</defs>
</svg>
