<svg width="250" height="200" viewBox="0 0 250 200" fill="none" xmlns="http://www.w3.org/2000/svg">
<path d="M93.7629 154.157L115.155 98.7921C115.358 98.2372 115.715 97.75 116.186 97.3869C116.657 97.0238 117.221 96.7998 117.815 96.7406C118.408 96.6814 119.006 96.7895 119.539 97.0524C120.072 97.3154 120.519 97.7224 120.827 98.2263L173.942 181.598C174.297 182.152 174.467 182.803 174.426 183.459C174.386 184.115 174.137 184.742 173.716 185.25C173.294 185.759 172.722 186.124 172.079 186.293C171.437 186.462 170.757 186.426 170.138 186.191L95.5869 158.199C94.8043 157.901 94.1734 157.309 93.8318 156.551C93.4901 155.794 93.4654 154.933 93.7629 154.157Z" fill="#FFCEE3"/>
<path d="M134.462 34.9072L83.5771 145.931C83.2143 146.746 82.6273 147.444 81.8831 147.945C81.1388 148.446 80.2674 148.73 79.3682 148.764C78.4691 148.798 77.5786 148.581 76.7984 148.139C76.0182 147.696 75.3797 147.045 74.9559 146.26L39.4281 82.164C39.1257 81.6169 38.9353 81.0162 38.8677 80.3961C38.8002 79.776 38.8568 79.1487 39.0345 78.5501C39.2121 77.9515 39.5073 77.3933 39.903 76.9074C40.2987 76.4215 40.7873 76.0176 41.3408 75.7186L127.753 28.7905C128.637 28.2981 129.655 28.0952 130.661 28.2108C131.668 28.3263 132.612 28.7545 133.357 29.4339C134.102 30.1132 134.61 31.0088 134.809 31.9921C135.007 32.9754 134.886 33.996 134.462 34.9072Z" fill="#FFCEE3"/>
<path d="M215.74 72.2637L170.473 143.936C170.196 144.365 169.815 144.72 169.365 144.966C168.915 145.212 168.411 145.342 167.9 145.343C167.39 145.344 166.889 145.216 166.446 144.972C166.003 144.728 165.631 144.374 165.366 143.946L126.24 80.2532C125.979 79.8228 125.834 79.3322 125.818 78.8273C125.801 78.3223 125.915 77.8194 126.147 77.3658C126.379 76.9121 126.722 76.5224 127.145 76.2332C127.567 75.9439 128.055 75.7645 128.563 75.7118L212.956 67.7324C213.514 67.6804 214.072 67.783 214.569 68.0287C215.066 68.2744 215.483 68.6535 215.771 69.1237C216.06 69.5939 216.21 70.1366 216.205 70.6911C216.199 71.2456 216.038 71.7901 215.74 72.2637Z" fill="#FFCEE3"/>
<path d="M141.138 49.5854L136.189 52.0097C136.159 52.0246 136.134 52.0468 136.115 52.0741C136.095 52.1015 136.084 52.1332 136.08 52.1662C136.076 52.1992 136.081 52.2324 136.094 52.2627C136.106 52.2931 136.127 52.3196 136.152 52.3397L139.996 55.3145C140.022 55.3343 140.052 55.3471 140.085 55.3517C140.117 55.3563 140.151 55.3525 140.182 55.3407C140.212 55.3288 140.24 55.3094 140.262 55.2841C140.283 55.2588 140.298 55.2285 140.305 55.1961L141.412 49.797C141.419 49.7614 141.416 49.7245 141.404 49.6907C141.391 49.6568 141.37 49.6273 141.341 49.6053C141.313 49.5834 141.279 49.5699 141.243 49.5663C141.207 49.5628 141.171 49.5694 141.138 49.5854Z" fill="#F8AEC8"/>
<path d="M197.323 142.957L191.342 140.044C191.306 140.027 191.266 140.019 191.225 140.021C191.185 140.023 191.146 140.035 191.112 140.056C191.078 140.077 191.05 140.106 191.03 140.141C191.011 140.176 191.001 140.214 191.001 140.254L191.02 146.12C191.021 146.16 191.031 146.198 191.051 146.233C191.071 146.267 191.099 146.296 191.133 146.317C191.167 146.337 191.206 146.349 191.247 146.351C191.287 146.353 191.327 146.345 191.363 146.327L197.324 143.375C197.363 143.355 197.396 143.325 197.419 143.288C197.442 143.251 197.455 143.209 197.454 143.165C197.454 143.122 197.442 143.08 197.419 143.043C197.395 143.006 197.362 142.976 197.323 142.957Z" fill="#F8AEC8"/>
<path d="M198.703 86.68L191.381 86.0038C191.337 86.0001 191.291 86.0059 191.247 86.0208C191.204 86.0356 191.164 86.059 191.132 86.0888C191.1 86.1185 191.077 86.1537 191.065 86.1908C191.052 86.228 191.051 86.2661 191.062 86.3014L192.612 91.5341C192.623 91.5692 192.645 91.6004 192.676 91.6247C192.706 91.6491 192.745 91.6657 192.788 91.6732C192.831 91.6807 192.877 91.6787 192.921 91.6674C192.966 91.6561 193.007 91.636 193.042 91.6088L198.813 87.0522C198.851 87.0221 198.879 86.9848 198.895 86.9444C198.911 86.904 198.913 86.8621 198.901 86.8235C198.89 86.7849 198.865 86.751 198.83 86.7256C198.795 86.7003 198.751 86.6845 198.703 86.68Z" fill="white"/>
<path d="M62.8642 90.9429L56.3421 89.3483C56.3027 89.339 56.2615 89.3398 56.2223 89.3505C56.1831 89.3613 56.1472 89.3816 56.1181 89.4096C56.0889 89.4376 56.0674 89.4724 56.0556 89.5107C56.0438 89.549 56.0421 89.5896 56.0505 89.6286L57.3242 95.4106C57.333 95.4494 57.3517 95.4854 57.3786 95.515C57.4054 95.5447 57.4395 95.5671 57.4777 95.5802C57.5159 95.5933 57.5569 95.5966 57.5969 95.5899C57.6369 95.5831 57.6746 95.5665 57.7064 95.5416L62.9548 91.3542C62.9894 91.3265 63.0156 91.29 63.0304 91.2486C63.0452 91.2073 63.0481 91.1628 63.0387 91.1201C63.0293 91.0774 63.008 91.0382 62.9772 91.0069C62.9464 90.9756 62.9072 90.9534 62.8642 90.9429Z" fill="white"/>
<path d="M195.321 46.496L184.525 45.9616C184.46 45.959 184.395 45.9728 184.337 46.0016C184.278 46.0305 184.227 46.0736 184.19 46.1268C184.152 46.1799 184.129 46.2415 184.122 46.3056C184.115 46.3698 184.124 46.4345 184.15 46.4935L187.924 55.246C187.95 55.3048 187.991 55.3559 188.042 55.3946C188.094 55.4334 188.154 55.4584 188.219 55.4675C188.283 55.4766 188.349 55.4693 188.41 55.4465C188.471 55.4236 188.526 55.3859 188.568 55.3368L195.59 47.1186C195.636 47.0643 195.666 46.9986 195.677 46.9287C195.688 46.8588 195.679 46.7876 195.651 46.723C195.623 46.6583 195.578 46.6029 195.52 46.5628C195.461 46.5227 195.393 46.4996 195.321 46.496Z" fill="#F8AEC8"/>
<path d="M80.955 157.326L78.3769 163.447C78.3617 163.484 78.356 163.525 78.3603 163.565C78.3647 163.605 78.3789 163.643 78.4017 163.676C78.4245 163.709 78.4551 163.735 78.4907 163.753C78.5263 163.77 78.5656 163.778 78.6051 163.776L84.4524 163.437C84.4917 163.434 84.5298 163.421 84.5629 163.4C84.5961 163.378 84.6234 163.348 84.6421 163.313C84.6609 163.278 84.6705 163.238 84.6702 163.198C84.6699 163.158 84.6595 163.119 84.6402 163.084L81.3709 157.302C81.3493 157.264 81.3177 157.232 81.2796 157.211C81.2416 157.19 81.1985 157.181 81.1554 157.183C81.1122 157.186 81.0706 157.2 81.0352 157.226C80.9998 157.251 80.972 157.285 80.955 157.326Z" fill="#F8AEC8"/>
<path d="M163.257 101.457C162.867 101.457 162.483 101.279 162.235 100.941C161.082 99.3747 159.031 97.578 155.803 97.9227C152.004 98.3275 149.182 97.1182 147.483 96.0326C146.894 95.6556 146.721 94.8718 147.098 94.282C147.475 93.6921 148.259 93.5198 148.849 93.8967C150.205 94.7636 152.466 95.7294 155.535 95.4019C160.192 94.9074 163.011 97.7181 164.277 99.4383C164.692 100.002 164.571 100.796 164.007 101.211C163.781 101.377 163.518 101.457 163.257 101.457Z" fill="#F486AF"/>
<path d="M149.986 108.186C149.76 108.186 149.531 108.126 149.324 107.999C148.728 107.633 148.541 106.852 148.907 106.255C150.532 103.609 153.509 101.789 157.518 100.995C160.44 100.415 162.892 100.574 162.995 100.581C163.694 100.629 164.221 101.234 164.173 101.933C164.125 102.63 163.519 103.154 162.823 103.111C162.735 103.105 154.129 102.594 151.068 107.582C150.828 107.971 150.412 108.186 149.986 108.186Z" fill="#F486AF"/>
<g filter="url(#filter0_d_2077_26790)">
<path d="M169.093 156.756C189.909 156.756 201.419 126.222 168.547 102.64C167.73 102.053 167.244 101.109 167.255 100.102C167.264 99.2706 167.527 98.4633 168.004 97.7819C169.543 95.5843 171.758 91.825 173.087 88.7971C173.405 88.0719 172.95 87.292 172.099 87.292C170.124 87.2921 170.124 86 168.15 86C166.175 86 166.175 87.2921 164.201 87.2921C162.518 87.2921 161.828 85.8445 161.01 86.8974C158.624 89.968 166.795 100.766 166.795 100.766C130.706 124.491 142.342 156.756 163.65 156.756H169.093V156.756Z" fill="#F486AF"/>
</g>
<path d="M175.219 128.944C174.39 128.487 173.509 128.138 172.637 127.776C172.131 127.566 171.647 127.322 171.22 126.982C170.379 126.311 170.54 125.22 171.525 124.789C171.804 124.667 172.097 124.627 172.393 124.61C173.536 124.549 174.621 124.758 175.655 125.255C176.169 125.504 176.339 125.425 176.514 124.889C176.697 124.322 176.85 123.747 177.02 123.175C177.133 122.792 176.994 122.539 176.632 122.377C175.969 122.085 175.289 121.876 174.573 121.763C173.64 121.619 173.64 121.614 173.636 120.677C173.632 119.355 173.632 119.355 172.306 119.355C172.114 119.355 171.922 119.351 171.73 119.355C171.111 119.373 171.006 119.482 170.989 120.105C170.98 120.385 170.989 120.664 170.985 120.947C170.98 121.776 170.976 121.763 170.182 122.05C168.264 122.748 167.078 124.056 166.951 126.149C166.838 128.003 167.806 129.254 169.328 130.165C170.265 130.728 171.303 131.059 172.297 131.5C172.685 131.67 173.056 131.866 173.379 132.136C174.334 132.926 174.159 134.238 173.025 134.735C172.419 135.001 171.778 135.067 171.12 134.984C170.104 134.857 169.131 134.591 168.216 134.116C167.679 133.837 167.522 133.911 167.339 134.491C167.182 134.993 167.043 135.498 166.903 136.004C166.716 136.685 166.785 136.846 167.435 137.164C168.264 137.565 169.149 137.77 170.051 137.914C170.758 138.028 170.78 138.058 170.788 138.791C170.793 139.122 170.793 139.458 170.797 139.789C170.802 140.208 171.002 140.452 171.434 140.461C171.922 140.47 172.415 140.47 172.903 140.456C173.305 140.448 173.509 140.23 173.509 139.824C173.509 139.371 173.531 138.913 173.514 138.459C173.492 137.997 173.693 137.762 174.137 137.64C175.162 137.36 176.034 136.811 176.706 135.991C178.572 133.724 177.861 130.405 175.219 128.944Z" fill="white"/>
<g filter="url(#filter1_d_2077_26790)">
<path d="M177.275 100.766C177.275 100.766 185.568 90.0028 183.184 86.9153C182.371 85.863 181.678 87.2921 179.997 87.2921C178.022 87.292 178.022 86 176.047 86C174.073 86 174.073 87.292 172.098 87.292C172.001 87.292 171.912 87.2866 171.824 87.2805C171.031 90.6815 167.455 95.9799 165.409 98.8168C166.215 99.9992 166.795 100.766 166.795 100.766C166.314 101.082 165.842 101.4 165.378 101.72C199.859 125.42 188.321 156.756 167.233 156.756H180.548C201.921 156.756 213.485 124.57 177.275 100.766Z" fill="#DC6891"/>
</g>
<path d="M178.818 104.594C173.999 105.811 169.238 105.811 164.419 104.594C162.742 104.17 161.791 102.284 162.394 100.57C162.401 100.55 162.408 100.531 162.414 100.512C162.921 99.0744 164.356 98.2678 165.763 98.621C169.708 99.6116 173.527 99.6119 177.474 98.621C178.88 98.2678 180.316 99.0744 180.822 100.512C180.829 100.531 180.835 100.55 180.842 100.57C181.446 102.284 180.495 104.17 178.818 104.594Z" fill="#FFB5D0"/>
<path d="M210.686 162.292L192.334 169.122C190.776 169.702 189.126 169.999 187.463 169.999H168.551C165.904 169.999 163.312 169.247 161.076 167.831L137.396 152.826C135.834 151.438 135.544 149.107 136.719 147.38C138.005 145.49 140.133 145.161 142.474 146.268L165.529 156.419L165.502 152.679C165.807 149.609 168.171 147.144 171.226 146.712L185.265 145.096C188.504 144.638 190.122 143.552 192.946 141.901C196.801 139.646 201.186 138.457 205.652 138.457H210.686V162.292Z" fill="#FFDDCE"/>
<path d="M193.449 165.483C191.81 166.092 190.076 166.405 188.328 166.405H168.446C166.329 166.405 164.246 165.946 162.336 165.072L148.433 156.262C147.142 155.444 146.322 154.019 146.364 152.49C146.386 151.68 146.634 150.868 147.119 150.155C147.119 150.155 147.542 149.43 147.977 148.691L165.529 156.419L165.502 152.679C165.807 149.609 168.171 147.144 171.226 146.712L185.265 145.096C188.504 144.638 190.122 143.552 192.946 141.901C196.801 139.646 201.186 138.457 205.652 138.457H210.686V159.067L193.449 165.483Z" fill="#FFE4D9"/>
<g filter="url(#filter2_d_2077_26790)">
<path d="M136.72 147.378C138.006 145.488 140.133 145.16 142.474 146.267L148.815 149.059C148.508 149.545 148.264 149.933 148.264 149.933C147.089 151.66 147.378 153.992 148.941 155.379L162.739 164.122C164.556 164.954 166.537 165.391 168.551 165.391H187.463C189.126 165.391 190.776 165.093 192.334 164.513L210.686 157.683V162.29L192.334 169.121C190.776 169.701 189.126 169.998 187.463 169.998H172.011H168.55C165.904 169.998 163.312 169.246 161.076 167.829L137.396 152.824C135.834 151.437 135.544 149.105 136.72 147.378Z" fill="#FFD5CA"/>
</g>
<path d="M167.224 148.824L167.225 148.914L167.165 148.888C167.184 148.866 167.204 148.845 167.224 148.824Z" fill="#F5DBCC"/>
<path d="M165.531 156.417H179.866C180.566 156.417 181.134 155.85 181.134 155.15C181.134 154.449 180.566 153.882 179.866 153.882H165.512L165.531 156.417Z" fill="#FFD5CA"/>
<g filter="url(#filter3_d_2077_26790)">
<path d="M206.738 165.946C206.738 167.277 207.817 168.357 209.148 168.357H214.967C216.299 168.357 217.378 167.277 217.378 165.946V136.425C217.378 135.094 216.299 134.014 214.967 134.014H209.148C207.817 134.014 206.738 135.094 206.738 136.425V165.946Z" fill="#F486AF"/>
</g>
<g filter="url(#filter4_d_2077_26790)">
<circle cx="76.7005" cy="88.5775" r="29.5775" fill="#F486AF"/>
</g>
<path d="M68.9844 97.8444V78.7133C68.9844 77.9484 69.808 77.4667 70.4746 77.8417L87.966 87.6806C88.655 88.0682 88.6431 89.0644 87.9449 89.4353L70.4535 98.7275C69.7875 99.0814 68.9844 98.5986 68.9844 97.8444Z" fill="white"/>
<path d="M38.6924 122.278L57.0437 129.109C58.6022 129.689 60.2519 129.986 61.915 129.986H80.8273C83.474 129.986 86.0661 129.234 88.3018 127.817L111.982 112.812C113.544 111.425 113.834 109.093 112.659 107.366C111.372 105.476 109.245 105.147 106.904 106.254L83.8492 116.406L83.8764 112.665C83.5711 109.595 81.2071 107.131 78.1523 106.699L64.1126 105.082C60.8738 104.624 59.2555 103.539 56.432 101.887C52.5774 99.6321 48.192 98.4436 43.7263 98.4436H38.6924V122.278Z" fill="#FFDDCE"/>
<path d="M55.9292 125.469C57.5677 126.079 59.302 126.391 61.0502 126.391H80.9322C83.0489 126.391 85.1318 125.932 87.0423 125.058L100.945 116.248C102.236 115.43 103.056 114.005 103.014 112.477C102.992 111.666 102.744 110.855 102.259 110.141C102.259 110.141 101.836 109.416 101.401 108.678L83.8492 116.406L83.8764 112.665C83.5711 109.595 81.2071 107.131 78.1523 106.699L64.1126 105.082C60.8738 104.624 59.2555 103.539 56.432 101.887C52.5774 99.6321 48.192 98.4436 43.7263 98.4436H38.6924V119.053L55.9292 125.469Z" fill="#FFE4D9"/>
<g filter="url(#filter5_d_2077_26790)">
<path d="M112.658 107.365C111.372 105.475 109.245 105.146 106.904 106.253L100.562 109.045C100.87 109.532 101.114 109.92 101.114 109.92C102.289 111.647 102 113.978 100.437 115.366L86.6392 124.109C84.8219 124.941 82.8405 125.377 80.827 125.377H61.915C60.2519 125.377 58.6022 125.08 57.0437 124.5L38.6924 117.669V122.277L57.0437 129.107C58.6022 129.688 60.2519 129.985 61.915 129.985H77.3666H80.8275C83.4741 129.985 86.0663 129.233 88.302 127.816L111.982 112.811C113.544 111.424 113.834 109.092 112.658 107.365Z" fill="#FFD5CA"/>
</g>
<path d="M82.155 108.81L82.1543 108.901L82.2139 108.874C82.1945 108.853 82.1745 108.832 82.155 108.81Z" fill="#F5DBCC"/>
<path d="M83.8472 116.404H69.5117C68.8116 116.404 68.2441 115.836 68.2441 115.136C68.2441 114.436 68.8115 113.869 69.5117 113.869H83.8658L83.8472 116.404Z" fill="#FFD5CA"/>
<g filter="url(#filter6_d_2077_26790)">
<path d="M42.6404 125.932C42.6404 127.264 41.561 128.343 40.2295 128.343H34.4109C33.0794 128.343 32 127.264 32 125.932V96.4116C32 95.0801 33.0794 94.0007 34.4109 94.0007H40.2295C41.561 94.0007 42.6404 95.0801 42.6404 96.4116V125.932Z" fill="#F486AF"/>
</g>
<defs>
<filter id="filter0_d_2077_26790" x="129.583" y="76" width="73.5762" height="98.7561" filterUnits="userSpaceOnUse" color-interpolation-filters="sRGB">
<feFlood flood-opacity="0" result="BackgroundImageFix"/>
<feColorMatrix in="SourceAlpha" type="matrix" values="0 0 0 0 0 0 0 0 0 0 0 0 0 0 0 0 0 0 127 0" result="hardAlpha"/>
<feOffset dy="4"/>
<feGaussianBlur stdDeviation="7"/>
<feColorMatrix type="matrix" values="0 0 0 0 0.833333 0 0 0 0 0.381944 0 0 0 0 0.542666 0 0 0 0.2 0"/>
<feBlend mode="normal" in2="BackgroundImageFix" result="effect1_dropShadow_2077_26790"/>
<feBlend mode="normal" in="SourceGraphic" in2="effect1_dropShadow_2077_26790" result="shape"/>
</filter>
<filter id="filter1_d_2077_26790" x="151.378" y="76" width="63.2373" height="98.7559" filterUnits="userSpaceOnUse" color-interpolation-filters="sRGB">
<feFlood flood-opacity="0" result="BackgroundImageFix"/>
<feColorMatrix in="SourceAlpha" type="matrix" values="0 0 0 0 0 0 0 0 0 0 0 0 0 0 0 0 0 0 127 0" result="hardAlpha"/>
<feOffset dy="4"/>
<feGaussianBlur stdDeviation="7"/>
<feColorMatrix type="matrix" values="0 0 0 0 0.833333 0 0 0 0 0.381944 0 0 0 0 0.542666 0 0 0 0.2 0"/>
<feBlend mode="normal" in2="BackgroundImageFix" result="effect1_dropShadow_2077_26790"/>
<feBlend mode="normal" in="SourceGraphic" in2="effect1_dropShadow_2077_26790" result="shape"/>
</filter>
<filter id="filter2_d_2077_26790" x="121.999" y="135.634" width="102.687" height="52.3645" filterUnits="userSpaceOnUse" color-interpolation-filters="sRGB">
<feFlood flood-opacity="0" result="BackgroundImageFix"/>
<feColorMatrix in="SourceAlpha" type="matrix" values="0 0 0 0 0 0 0 0 0 0 0 0 0 0 0 0 0 0 127 0" result="hardAlpha"/>
<feOffset dy="4"/>
<feGaussianBlur stdDeviation="7"/>
<feColorMatrix type="matrix" values="0 0 0 0 0.770833 0 0 0 0 0.542846 0 0 0 0 0.436806 0 0 0 0.2 0"/>
<feBlend mode="normal" in2="BackgroundImageFix" result="effect1_dropShadow_2077_26790"/>
<feBlend mode="normal" in="SourceGraphic" in2="effect1_dropShadow_2077_26790" result="shape"/>
</filter>
<filter id="filter3_d_2077_26790" x="192.737" y="124.014" width="38.6406" height="62.3423" filterUnits="userSpaceOnUse" color-interpolation-filters="sRGB">
<feFlood flood-opacity="0" result="BackgroundImageFix"/>
<feColorMatrix in="SourceAlpha" type="matrix" values="0 0 0 0 0 0 0 0 0 0 0 0 0 0 0 0 0 0 127 0" result="hardAlpha"/>
<feOffset dy="4"/>
<feGaussianBlur stdDeviation="7"/>
<feColorMatrix type="matrix" values="0 0 0 0 0.770833 0 0 0 0 0.542846 0 0 0 0 0.436806 0 0 0 0.2 0"/>
<feBlend mode="normal" in2="BackgroundImageFix" result="effect1_dropShadow_2077_26790"/>
<feBlend mode="normal" in="SourceGraphic" in2="effect1_dropShadow_2077_26790" result="shape"/>
</filter>
<filter id="filter4_d_2077_26790" x="33.123" y="49" width="87.1553" height="87.155" filterUnits="userSpaceOnUse" color-interpolation-filters="sRGB">
<feFlood flood-opacity="0" result="BackgroundImageFix"/>
<feColorMatrix in="SourceAlpha" type="matrix" values="0 0 0 0 0 0 0 0 0 0 0 0 0 0 0 0 0 0 127 0" result="hardAlpha"/>
<feOffset dy="4"/>
<feGaussianBlur stdDeviation="7"/>
<feColorMatrix type="matrix" values="0 0 0 0 0.833333 0 0 0 0 0.381944 0 0 0 0 0.542666 0 0 0 0.2 0"/>
<feBlend mode="normal" in2="BackgroundImageFix" result="effect1_dropShadow_2077_26790"/>
<feBlend mode="normal" in="SourceGraphic" in2="effect1_dropShadow_2077_26790" result="shape"/>
</filter>
<filter id="filter5_d_2077_26790" x="24.6924" y="95.6201" width="102.687" height="52.3645" filterUnits="userSpaceOnUse" color-interpolation-filters="sRGB">
<feFlood flood-opacity="0" result="BackgroundImageFix"/>
<feColorMatrix in="SourceAlpha" type="matrix" values="0 0 0 0 0 0 0 0 0 0 0 0 0 0 0 0 0 0 127 0" result="hardAlpha"/>
<feOffset dy="4"/>
<feGaussianBlur stdDeviation="7"/>
<feColorMatrix type="matrix" values="0 0 0 0 0.770833 0 0 0 0 0.542846 0 0 0 0 0.436806 0 0 0 0.2 0"/>
<feBlend mode="normal" in2="BackgroundImageFix" result="effect1_dropShadow_2077_26790"/>
<feBlend mode="normal" in="SourceGraphic" in2="effect1_dropShadow_2077_26790" result="shape"/>
</filter>
<filter id="filter6_d_2077_26790" x="18" y="84.0007" width="38.6406" height="62.3423" filterUnits="userSpaceOnUse" color-interpolation-filters="sRGB">
<feFlood flood-opacity="0" result="BackgroundImageFix"/>
<feColorMatrix in="SourceAlpha" type="matrix" values="0 0 0 0 0 0 0 0 0 0 0 0 0 0 0 0 0 0 127 0" result="hardAlpha"/>
<feOffset dy="4"/>
<feGaussianBlur stdDeviation="7"/>
<feColorMatrix type="matrix" values="0 0 0 0 0.770833 0 0 0 0 0.542846 0 0 0 0 0.436806 0 0 0 0.2 0"/>
<feBlend mode="normal" in2="BackgroundImageFix" result="effect1_dropShadow_2077_26790"/>
<feBlend mode="normal" in="SourceGraphic" in2="effect1_dropShadow_2077_26790" result="shape"/>
</filter>
</defs>
</svg>
