<svg width="24" height="24" viewBox="0 0 24 24" fill="none" xmlns="http://www.w3.org/2000/svg">
<path d="M21.9501 7.88007C21.9032 6.81739 21.7314 6.08681 21.4851 5.45375C21.2311 4.78177 20.8403 4.18015 20.3283 3.68002C19.8281 3.17211 19.2223 2.77744 18.558 2.52745C17.9211 2.28128 17.1942 2.10943 16.1312 2.06257C15.0604 2.01175 14.7204 2 12.0044 2C9.28834 2 8.94837 2.01175 7.88147 2.05861C6.81854 2.10546 6.08778 2.27746 5.45472 2.52348C4.78243 2.77744 4.18067 3.16814 3.68042 3.68002C3.17239 4.18015 2.77777 4.78574 2.52757 5.44993C2.28134 6.08681 2.10945 6.81342 2.06259 7.8761C2.01175 8.94672 2 9.2866 2 12.002C2 14.7174 2.01175 15.0572 2.05862 16.1239C2.10548 17.1866 2.27753 17.9172 2.52376 18.5502C2.77777 19.2222 3.17239 19.8238 3.68042 20.3239C4.18067 20.8319 4.7864 21.2265 5.45075 21.4765C6.08778 21.7227 6.81457 21.8945 7.87766 21.9414C8.94441 21.9884 9.28452 22 12.0005 22C14.7166 22 15.0565 21.9884 16.1234 21.9414C17.1864 21.8945 17.9171 21.7227 18.5502 21.4765C19.8946 20.9569 20.9576 19.8942 21.4773 18.5502C21.7234 17.9133 21.8955 17.1866 21.9423 16.1239C21.9892 15.0572 22.0009 14.7174 22.0009 12.002C22.0009 9.2866 21.997 8.94672 21.9501 7.88007ZM20.1486 16.0458C20.1056 17.0225 19.9415 17.55 19.8047 17.9016C19.4686 18.7729 18.7769 19.4644 17.9054 19.8005C17.5537 19.9372 17.0223 20.1013 16.0491 20.1442C14.9939 20.1912 14.6775 20.2028 12.0083 20.2028C9.33917 20.2028 9.01875 20.1912 7.96742 20.1442C6.99043 20.1013 6.46285 19.9372 6.11114 19.8005C5.67745 19.6402 5.28268 19.3863 4.96226 19.0542C4.63008 18.7299 4.37607 18.3391 4.21578 17.9056C4.079 17.5539 3.9149 17.0225 3.872 16.0497C3.82498 14.9948 3.81338 14.6783 3.81338 12.0098C3.81338 9.34124 3.82498 9.02089 3.872 7.96996C3.9149 6.99321 4.079 6.46576 4.21578 6.11413C4.37607 5.68039 4.63008 5.28587 4.96623 4.96537C5.29047 4.63327 5.68126 4.37932 6.11511 4.21922C6.46682 4.08247 6.99837 3.91841 7.97139 3.87537C9.02653 3.82852 9.34314 3.81677 12.0121 3.81677C14.6853 3.81677 15.0017 3.82852 16.0531 3.87537C17.0301 3.91841 17.5576 4.08247 17.9093 4.21922C18.343 4.37932 18.7378 4.63327 19.0582 4.96537C19.3904 5.28968 19.6444 5.68039 19.8047 6.11413C19.9415 6.46576 20.1056 6.99702 20.1486 7.96996C20.1955 9.02486 20.2073 9.34124 20.2073 12.0098C20.2073 14.6783 20.1955 14.9909 20.1486 16.0458Z" fill="#CCD2D7"/>
<path d="M12.0042 6.86426C9.16711 6.86426 6.86523 9.16543 6.86523 12.002C6.86523 14.8386 9.16711 17.1397 12.0042 17.1397C14.8414 17.1397 17.1432 14.8386 17.1432 12.002C17.1432 9.16543 14.8414 6.86426 12.0042 6.86426ZM12.0042 15.3347C10.1636 15.3347 8.67068 13.8423 8.67068 12.002C8.67068 10.1617 10.1636 8.66927 12.0042 8.66927C13.8449 8.66927 15.3377 10.1617 15.3377 12.002C15.3377 13.8423 13.8449 15.3347 12.0042 15.3347Z" fill="#CCD2D7"/>
<path d="M18.5455 6.66134C18.5455 7.3237 18.0084 7.86077 17.3459 7.86077C16.6835 7.86077 16.1465 7.3237 16.1465 6.66134C16.1465 5.99882 16.6835 5.46191 17.3459 5.46191C18.0084 5.46191 18.5455 5.99882 18.5455 6.66134Z" fill="#CCD2D7"/>
</svg>
