<svg width="154" height="13" viewBox="0 0 154 13" fill="none" xmlns="http://www.w3.org/2000/svg">
<path d="M0.204545 12H7.54545V10.75H2.13636V10.6591L4.75 7.86364C6.75 5.72159 7.34091 4.72159 7.34091 3.43182C7.34091 1.63636 5.88636 0.204545 3.84091 0.204545C1.80114 0.204545 0.25 1.59091 0.25 3.63636H1.59091C1.59091 2.3125 2.44886 1.43182 3.79545 1.43182C5.05682 1.43182 6.02273 2.20455 6.02273 3.43182C6.02273 4.50568 5.39205 5.30114 4.04545 6.77273L0.204545 10.9773V12ZM13.6875 12.1591C16.2557 12.1591 17.733 9.98295 17.733 6.18182C17.733 2.40909 16.233 0.204545 13.6875 0.204545C11.142 0.204545 9.64205 2.40909 9.64205 6.18182C9.64205 9.98295 11.1193 12.1591 13.6875 12.1591ZM13.6875 10.9091C11.9943 10.9091 11.0057 9.21023 11.0057 6.18182C11.0057 3.15909 12.0057 1.43182 13.6875 1.43182C15.3693 1.43182 16.3693 3.15909 16.3693 6.18182C16.3693 9.21023 15.3807 10.9091 13.6875 10.9091ZM19.892 12H27.233V10.75H21.8239V10.6591L24.4375 7.86364C26.4375 5.72159 27.0284 4.72159 27.0284 3.43182C27.0284 1.63636 25.5739 0.204545 23.5284 0.204545C21.4886 0.204545 19.9375 1.59091 19.9375 3.63636H21.2784C21.2784 2.3125 22.1364 1.43182 23.483 1.43182C24.7443 1.43182 25.7102 2.20455 25.7102 3.43182C25.7102 4.50568 25.0795 5.30114 23.733 6.77273L19.892 10.9773V12ZM33.6705 0.363636H32.2614L29.3523 2.29545V3.72727L32.1932 1.84091H32.2614V12H33.6705V0.363636ZM47.6307 12.1818C50.9545 12.1818 53.642 9.49432 53.6307 6.18182C53.6193 2.86932 50.9545 0.181818 47.6307 0.181818C44.3295 0.181818 41.642 2.86932 41.6307 6.18182C41.6193 9.49432 44.3295 12.1818 47.6307 12.1818ZM47.6307 10.8636C45.0455 10.8636 42.9375 8.75568 42.9489 6.1875C42.9602 3.60227 45.0568 1.5 47.6307 1.5C50.2159 1.5 52.3011 3.59091 52.3125 6.1875C52.3239 8.76705 50.2273 10.8636 47.6307 10.8636ZM44.3125 6.18182C44.3125 8.04545 45.8239 9.55682 47.6875 9.55682C49.3011 9.55682 50.5398 8.42045 50.7557 6.90909H49.3807C49.2216 7.6875 48.5625 8.23864 47.6875 8.23864C46.5511 8.23864 45.6307 7.31818 45.6307 6.18182C45.6307 5.04545 46.5511 4.125 47.6875 4.125C48.5625 4.125 49.3409 4.67614 49.4943 5.45455H50.8693C50.6534 3.94318 49.3011 2.80682 47.6875 2.80682C45.8239 2.80682 44.3125 4.31818 44.3125 6.18182ZM61.3395 0.363636H59.8622L64.1349 12H65.5895L69.8622 0.363636H68.3849L64.9304 10.1591H64.794L61.3395 0.363636ZM71.4929 12H72.8338V3.27273H71.4929V12ZM72.1747 1.81818C72.6974 1.81818 73.1293 1.40909 73.1293 0.909091C73.1293 0.409091 72.6974 0 72.1747 0C71.652 0 71.2202 0.409091 71.2202 0.909091C71.2202 1.40909 71.652 1.81818 72.1747 1.81818ZM75.2898 12H76.6307V6.54545C76.6307 5.26705 77.5625 4.36364 78.608 4.36364C79.625 4.36364 80.3352 5.02841 80.3352 6.02273V12H81.6989V6.31818C81.6989 5.19318 82.4034 4.36364 83.6307 4.36364C84.5852 4.36364 85.4034 4.86932 85.4034 6.15909V12H86.7443V6.15909C86.7443 4.10795 85.642 3.15909 84.0852 3.15909C82.8352 3.15909 81.9205 3.73295 81.4716 4.63636H81.3807C80.9489 3.70455 80.1875 3.15909 79.0398 3.15909C77.9034 3.15909 77.0625 3.70455 76.6989 4.63636H76.5852V3.27273H75.2898V12ZM92.8551 12.1818C94.6278 12.1818 95.9233 11.2955 96.3324 9.97727L95.0369 9.61364C94.696 10.5227 93.9062 10.9773 92.8551 10.9773C91.2812 10.9773 90.196 9.96023 90.1335 8.09091H96.4688V7.52273C96.4688 4.27273 94.5369 3.15909 92.7188 3.15909C90.3551 3.15909 88.7869 5.02273 88.7869 7.70455C88.7869 10.3864 90.3324 12.1818 92.8551 12.1818ZM90.1335 6.93182C90.2244 5.57386 91.1847 4.36364 92.7188 4.36364C94.1733 4.36364 95.1051 5.45455 95.1051 6.93182H90.1335ZM98.5085 12H99.8494V6.47727C99.8494 5.29545 100.781 4.43182 102.054 4.43182C102.412 4.43182 102.781 4.5 102.872 4.52273V3.15909C102.719 3.14773 102.366 3.13636 102.168 3.13636C101.122 3.13636 100.213 3.72727 99.8949 4.59091H99.804V3.27273H98.5085V12ZM110.643 5.22727C110.223 3.98864 109.28 3.15909 107.553 3.15909C105.712 3.15909 104.348 4.20455 104.348 5.68182C104.348 6.88636 105.064 7.69318 106.666 8.06818L108.121 8.40909C109.001 8.61364 109.416 9.03409 109.416 9.63636C109.416 10.3864 108.621 11 107.371 11C106.274 11 105.587 10.5284 105.348 9.59091L104.075 9.90909C104.388 11.392 105.609 12.1818 107.393 12.1818C109.422 12.1818 110.803 11.0739 110.803 9.56818C110.803 8.35227 110.041 7.58523 108.484 7.20455L107.189 6.88636C106.155 6.63068 105.689 6.28409 105.689 5.61364C105.689 4.86364 106.484 4.31818 107.553 4.31818C108.723 4.31818 109.206 4.96591 109.439 5.56818L110.643 5.22727ZM116.48 12.1818C118.253 12.1818 119.548 11.2955 119.957 9.97727L118.662 9.61364C118.321 10.5227 117.531 10.9773 116.48 10.9773C114.906 10.9773 113.821 9.96023 113.759 8.09091H120.094V7.52273C120.094 4.27273 118.162 3.15909 116.344 3.15909C113.98 3.15909 112.412 5.02273 112.412 7.70455C112.412 10.3864 113.957 12.1818 116.48 12.1818ZM113.759 6.93182C113.849 5.57386 114.81 4.36364 116.344 4.36364C117.798 4.36364 118.73 5.45455 118.73 6.93182H113.759ZM126.815 12H133.634V10.75H128.224V0.363636H126.815V12ZM135.815 12H142.634V10.75H137.224V0.363636H135.815V12ZM153.726 4C153.294 1.61364 151.385 0.204545 149.044 0.204545C146.067 0.204545 143.908 2.5 143.908 6.18182C143.908 9.86364 146.067 12.1591 149.044 12.1591C151.385 12.1591 153.294 10.75 153.726 8.36364H152.317C151.976 9.97727 150.589 10.8409 149.044 10.8409C146.93 10.8409 145.271 9.20455 145.271 6.18182C145.271 3.15909 146.93 1.52273 149.044 1.52273C150.589 1.52273 151.976 2.38636 152.317 4H153.726Z" fill="#434F56"/>
</svg>
