<svg width="133" height="29" viewBox="0 0 133 29" fill="none" xmlns="http://www.w3.org/2000/svg">
<path d="M9.47108 19.3738L13.682 27.7215C13.7224 27.8053 13.7859 27.8762 13.8652 27.9257C13.9445 27.9753 14.0364 28.0016 14.1302 28.0016C14.2239 28.0016 14.3158 27.9753 14.3951 27.9257C14.4744 27.8762 14.5379 27.8053 14.5783 27.7215L21.5875 13.8163C21.6345 13.7239 21.6509 13.6191 21.6343 13.5169C21.6177 13.4147 21.5691 13.3203 21.4952 13.2471C21.4213 13.1739 21.326 13.1257 21.2229 13.1093C21.1197 13.0928 21.014 13.1091 20.9207 13.1556L9.69337 18.7113C9.57559 18.7703 9.48612 18.8731 9.44448 18.9972C9.40285 19.1213 9.41241 19.2566 9.47108 19.3738Z" fill="#00A1B9"/>
<path d="M27.5282 0.0548536L16.0821 5.7242C15.9981 5.76471 15.9272 5.82782 15.8776 5.90634C15.8281 5.98486 15.8018 6.07561 15.8018 6.16822C15.8018 6.26084 15.8281 6.35159 15.8776 6.43011C15.9272 6.50863 15.9981 6.57174 16.0821 6.61225L22.9498 10.0153C23.0084 10.0442 23.0722 10.0615 23.1375 10.066C23.2028 10.0705 23.2684 10.0622 23.3305 10.0416C23.3926 10.021 23.45 9.98843 23.4994 9.94582C23.5488 9.90321 23.5892 9.85137 23.6184 9.79327L28.1968 0.720895C28.2449 0.628094 28.2622 0.522573 28.246 0.419473C28.2299 0.316372 28.1812 0.220992 28.1069 0.147019C28.0326 0.0730453 27.9366 0.0242809 27.8326 0.00772281C27.7287 -0.00883524 27.6221 0.0076643 27.5282 0.0548536Z" fill="#F37233"/>
<path d="M7.60516 3.46385L0.725009 0.0554918C0.631631 0.00951769 0.52605 -0.00627885 0.423134 0.0103268C0.320218 0.0269324 0.225151 0.0751036 0.151321 0.148057C0.0774909 0.22101 0.0286163 0.315071 0.0115799 0.416993C-0.00545647 0.518915 0.0102035 0.623565 0.0563546 0.716205L6.9383 14.3496C6.98881 14.4484 7.07139 14.5276 7.17277 14.5743C7.27414 14.621 7.38842 14.6325 7.49723 14.6071C7.60605 14.5817 7.70307 14.5208 7.77272 14.4341C7.84236 14.3475 7.88058 14.2402 7.88123 14.1294V3.90432C7.88096 3.81276 7.855 3.72308 7.80625 3.6453C7.75749 3.56751 7.68787 3.50469 7.60516 3.46385Z" fill="#14133E"/>
<path d="M22.0783 10.6349L9.55495 4.43095C9.47908 4.39424 9.39504 4.37722 9.31072 4.38151C9.2264 4.38579 9.14456 4.41123 9.07288 4.45544C9.0012 4.49965 8.94203 4.56118 8.90093 4.63425C8.85982 4.70732 8.83813 4.78954 8.83789 4.8732V17.2811C8.83844 17.3646 8.86035 17.4466 8.90157 17.5194C8.9428 17.5923 9.002 17.6536 9.07363 17.6976C9.14526 17.7416 9.22699 17.7668 9.31116 17.771C9.39534 17.7752 9.47921 17.7582 9.55495 17.7216L22.0783 11.5176C22.161 11.4766 22.2304 11.4135 22.279 11.3356C22.3276 11.2576 22.3533 11.1679 22.3533 11.0763C22.3533 10.9847 22.3276 10.8949 22.279 10.8169C22.2304 10.739 22.161 10.676 22.0783 10.6349Z" fill="#991C52"/>
<path d="M46.4688 9.48253L41.6824 20.8994H39.0903L34.3918 9.48253C34.0601 8.64776 33.8378 8.53764 33.1064 8.53764L33.3951 7.24463H37.5612L37.8713 8.53941C37.0521 8.53941 36.8961 8.75965 37.1542 9.4843L40.1246 16.7664C40.3059 17.3933 40.4466 18.031 40.5459 18.6757C40.6701 18.0302 40.8329 17.3927 41.0335 16.7664L44.1581 9.4843C44.4682 8.73656 44.2244 8.53941 43.4034 8.53941L43.7207 7.24463H47.444L47.7541 8.53941C46.9797 8.53764 46.8022 8.66552 46.4688 9.48253Z" fill="#231F20"/>
<path d="M54.3338 20.7662H50.2788L49.9902 19.4714C50.8113 19.4714 51.0102 19.1854 51.0102 18.4394V9.56956C51.0102 8.80228 50.8113 8.53764 49.9902 8.53764L50.2788 7.24463H54.3338L54.6439 8.53941C53.8247 8.53941 53.6257 8.80405 53.6257 9.57133V18.4341C53.6257 19.1801 53.8247 19.466 54.6439 19.466L54.3338 20.7662Z" fill="#231F20"/>
<path d="M74.2766 20.7662H70.3328L70.0227 19.4714C70.8634 19.4714 71.0642 19.1854 71.0642 18.4394V12.0455C71.0642 11.4309 71.152 10.5517 71.152 10.5517C70.9147 11.0572 70.6484 11.5489 70.3543 12.0241L66.6991 17.6224H65.7006L62.1781 12.1822C61.8889 11.701 61.6297 11.2028 61.4019 10.6903C61.4019 10.6903 61.4915 11.6121 61.4915 12.2266V18.443C61.4915 19.189 61.6905 19.4749 62.5097 19.4749L62.1996 20.7697H58.4996L58.1895 19.4749C59.0087 19.4749 59.231 19.189 59.231 18.443V9.56956C59.231 8.80228 59.0087 8.53764 58.1895 8.53764L58.4996 7.24463H61.5793L66.3442 14.6652L71.152 7.24463H74.2766L74.5867 8.53941C73.7675 8.53941 73.5452 8.80405 73.5452 9.57133V18.4341C73.5452 19.1801 73.7675 19.466 74.5867 19.466L74.2766 20.7662Z" fill="#231F20"/>
<path d="M88.4347 20.7662H78.2633L77.9531 19.4714C78.7724 19.4714 78.9946 19.1854 78.9946 18.4394V9.56956C78.9946 8.80228 78.7724 8.53764 77.9531 8.53764L78.2633 7.24463H87.8575V10.0083L86.7711 10.2729C86.7048 9.21789 86.4395 8.95502 84.844 8.95502H81.6083V12.9069H84.844C85.6866 12.9069 85.9734 12.7293 85.9734 11.9851L87.0382 12.2923V15.2567L85.9734 15.5408C85.9734 14.7949 85.6866 14.619 84.844 14.619H81.6083V19.0327H85.9304C87.2157 19.0327 87.4362 18.6775 87.6352 17.6722L88.7448 17.935L88.4347 20.7662Z" fill="#231F20"/>
<path d="M105.053 20.7662H102.016C99.9329 19.2742 100.94 15.1252 98.0722 15.1252H95.3689V18.4341C95.3689 19.1801 95.5912 19.466 96.4104 19.466L96.1003 20.7608H92.022L91.7119 19.466C92.5545 19.466 92.7534 19.1801 92.7534 18.4341V9.56956C92.7534 8.82359 92.5329 8.53764 91.7119 8.53764L92.022 7.24463H98.4755C101.688 7.24463 103.615 8.64953 103.615 11.0864C103.615 12.7559 102.685 13.9619 100.978 14.5551C102.591 15.0613 102.907 16.7521 103.328 17.9297C103.705 19.006 104.015 19.466 105.101 19.466H105.366L105.053 20.7662ZM98.2048 8.86622H95.3689V13.4326H98.16C99.9993 13.4326 100.998 12.6422 100.998 11.1716C100.998 9.65836 100.044 8.86799 98.2048 8.86799V8.86622Z" fill="#231F20"/>
<path d="M112.586 20.965C110.785 20.9774 109.013 20.5231 107.444 19.6471L108.043 17.1002H108.907C109.416 18.7697 111.058 19.2954 112.629 19.2954C114.025 19.2954 115.443 18.6596 115.443 17.2103C115.443 16.0025 114.558 15.4093 112.053 14.9706C109.748 14.5763 107.572 13.5 107.572 11.0188C107.572 8.53753 109.787 7.02251 112.734 7.02251C114.348 6.99989 115.945 7.35336 117.395 8.05442L116.82 10.4699H115.977C115.379 9.04905 113.982 8.66896 112.765 8.66896C111.257 8.66896 110.038 9.35099 110.038 10.6014C110.038 11.6777 110.935 12.1821 112.831 12.5338C115.911 13.0826 118.016 14.0488 118.016 16.7716C118.016 19.4944 115.533 20.965 112.586 20.965Z" fill="#231F20"/>
<path d="M131.684 20.7662H121.513L121.212 19.4714C122.031 19.4714 122.252 19.1854 122.252 18.4394V9.56956C122.252 8.80228 122.031 8.53764 121.212 8.53764L121.513 7.24463H131.109V10.0083L130.023 10.2729C129.956 9.21789 129.691 8.95502 128.096 8.95502H124.869V12.9069H128.096C128.938 12.9069 129.225 12.7293 129.225 11.9851L130.29 12.2923V15.2567L129.225 15.5408C129.225 14.7949 128.938 14.619 128.096 14.619H124.869V19.0327H129.191C130.474 19.0327 130.697 18.6775 130.896 17.6722L132.005 17.935L131.684 20.7662Z" fill="#231F20"/>
</svg>
