<svg width="360" height="360" viewBox="0 0 360 360" fill="none" xmlns="http://www.w3.org/2000/svg">
<path d="M72.7521 98.1777L21.3071 228.204C20.7711 229.488 20.6133 230.911 20.852 232.307C21.0908 233.704 21.7162 235.018 22.656 236.097C23.5958 237.176 24.8116 237.975 26.1625 238.403C27.5135 238.831 28.9445 238.869 30.2899 238.514L256.526 183.24C258.034 182.877 259.374 182.041 260.354 180.852C261.334 179.662 261.906 178.179 261.986 176.614C262.067 175.049 261.653 173.482 260.804 172.134C259.954 170.787 258.713 169.729 257.255 169.111L82.4118 94.2599C80.5693 93.4818 78.5199 93.457 76.7105 94.1909C74.901 94.9248 73.4782 96.3578 72.7521 98.1777Z" fill="#FFCEE3"/>
<path d="M164.371 140.59L259.877 337.338C260.559 338.783 261.637 340.009 262.99 340.876C264.342 341.743 265.913 342.217 267.525 342.242C269.136 342.268 270.721 341.845 272.101 341.021C273.48 340.198 274.597 339.007 275.325 337.584L336.386 221.423C336.906 220.431 337.223 219.348 337.319 218.235C337.416 217.122 337.289 216.002 336.948 214.937C336.606 213.872 336.055 212.885 335.327 212.031C334.6 211.176 333.709 210.473 332.706 209.959L176.138 129.373C174.537 128.527 172.706 128.204 170.909 128.451C169.111 128.698 167.438 129.502 166.132 130.747C164.825 131.993 163.95 133.617 163.634 135.385C163.318 137.154 163.576 138.976 164.371 140.59Z" fill="#FFCEE3"/>
<path d="M317.84 171.23L287.927 14.8495C287.738 13.908 287.315 13.0262 286.697 12.2869C286.08 11.5475 285.288 10.9748 284.396 10.6224C283.505 10.2701 282.542 10.1497 281.6 10.2725C280.657 10.3954 279.765 10.7575 279.007 11.3248L166.867 95.7984C166.116 96.3719 165.525 97.1299 165.15 98.0015C164.775 98.8731 164.627 99.8299 164.721 100.782C164.815 101.735 165.148 102.652 165.688 103.448C166.228 104.243 166.958 104.892 167.809 105.333L309.862 177.24C310.8 177.713 311.847 177.917 312.885 177.829C313.922 177.741 314.91 177.364 315.738 176.741C316.566 176.117 317.201 175.271 317.572 174.298C317.943 173.325 318.036 172.263 317.84 171.23Z" fill="#FFCEE3"/>
<path d="M258.898 86.8835L251.358 90.5765C251.313 90.5992 251.274 90.633 251.245 90.6747C251.216 90.7164 251.198 90.7646 251.192 90.8148C251.187 90.8651 251.194 90.9157 251.213 90.962C251.232 91.0082 251.263 91.0486 251.303 91.0792L257.157 95.6107C257.196 95.641 257.243 95.6605 257.293 95.6675C257.342 95.6744 257.393 95.6687 257.44 95.6506C257.487 95.6326 257.529 95.603 257.562 95.5645C257.595 95.5259 257.618 95.4798 257.629 95.4304L259.314 87.2059C259.325 87.1515 259.321 87.0955 259.302 87.0439C259.283 86.9923 259.25 86.9473 259.207 86.9139C259.164 86.8804 259.112 86.8598 259.057 86.8545C259.003 86.8491 258.947 86.8592 258.898 86.8835Z" fill="#F8AEC8"/>
<path d="M340.456 178.198L326.72 174.839C326.637 174.82 326.551 174.822 326.468 174.844C326.386 174.867 326.31 174.909 326.249 174.968C326.187 175.028 326.142 175.101 326.117 175.181C326.092 175.262 326.089 175.348 326.106 175.43L328.789 187.606C328.807 187.688 328.847 187.764 328.903 187.826C328.96 187.889 329.032 187.936 329.112 187.964C329.192 187.991 329.279 187.998 329.363 187.984C329.447 187.97 329.527 187.935 329.594 187.882L340.647 179.064C340.719 179.005 340.775 178.928 340.806 178.841C340.837 178.754 340.843 178.661 340.823 178.571C340.803 178.481 340.759 178.398 340.694 178.332C340.629 178.266 340.546 178.22 340.456 178.198Z" fill="#F8AEC8"/>
<path d="M249.66 54.538L237.384 53.9304C237.31 53.9275 237.237 53.9431 237.17 53.976C237.103 54.0088 237.046 54.0578 237.003 54.1182C236.96 54.1787 236.934 54.2487 236.926 54.3216C236.918 54.3946 236.929 54.4681 236.957 54.5353L241.249 64.4871C241.278 64.5539 241.324 64.612 241.383 64.6561C241.442 64.7001 241.511 64.7286 241.584 64.7389C241.657 64.7492 241.732 64.741 241.801 64.715C241.871 64.689 241.933 64.6461 241.981 64.5903L249.965 55.246C250.018 55.1843 250.052 55.1095 250.065 55.03C250.077 54.9506 250.067 54.8696 250.035 54.7961C250.003 54.7227 249.951 54.6596 249.885 54.614C249.819 54.5685 249.741 54.5421 249.66 54.538Z" fill="white"/>
<path d="M268.993 300.428L259.405 303.122C259.347 303.138 259.294 303.17 259.252 303.212C259.209 303.254 259.177 303.307 259.16 303.364C259.143 303.422 259.141 303.482 259.153 303.54C259.166 303.598 259.193 303.652 259.233 303.696L265.092 310.238C265.132 310.281 265.182 310.314 265.239 310.333C265.295 310.352 265.355 310.356 265.414 310.345C265.473 310.334 265.528 310.308 265.575 310.271C265.622 310.233 265.658 310.184 265.681 310.128L269.41 300.893C269.434 300.832 269.441 300.766 269.43 300.702C269.419 300.638 269.391 300.578 269.347 300.53C269.304 300.481 269.248 300.446 269.186 300.428C269.123 300.41 269.056 300.41 268.993 300.428Z" fill="white"/>
<path d="M162.004 273.508L151.795 267.107C151.733 267.069 151.662 267.047 151.59 267.043C151.517 267.039 151.444 267.053 151.379 267.084C151.313 267.116 151.257 267.163 151.215 267.221C151.174 267.28 151.148 267.348 151.14 267.419L150.043 277.988C150.036 278.059 150.047 278.131 150.076 278.197C150.105 278.262 150.151 278.32 150.208 278.364C150.266 278.407 150.334 278.436 150.406 278.447C150.478 278.458 150.551 278.451 150.62 278.427L161.926 274.26C162 274.232 162.065 274.185 162.114 274.122C162.163 274.06 162.193 273.986 162.201 273.908C162.209 273.83 162.195 273.751 162.16 273.681C162.125 273.61 162.071 273.55 162.004 273.508Z" fill="#F8AEC8"/>
<path d="M98.9672 70.7436L92.4134 76.8911C92.347 76.9511 92.299 77.029 92.2748 77.1156C92.2506 77.2023 92.2512 77.2943 92.2766 77.3809C92.302 77.4676 92.3512 77.5453 92.4184 77.6052C92.4855 77.6651 92.568 77.7046 92.6563 77.7193L107.373 80.4358C107.471 80.4542 107.572 80.441 107.662 80.3981C107.752 80.3551 107.826 80.2846 107.873 80.1966C107.921 80.1085 107.939 80.0074 107.926 79.9077C107.914 79.808 107.87 79.7146 107.802 79.641L99.6381 70.7698C99.5518 70.677 99.4328 70.6221 99.3071 70.6172C99.1814 70.6123 99.0592 70.6577 98.9672 70.7436Z" fill="#F8AEC8"/>
<g filter="url(#filter0_d_1296_28599)">
<path d="M273.764 109.657V254.497C273.764 258.169 271.466 261.153 268.461 261.153H90.3023C87.2977 261.153 85 258.169 85 254.497V109.657C85 105.984 87.2977 103 90.3023 103H268.461C271.466 103 273.764 105.984 273.764 109.657Z" fill="white"/>
</g>
<path d="M97.0503 116.925C98.7467 116.925 100.122 115.551 100.122 113.856C100.122 112.161 98.7467 110.787 97.0503 110.787C95.3539 110.787 93.9785 112.161 93.9785 113.856C93.9785 115.551 95.3539 116.925 97.0503 116.925Z" fill="#E6ECF5"/>
<path d="M105.793 116.925C107.49 116.925 108.865 115.551 108.865 113.856C108.865 112.161 107.49 110.787 105.793 110.787C104.097 110.787 102.722 112.161 102.722 113.856C102.722 115.551 104.097 116.925 105.793 116.925Z" fill="#E6ECF5"/>
<path d="M114.773 116.925C116.469 116.925 117.845 115.551 117.845 113.856C117.845 112.161 116.469 110.787 114.773 110.787C113.076 110.787 111.701 112.161 111.701 113.856C111.701 115.551 113.076 116.925 114.773 116.925Z" fill="#E6ECF5"/>
<path d="M258.453 253.312H101.352C97.2747 253.312 93.917 250.007 93.917 245.994V131.974C93.917 127.96 97.2747 124.656 101.352 124.656H258.453C262.529 124.656 265.887 127.96 265.887 131.974V246.23C265.647 250.243 262.529 253.312 258.453 253.312Z" fill="#E6EDF5"/>
<rect x="141.05" y="210.004" width="110.825" height="2.54771" rx="1.27385" fill="#A0B3C9"/>
<rect x="157.61" y="206.182" width="2.54771" height="10.1908" rx="1.27385" fill="#6380A2"/>
<rect x="141.05" y="222.742" width="110.825" height="2.54771" rx="1.27385" fill="#A0B3C9"/>
<rect x="188.183" y="218.921" width="2.54771" height="10.1908" rx="1.27385" fill="#6380A2"/>
<rect x="141.05" y="236.755" width="110.825" height="2.54771" rx="1.27385" fill="#A0B3C9"/>
<rect x="172.896" y="232.933" width="2.54771" height="10.1908" rx="1.27385" fill="#6380A2"/>
<g filter="url(#filter1_d_1296_28599)">
<path d="M105.541 133.573H115.413C116.91 133.573 118.12 134.814 118.12 136.349V146.082C118.12 147.618 116.91 148.859 115.413 148.859H105.541C104.044 148.859 102.834 147.618 102.834 146.082V136.349C102.834 134.814 104.044 133.573 105.541 133.573Z" fill="#F8AEC8"/>
</g>
<path d="M106.465 144.286V137.558C106.465 137.512 106.484 137.486 106.529 137.486C106.637 137.486 106.739 137.486 106.885 137.479C107.038 137.473 107.197 137.473 107.369 137.466C107.541 137.46 107.726 137.46 107.923 137.453C108.121 137.447 108.312 137.447 108.503 137.447C109.025 137.447 109.458 137.512 109.815 137.649C110.134 137.76 110.427 137.943 110.669 138.185C110.872 138.394 111.032 138.649 111.134 138.929C111.229 139.204 111.28 139.485 111.28 139.779C111.28 140.34 111.153 140.804 110.898 141.17C110.643 141.536 110.286 141.81 109.872 141.967C109.439 142.13 108.962 142.189 108.439 142.189C108.286 142.189 108.185 142.189 108.121 142.183C108.057 142.176 107.968 142.176 107.847 142.176V144.273C107.853 144.319 107.821 144.358 107.777 144.365H107.751H106.541C106.49 144.365 106.465 144.338 106.465 144.28V144.286ZM107.853 138.753V140.948C107.943 140.955 108.025 140.961 108.102 140.961H108.439C108.688 140.961 108.936 140.922 109.172 140.843C109.376 140.785 109.554 140.661 109.694 140.497C109.828 140.334 109.892 140.112 109.892 139.824C109.898 139.622 109.847 139.419 109.745 139.243C109.637 139.073 109.484 138.942 109.299 138.871C109.064 138.773 108.809 138.733 108.548 138.74C108.382 138.74 108.236 138.74 108.114 138.747C107.987 138.74 107.898 138.747 107.853 138.753Z" fill="white"/>
<path d="M112.198 139.139H113.312C113.376 139.139 113.427 139.184 113.446 139.243C113.465 139.296 113.478 139.348 113.484 139.407C113.497 139.472 113.51 139.544 113.516 139.609C113.523 139.681 113.529 139.759 113.529 139.844C113.72 139.616 113.949 139.426 114.21 139.282C114.503 139.113 114.841 139.028 115.179 139.028C115.223 139.021 115.261 139.054 115.268 139.1V139.126V140.4C115.268 140.452 115.236 140.471 115.166 140.471C114.937 140.465 114.701 140.484 114.478 140.537C114.293 140.576 114.115 140.635 113.943 140.713C113.822 140.772 113.707 140.85 113.618 140.955V144.286C113.618 144.352 113.593 144.378 113.535 144.378H112.281C112.23 144.384 112.185 144.352 112.179 144.299V144.273V140.654C112.179 140.498 112.179 140.334 112.172 140.164C112.166 139.995 112.166 139.825 112.16 139.655C112.16 139.505 112.147 139.361 112.134 139.211C112.128 139.178 112.147 139.145 112.179 139.139C112.179 139.132 112.191 139.132 112.198 139.139Z" fill="white"/>
<rect x="141.05" y="133.573" width="114.647" height="64.9666" rx="4" fill="#C7D1DC"/>
<rect x="102.834" y="198.539" width="30.5725" height="45.8588" rx="2" fill="#C7D1DC"/>
<rect x="107.93" y="203.635" width="20.3817" height="2.54771" rx="1.27385" fill="#DFE8F2"/>
<rect x="107.93" y="210.004" width="20.3817" height="2.54771" rx="1.27385" fill="#DFE8F2"/>
<rect x="107.93" y="216.373" width="15.2863" height="2.54771" rx="1.27385" fill="#DFE8F2"/>
<rect x="107.93" y="235.481" width="15.2863" height="2.54771" rx="1.27385" fill="#DFE8F2"/>
<rect x="107.93" y="222.742" width="20.3817" height="2.54771" rx="1.27385" fill="#DFE8F2"/>
<rect x="107.93" y="229.112" width="20.3817" height="2.54771" rx="1.27385" fill="#DFE8F2"/>
<path d="M188.183 176.118V157.267C188.183 155.762 189.782 154.796 191.114 155.497L209.023 164.923C210.448 165.673 210.448 167.713 209.023 168.462L191.114 177.888C189.782 178.589 188.183 177.623 188.183 176.118Z" fill="white"/>
<rect x="102.834" y="155.228" width="29.2987" height="2.54771" rx="1.27385" fill="#D0DAE7"/>
<rect x="102.834" y="161.597" width="29.2987" height="2.54771" rx="1.27385" fill="#D0DAE7"/>
<rect x="102.834" y="167.967" width="24.2032" height="2.54771" rx="1.27385" fill="#D0DAE7"/>
<rect x="102.834" y="187.074" width="24.2032" height="2.54771" rx="1.27385" fill="#D0DAE7"/>
<rect x="102.834" y="174.336" width="29.2987" height="2.54771" rx="1.27385" fill="#D0DAE7"/>
<rect x="102.834" y="180.705" width="29.2987" height="2.54771" rx="1.27385" fill="#D0DAE7"/>
<defs>
<filter id="filter0_d_1296_28599" x="71" y="93" width="216.764" height="186.153" filterUnits="userSpaceOnUse" color-interpolation-filters="sRGB">
<feFlood flood-opacity="0" result="BackgroundImageFix"/>
<feColorMatrix in="SourceAlpha" type="matrix" values="0 0 0 0 0 0 0 0 0 0 0 0 0 0 0 0 0 0 127 0" result="hardAlpha"/>
<feOffset dy="4"/>
<feGaussianBlur stdDeviation="7"/>
<feColorMatrix type="matrix" values="0 0 0 0 0.833333 0 0 0 0 0.381944 0 0 0 0 0.542666 0 0 0 0.2 0"/>
<feBlend mode="normal" in2="BackgroundImageFix" result="effect1_dropShadow_1296_28599"/>
<feBlend mode="normal" in="SourceGraphic" in2="effect1_dropShadow_1296_28599" result="shape"/>
</filter>
<filter id="filter1_d_1296_28599" x="88.834" y="123.573" width="43.2861" height="43.2864" filterUnits="userSpaceOnUse" color-interpolation-filters="sRGB">
<feFlood flood-opacity="0" result="BackgroundImageFix"/>
<feColorMatrix in="SourceAlpha" type="matrix" values="0 0 0 0 0 0 0 0 0 0 0 0 0 0 0 0 0 0 127 0" result="hardAlpha"/>
<feOffset dy="4"/>
<feGaussianBlur stdDeviation="7"/>
<feColorMatrix type="matrix" values="0 0 0 0 0.833333 0 0 0 0 0.381944 0 0 0 0 0.542666 0 0 0 0.2 0"/>
<feBlend mode="normal" in2="BackgroundImageFix" result="effect1_dropShadow_1296_28599"/>
<feBlend mode="normal" in="SourceGraphic" in2="effect1_dropShadow_1296_28599" result="shape"/>
</filter>
</defs>
</svg>
