<svg width="435" height="465" viewBox="0 0 435 465" fill="none" xmlns="http://www.w3.org/2000/svg">
<g clip-path="url(#clip0_3737_51728)">
<path d="M0 0H419C427.837 0 435 7.16344 435 16V449C435 457.837 427.837 465 419 465H0V0Z" fill="#176EA5"/>
<mask id="mask0_3737_51728" style="mask-type:alpha" maskUnits="userSpaceOnUse" x="0" y="0" width="435" height="465">
<path d="M0 0H419C427.837 0 435 7.16344 435 16V449C435 457.837 427.837 465 419 465H0V0Z" fill="#176EA5"/>
</mask>
<g mask="url(#mask0_3737_51728)">
<path d="M45.9894 238.329L23.2347 415.336C22.9758 417.094 23.2229 418.892 23.9484 420.525C24.673 422.157 25.8466 423.557 27.3321 424.56C28.8175 425.563 30.5544 426.13 32.3423 426.196C34.1293 426.261 35.8947 425.821 37.433 424.928L297.482 280.161C299.217 279.203 300.599 277.721 301.431 275.929C302.265 274.136 302.506 272.123 302.12 270.176C301.734 268.228 300.74 266.446 299.284 265.082C297.825 263.719 295.976 262.844 294 262.581L56.6102 230.237C54.1112 229.909 51.5935 230.576 49.604 232.092C47.6145 233.607 46.3153 235.849 45.9894 238.329Z" fill="#1E73A9"/>
<path d="M105.448 461.013L15.6874 657.577C14.758 659.517 14.3993 661.685 14.653 663.834C14.9063 665.981 15.7619 668.02 17.1204 669.713C18.4786 671.406 20.2843 672.684 22.3285 673.401C24.3722 674.116 26.5714 674.241 28.6706 673.759L381.321 599.535C383.67 599.049 385.8 597.83 387.405 596.056C389.011 594.281 390.012 592.039 390.263 589.648C390.514 587.258 390.005 584.841 388.809 582.741C387.611 580.642 385.785 578.966 383.594 577.955L120.632 455.461C117.859 454.187 114.708 454.055 111.864 455.095C109.02 456.135 106.713 458.262 105.448 461.013Z" fill="#1E73A9"/>
<path d="M410.141 255.159L130.068 409.111C128.009 410.213 126.301 411.879 125.134 413.915C123.969 415.954 123.395 418.283 123.476 420.635C123.558 422.989 124.293 425.272 125.598 427.224C126.902 429.176 128.723 430.718 130.852 431.675L304.905 512.191C306.391 512.877 307.994 513.258 309.626 513.317C311.257 513.374 312.883 513.107 314.412 512.53C315.94 511.953 317.341 511.075 318.533 509.95C319.727 508.825 320.687 507.473 321.362 505.971L427.382 271.502C428.5 269.103 428.835 266.408 428.341 263.802C427.848 261.195 426.552 258.815 424.635 256.999C422.721 255.185 420.288 254.029 417.683 253.697C415.079 253.367 412.439 253.879 410.141 255.159Z" fill="#1E73A9"/>
<path d="M263.428 -18.5563L117.909 201.07C117.044 202.401 116.525 203.934 116.399 205.523C116.276 207.113 116.55 208.707 117.197 210.156C117.843 211.603 118.842 212.86 120.101 213.804C121.358 214.75 122.832 215.353 124.385 215.557L354.788 245.343C356.34 245.534 357.915 245.322 359.368 244.724C360.82 244.126 362.1 243.166 363.093 241.929C364.082 240.693 364.749 239.225 365.03 237.658C365.314 236.091 365.201 234.48 364.702 232.975L279.819 -16.4372C279.257 -18.0833 278.255 -19.5357 276.924 -20.6316C275.595 -21.7283 273.989 -22.4253 272.29 -22.6457C270.588 -22.8652 268.859 -22.599 267.294 -21.8773C265.728 -21.1545 264.389 -20.0045 263.428 -18.5563Z" fill="#1E73A9"/>
<g filter="url(#filter0_d_3737_51728)">
<path d="M83.8178 249C86.9499 249.68 88.2498 251.753 88.2842 254.823C88.2842 255.39 88.4941 255.96 88.4784 256.523C88.4314 258.243 89.1048 259.133 90.8839 259.656C93.0576 260.282 95.1186 261.347 97.1671 262.343C97.9438 262.722 98.4199 262.731 99.0839 262.149C100.13 261.209 101.251 260.36 102.379 259.524C104.659 257.836 106.786 257.936 108.838 259.912C111.086 262.08 113.304 264.298 115.462 266.543C117.379 268.545 117.476 270.631 115.847 272.873C114.779 274.345 112.941 275.692 112.74 277.236C112.54 278.781 113.993 280.525 114.682 282.188C114.923 282.762 115.252 283.347 115.309 283.946C115.484 286.007 116.74 286.552 118.563 286.555C119.603 286.589 120.64 286.694 121.667 286.868C124.076 287.203 125.645 288.556 125.776 291.015C125.98 294.597 125.98 298.188 125.776 301.771C125.629 304.327 124.079 305.576 121.495 305.893C119.997 306.074 118.485 306.206 117.012 306.497C116.727 306.575 116.46 306.711 116.228 306.895C115.996 307.079 115.804 307.308 115.663 307.568C114.579 309.924 113.57 312.312 112.637 314.732C112.55 314.996 112.52 315.276 112.547 315.553C112.575 315.831 112.66 316.099 112.797 316.342C113.702 317.67 114.773 318.888 115.747 320.175C117.539 322.531 117.448 324.639 115.406 326.753C113.267 328.954 111.096 331.126 108.891 333.271C106.761 335.344 104.716 335.464 102.335 333.678C101.042 332.71 99.7605 331.727 98.5421 330.671C97.8937 330.111 97.4145 330.101 96.6252 330.461C94.3137 331.511 91.9081 332.36 89.5903 333.399C89.2962 333.541 89.0336 333.74 88.8184 333.986C88.6031 334.231 88.4395 334.518 88.3374 334.828C88.086 336.155 87.929 337.499 87.8676 338.849C87.5544 342.561 85.9696 344.039 82.2673 344.043C79.4045 344.043 76.5386 344.043 73.6758 344.043C70.813 344.043 69.25 342.79 68.7614 339.889C68.4764 338.198 68.3386 336.485 68.1726 334.778C68.0849 333.866 67.7466 333.34 66.7882 332.995C64.6426 332.219 62.5472 331.295 60.4894 330.314C59.6406 329.91 59.0767 330.001 58.4002 330.584C57.1693 331.627 55.8945 332.623 54.6166 333.603C52.1891 335.451 50.1093 335.351 47.9325 333.237C45.7556 331.122 43.632 328.996 41.5209 326.834C39.4099 324.673 39.294 322.568 41.1263 320.147C42.1004 318.863 43.0933 317.585 44.1488 316.367C44.7753 315.64 44.8504 315.029 44.4245 314.137C43.513 312.22 42.6986 310.25 41.9563 308.257C41.6212 307.352 41.1388 306.92 40.1835 306.864C38.9901 306.795 37.8062 306.585 36.6129 306.519C34.1071 306.381 32.0587 305.579 31 303.099V290.576C31.9397 288.5 33.5433 287.397 35.8016 287.2C37.0545 287.09 38.2791 286.909 39.5226 286.846C40.6251 286.786 41.2422 286.433 41.6087 285.245C42.298 283.072 43.1352 280.949 44.1144 278.89C44.5779 277.891 44.5341 277.233 43.8012 276.428C42.802 275.304 41.8874 274.098 40.9822 272.886C39.3253 270.64 39.4161 268.582 41.3549 266.581C43.5579 264.284 45.8016 262.039 48.086 259.847C50.053 257.952 52.2204 257.851 54.4161 259.48C55.5437 260.317 56.6587 261.175 57.7049 262.111C58.4722 262.794 59.1018 262.866 60.0446 262.365C61.7798 261.425 63.5464 260.395 65.4288 259.972C68.0974 259.374 68.9243 257.933 68.9055 255.368C68.8836 252.236 69.936 249.655 73.5004 249H83.8178ZM95.5133 296.18C95.5034 293.952 95.0543 291.748 94.1916 289.694C93.329 287.64 92.0696 285.777 90.4858 284.21C88.902 282.643 87.0247 281.404 84.9615 280.564C82.8982 279.724 80.6895 279.299 78.4618 279.313C69.344 279.363 61.736 287.034 61.7078 296.205C61.6827 305.507 69.3659 313.147 78.7217 313.119C83.1945 313.099 87.4763 311.303 90.6252 308.126C93.7742 304.95 95.5324 300.653 95.5133 296.18Z" fill="#115582"/>
<path d="M181.893 312.893C180.913 314.6 180.145 316.107 179.209 317.497C178.614 318.387 178.535 319.038 179.118 320.003C180.025 321.518 180.824 323.095 181.508 324.723C181.877 325.572 182.341 325.929 183.249 325.885C184.189 325.853 185.13 325.87 186.068 325.938C188.408 326.083 190.074 327.458 190.375 329.697C190.688 332.068 190.911 334.458 191.001 336.848C191.108 339.335 189.94 341.173 187.503 341.455C184.255 341.828 183.018 343.35 182.072 346.467C181.204 349.314 181.317 351.027 183.531 353C185.746 354.974 185.655 357.232 183.791 359.515C182.538 361.047 181.263 362.563 179.954 364.048C177.99 366.278 175.757 366.801 173.502 364.968C171.034 362.964 169.198 363.286 166.414 364.633C163.46 366.062 162.342 367.609 162.533 370.757C162.693 373.403 160.995 375.013 158.386 375.295C156.422 375.505 154.452 375.699 152.482 375.862C149.297 376.125 147.395 374.922 146.963 371.743C146.55 368.715 145.3 367.311 142.23 366.419C139.524 365.626 137.905 365.686 135.988 367.809C133.608 370.45 131.506 370.356 128.762 368.082C127.359 366.917 125.962 365.745 124.584 364.552C122.338 362.604 121.837 360.414 123.644 358.093C125.523 355.657 125.787 353.787 124.142 350.889C122.755 348.446 121.458 347.61 118.817 347.738C115.372 347.904 113.709 346.132 113.512 342.649C113.415 340.882 113.236 339.119 113.076 337.358C112.832 334.64 114.016 332.56 116.694 332.234C119.917 331.839 121.242 330.436 122.094 327.245C122.827 324.501 122.855 322.8 120.665 320.846C118.291 318.728 118.388 316.576 120.387 314.105C121.64 312.567 122.892 311.042 124.192 309.548C126.025 307.434 128.355 306.923 130.544 308.68C132.853 310.534 134.716 310.666 137.022 308.774C138.193 307.835 140.267 307.741 141.075 306.635C141.826 305.604 141.357 303.728 141.582 302.25C141.936 299.96 143.23 298.707 145.466 298.438C147.633 298.178 149.813 297.953 151.993 297.834C154.938 297.671 156.867 298.983 157.149 301.852C157.425 304.64 158.79 305.498 161.308 306.372C164.494 307.481 166.83 307.791 169.264 304.969C170.658 303.356 172.838 303.656 174.658 305.085C176.449 306.43 178.155 307.885 179.766 309.441C180.678 310.312 181.135 311.609 181.893 312.893ZM138.472 336.356C138.4 343.842 144.37 350.21 151.539 350.294C159.83 350.391 165.966 344.459 166.026 336.287C166.079 329.215 159.824 322.819 152.805 322.756C144.658 322.684 138.544 328.485 138.472 336.356Z" fill="#115582"/>
<path d="M93.2087 407.541C92.5823 407.541 91.9559 407.582 91.3294 407.541C88.7736 407.356 87.1355 405.881 86.9945 403.316C86.888 401.311 86.2115 400.296 84.2069 399.404C81.8421 398.354 80.2197 398.185 78.1806 399.967C76.5331 401.405 74.6131 401.111 72.9248 399.654C71.7048 398.601 70.5744 397.449 69.5452 396.209C67.9791 394.301 68.0292 392.215 69.9085 390.148C71.1614 388.757 71.1395 387.702 70.5037 385.938C69.6267 383.492 68.4928 382.224 65.8054 382.095C63.8697 382.004 62.5949 380.529 62.3945 378.581C62.2076 376.77 62.218 374.943 62.4258 373.134C62.6889 370.942 63.9919 369.767 66.1844 369.375C66.6345 369.241 67.1021 369.173 67.572 369.175C68.9846 369.354 69.5139 368.549 69.7645 367.365C69.7809 367.209 69.8233 367.058 69.8898 366.917C71.4308 364.492 71.6908 362.262 69.5264 359.898C68.9 359.23 68.7778 357.251 69.3103 356.587C70.9672 354.526 72.8622 352.534 75.0265 351.046C76.7179 349.884 78.5596 351.077 79.9252 352.374C80.8398 353.242 81.5822 353.295 82.6596 352.687C83.7994 352.066 85.0084 351.582 86.2616 351.243C87.3547 350.949 87.7243 350.323 87.8684 349.295C88.4259 345.383 89.7039 344.309 93.6159 344.353C94.3959 344.353 95.182 344.353 95.9588 344.371C99.091 344.406 100.858 345.972 100.97 349.095C101.02 350.485 101.506 351.218 102.815 351.5C103.124 351.55 103.421 351.657 103.692 351.813C105.991 353.323 108.077 353.624 110.448 351.632C111.732 350.551 113.58 351.04 114.899 352.221C116.154 353.316 117.324 354.505 118.398 355.779C119.964 357.677 119.876 359.688 118.084 361.73C117.048 362.908 117.029 363.8 117.552 365.291C118.492 367.988 119.566 369.946 122.877 370.143C124.59 370.246 125.454 372.022 125.586 373.729C125.731 375.336 125.717 376.952 125.545 378.556C125.232 381.237 123.666 382.662 120.794 382.734C119.228 382.775 118.514 383.361 118.235 384.764C118.228 384.816 118.214 384.867 118.191 384.914C116.662 387.392 116.146 389.691 118.463 392.171C119.519 393.296 119.256 395.109 118.172 396.359C116.929 397.826 115.558 399.179 114.075 400.403C112.346 401.793 110.317 401.656 108.415 399.892C106.987 398.555 105.891 398.815 104.203 399.357C101.49 400.23 99.8176 401.389 99.661 404.531C99.5764 406.282 98.0448 407.35 96.178 407.544C95.1977 407.641 94.2079 407.657 93.2244 407.71L93.2087 407.541ZM94.0764 386.925C100.278 386.897 105.377 381.867 105.38 375.771C105.383 369.676 100.294 364.496 94.1891 364.455C91.2094 364.44 88.3458 365.609 86.2282 367.706C84.1106 369.802 82.9126 372.654 82.8976 375.634C82.8827 378.613 84.0521 381.477 86.1485 383.594C88.2449 385.712 91.0966 386.91 94.0764 386.925Z" fill="#115582"/>
</g>
<g filter="url(#filter1_d_3737_51728)">
<rect x="268" y="86" width="106.371" height="100.773" rx="22" fill="#1D71A6"/>
<path d="M363.987 186.773H278.39C278.243 186.691 278.088 186.626 277.927 186.577C273.312 185.639 270.225 182.9 268.624 178.456C268.366 177.747 268.208 177.003 268 176.275V96.4959C268.081 96.348 268.146 96.1913 268.194 96.0289C269.253 90.2139 274.118 86.0168 279.94 86.0126C307.431 85.9958 334.921 85.9958 362.411 86.0126C363.981 86.0101 365.536 86.3208 366.987 86.927C368.438 87.5331 369.756 88.4227 370.866 89.5447C371.976 90.6668 372.856 91.9993 373.456 93.4658C374.055 94.9323 374.363 96.5039 374.36 98.0906C374.379 123.63 374.374 149.169 374.343 174.709C374.343 179.702 371.893 183.35 367.486 185.576C366.395 186.127 365.157 186.381 363.987 186.773ZM322.038 175.486C333.909 175.486 345.779 175.486 357.65 175.486C358.24 175.486 358.831 175.5 359.416 175.442C361.549 175.231 362.461 173.582 361.537 171.625C361.306 171.156 361.037 170.707 360.733 170.283C356.709 164.469 352.681 158.659 348.649 152.851C346.36 149.565 343.374 149.325 340.556 152.18C339.063 153.69 337.598 155.226 336.089 156.718C334.632 158.165 332.91 158.781 330.885 158.1C329.536 157.647 328.657 156.627 327.827 155.531C321.486 147.141 315.14 138.755 308.788 130.374C306.275 127.058 303.792 127.273 301.937 130.992C295.488 143.889 289.045 156.792 282.609 169.702C282.283 170.355 282.031 171.042 281.858 171.751C281.481 173.329 282.238 174.752 283.771 175.208C284.57 175.416 285.395 175.509 286.221 175.486C298.153 175.493 310.092 175.493 322.038 175.486ZM336.792 127.576C343.158 127.576 348.427 122.249 348.414 115.819C348.402 109.424 343.21 104.173 336.849 104.105C330.514 104.038 325.21 109.365 325.179 115.811C325.141 122.223 330.416 127.569 336.786 127.571L336.792 127.576Z" fill="#115582"/>
</g>
</g>
<g filter="url(#filter2_d_3737_51728)">
<g filter="url(#filter3_d_3737_51728)">
<path fill-rule="evenodd" clip-rule="evenodd" d="M127 152C127 146.477 131.477 142 137 142L298 142C303.523 142 308 146.477 308 152L308 227.985L297 243.167L297 237C297 235.896 296.105 235 295 235L277 235C275.896 235 275 235.896 275 237L275 255C275 256.105 275.896 257 277 257L286.977 257L283.355 262L277 262C275.896 262 275 262.896 275 264L275 273.53L239.157 323L137 323C131.477 323 127 318.523 127 313L127 152ZM284.563 323L298 323C303.523 323 308 318.523 308 313L308 290.653L284.563 323ZM139 156C139 154.896 139.896 154 141 154L159 154C160.105 154 161 154.896 161 156L161 174C161 175.105 160.105 176 159 176L141 176C139.896 176 139 175.105 139 174L139 156ZM141 181C139.896 181 139 181.896 139 183L139 201C139 202.105 139.896 203 141 203L159 203C160.105 203 161 202.105 161 201L161 183C161 181.896 160.105 181 159 181L141 181ZM139 210C139 208.896 139.896 208 141 208L159 208C160.105 208 161 208.896 161 210L161 228C161 229.105 160.105 230 159 230L141 230C139.896 230 139 229.105 139 228L139 210ZM141 235C139.896 235 139 235.896 139 237L139 255C139 256.105 139.896 257 141 257L159 257C160.105 257 161 256.105 161 255L161 237C161 235.896 160.105 235 159 235L141 235ZM139 264C139 262.896 139.896 262 141 262L159 262C160.105 262 161 262.896 161 264L161 282C161 283.105 160.105 284 159 284L141 284C139.896 284 139 283.105 139 282L139 264ZM141 289C139.896 289 139 289.896 139 291L139 309C139 310.105 139.896 311 141 311L159 311C160.105 311 161 310.105 161 309L161 291C161 289.896 160.105 289 159 289L141 289ZM275 156C275 154.896 275.896 154 277 154L295 154C296.105 154 297 154.896 297 156L297 174C297 175.105 296.105 176 295 176L277 176C275.896 176 275 175.105 275 174L275 156ZM277 181C275.896 181 275 181.896 275 183L275 201C275 202.105 275.896 203 277 203L295 203C296.105 203 297 202.105 297 201L297 183C297 181.896 296.105 181 295 181L277 181ZM275 210C275 208.896 275.896 208 277 208L295 208C296.105 208 297 208.896 297 210L297 228C297 229.105 296.105 230 295 230L277 230C275.896 230 275 229.105 275 228L275 210Z" fill="white"/>
</g>
<rect x="275" y="154" width="22" height="22" rx="2" fill="#176EA5"/>
<rect x="139" y="289" width="22" height="22" rx="2" fill="#176EA5"/>
<path d="M235.009 356.551L240.85 330.79C241.157 329.435 242.719 328.798 243.886 329.552L262.244 341.41C263.502 342.223 263.454 344.079 262.155 344.824L237.956 358.727C236.445 359.596 234.623 358.25 235.009 356.551Z" fill="white"/>
<rect x="245.986" y="321.75" width="128" height="26.9924" rx="3" transform="rotate(-54.0745 245.986 321.75)" fill="white"/>
<rect x="308.9" y="234.918" width="5.04617" height="26.9924" transform="rotate(-54.0745 308.9 234.918)" fill="#176EA5"/>
<rect x="172" y="187" width="91" height="91" rx="8" fill="#9AB9DB"/>
<path d="M201 253.689V213.124C201 210.002 204.417 208.083 207.082 209.709L239.535 229.497C242.059 231.036 242.099 234.687 239.609 236.281L207.157 257.058C204.494 258.763 201 256.851 201 253.689Z" fill="white"/>
</g>
</g>
<defs>
<filter id="filter0_d_3737_51728" x="7" y="229" width="208.008" height="206.71" filterUnits="userSpaceOnUse" color-interpolation-filters="sRGB">
<feFlood flood-opacity="0" result="BackgroundImageFix"/>
<feColorMatrix in="SourceAlpha" type="matrix" values="0 0 0 0 0 0 0 0 0 0 0 0 0 0 0 0 0 0 127 0" result="hardAlpha"/>
<feOffset dy="4"/>
<feGaussianBlur stdDeviation="12"/>
<feComposite in2="hardAlpha" operator="out"/>
<feColorMatrix type="matrix" values="0 0 0 0 0.0211979 0 0 0 0 0.291573 0 0 0 0 0.4625 0 0 0 0.25 0"/>
<feBlend mode="normal" in2="BackgroundImageFix" result="effect1_dropShadow_3737_51728"/>
<feBlend mode="normal" in="SourceGraphic" in2="effect1_dropShadow_3737_51728" result="shape"/>
</filter>
<filter id="filter1_d_3737_51728" x="244" y="66" width="154.371" height="148.773" filterUnits="userSpaceOnUse" color-interpolation-filters="sRGB">
<feFlood flood-opacity="0" result="BackgroundImageFix"/>
<feColorMatrix in="SourceAlpha" type="matrix" values="0 0 0 0 0 0 0 0 0 0 0 0 0 0 0 0 0 0 127 0" result="hardAlpha"/>
<feOffset dy="4"/>
<feGaussianBlur stdDeviation="12"/>
<feComposite in2="hardAlpha" operator="out"/>
<feColorMatrix type="matrix" values="0 0 0 0 0.0211979 0 0 0 0 0.291573 0 0 0 0 0.4625 0 0 0 0.25 0"/>
<feBlend mode="normal" in2="BackgroundImageFix" result="effect1_dropShadow_3737_51728"/>
<feBlend mode="normal" in="SourceGraphic" in2="effect1_dropShadow_3737_51728" result="shape"/>
</filter>
<filter id="filter2_d_3737_51728" x="103" y="122" width="262.756" height="264.999" filterUnits="userSpaceOnUse" color-interpolation-filters="sRGB">
<feFlood flood-opacity="0" result="BackgroundImageFix"/>
<feColorMatrix in="SourceAlpha" type="matrix" values="0 0 0 0 0 0 0 0 0 0 0 0 0 0 0 0 0 0 127 0" result="hardAlpha"/>
<feOffset dy="4"/>
<feGaussianBlur stdDeviation="12"/>
<feComposite in2="hardAlpha" operator="out"/>
<feColorMatrix type="matrix" values="0 0 0 0 0.0211979 0 0 0 0 0.291573 0 0 0 0 0.4625 0 0 0 0.25 0"/>
<feBlend mode="normal" in2="BackgroundImageFix" result="effect1_dropShadow_3737_51728"/>
<feBlend mode="normal" in="SourceGraphic" in2="effect1_dropShadow_3737_51728" result="shape"/>
</filter>
<filter id="filter3_d_3737_51728" x="103" y="122" width="229" height="229" filterUnits="userSpaceOnUse" color-interpolation-filters="sRGB">
<feFlood flood-opacity="0" result="BackgroundImageFix"/>
<feColorMatrix in="SourceAlpha" type="matrix" values="0 0 0 0 0 0 0 0 0 0 0 0 0 0 0 0 0 0 127 0" result="hardAlpha"/>
<feOffset dy="4"/>
<feGaussianBlur stdDeviation="12"/>
<feComposite in2="hardAlpha" operator="out"/>
<feColorMatrix type="matrix" values="0 0 0 0 0.0211979 0 0 0 0 0.291573 0 0 0 0 0.4625 0 0 0 0.25 0"/>
<feBlend mode="normal" in2="BackgroundImageFix" result="effect1_dropShadow_3737_51728"/>
<feBlend mode="normal" in="SourceGraphic" in2="effect1_dropShadow_3737_51728" result="shape"/>
</filter>
<clipPath id="clip0_3737_51728">
<rect width="435" height="465" fill="white"/>
</clipPath>
</defs>
</svg>
