<svg width="360" height="360" viewBox="0 0 360 360" fill="none" xmlns="http://www.w3.org/2000/svg">
<path d="M106.157 100.267L41.9318 207.498C41.273 208.553 40.9269 209.778 40.9337 211.03C40.9405 212.282 41.2999 213.51 41.9703 214.572C42.6407 215.634 43.5946 216.487 44.7218 217.031C45.8489 217.576 47.1032 217.79 48.3394 217.65L255.574 197.86C256.954 197.733 258.255 197.172 259.291 196.255C260.328 195.338 261.046 194.113 261.345 192.755C261.644 191.396 261.508 189.973 260.957 188.687C260.405 187.402 259.466 186.32 258.272 185.595L115.232 98.0587C113.723 97.1456 111.923 96.8652 110.223 97.2787C108.523 97.6922 107.061 98.766 106.157 100.267Z" fill="#FDD2BE"/>
<path d="M128.564 245.791L296.286 344.365C297.5 345.098 298.977 345.472 300.547 345.444C302.118 345.415 303.719 344.985 305.169 344.203C306.618 343.421 307.856 342.32 308.742 341.022C309.628 339.724 310.126 338.285 310.18 336.868L316.009 220.273C316.057 219.279 315.886 218.317 315.506 217.443C315.125 216.569 314.543 215.8 313.791 215.18C313.04 214.559 312.135 214.1 311.127 213.828C310.119 213.555 309.029 213.476 307.919 213.593L134.368 231.613C132.584 231.781 130.814 232.452 129.313 233.529C127.811 234.606 126.655 236.034 126.011 237.609C125.366 239.184 125.266 240.824 125.724 242.294C126.183 243.764 127.177 244.988 128.564 245.791Z" fill="#FDD2BE"/>
<path d="M299.393 22.3104L177.979 101.42C177.251 101.904 176.654 102.565 176.244 103.34C175.834 104.116 175.625 104.979 175.636 105.852C175.646 106.725 175.877 107.577 176.305 108.328C176.733 109.08 177.346 109.707 178.085 110.149L287.903 175.488C288.645 175.923 289.487 176.158 290.351 176.174C291.214 176.191 292.071 175.984 292.841 175.576C293.611 175.169 294.268 174.572 294.753 173.843C295.237 173.114 295.532 172.277 295.609 171.408L307.206 26.9587C307.281 26.0049 307.092 25.0528 306.66 24.209C306.228 23.3652 305.57 22.6628 304.759 22.1805C303.949 21.6982 303.017 21.4549 302.07 21.4778C301.122 21.5007 300.195 21.789 299.393 22.3104Z" fill="#FDD2BE"/>
<path d="M288.537 190.715L280.055 194.87C280.004 194.896 279.96 194.934 279.928 194.981C279.895 195.027 279.875 195.082 279.868 195.138C279.862 195.195 279.87 195.252 279.892 195.304C279.914 195.356 279.949 195.401 279.993 195.436L286.579 200.534C286.623 200.568 286.676 200.59 286.732 200.597C286.787 200.605 286.845 200.599 286.898 200.579C286.951 200.558 286.998 200.525 287.035 200.482C287.072 200.438 287.098 200.386 287.11 200.331L289.006 191.078C289.018 191.017 289.014 190.954 288.992 190.896C288.971 190.838 288.934 190.787 288.885 190.75C288.837 190.712 288.778 190.689 288.717 190.683C288.655 190.677 288.593 190.688 288.537 190.715Z" fill="#FFB694"/>
<path d="M127.993 32.9716L112.541 29.1937C112.448 29.1718 112.35 29.1736 112.257 29.199C112.164 29.2244 112.079 29.2726 112.01 29.339C111.941 29.4053 111.89 29.4878 111.862 29.5785C111.834 29.6693 111.83 29.7654 111.85 29.8578L114.868 43.5565C114.889 43.6486 114.933 43.7338 114.997 43.8041C115.06 43.8744 115.141 43.9275 115.232 43.9585C115.322 43.9895 115.419 43.9974 115.514 43.9814C115.609 43.9654 115.698 43.926 115.773 43.867L128.208 33.9462C128.29 33.8806 128.352 33.7939 128.387 33.696C128.422 33.598 128.429 33.4926 128.407 33.3914C128.384 33.2903 128.334 33.1975 128.261 33.1233C128.188 33.0492 128.095 32.9967 127.993 32.9716Z" fill="#FFB694"/>
<path d="M263.133 76.7047L244.632 75.7889C244.52 75.7844 244.409 75.8081 244.308 75.8576C244.208 75.9071 244.121 75.9809 244.057 76.072C243.993 76.1631 243.952 76.2686 243.94 76.3785C243.928 76.4885 243.945 76.5993 243.988 76.7005L250.457 91.7C250.501 91.8007 250.57 91.8883 250.659 91.9547C250.747 92.021 250.851 92.064 250.961 92.0795C251.071 92.0951 251.184 92.0827 251.289 92.0435C251.394 92.0043 251.487 91.9397 251.56 91.8555L263.594 77.7718C263.673 77.6787 263.725 77.566 263.743 77.4463C263.762 77.3265 263.746 77.2044 263.699 77.0937C263.651 76.983 263.573 76.888 263.473 76.8193C263.373 76.7506 263.256 76.7109 263.133 76.7047Z" fill="white"/>
<path d="M298.471 235.151L287.685 238.182C287.62 238.201 287.56 238.235 287.512 238.283C287.464 238.331 287.429 238.39 287.409 238.454C287.39 238.519 287.387 238.587 287.401 238.653C287.416 238.718 287.446 238.778 287.491 238.828L294.083 246.187C294.127 246.236 294.184 246.273 294.247 246.294C294.311 246.315 294.379 246.32 294.445 246.308C294.511 246.296 294.574 246.267 294.626 246.224C294.679 246.181 294.72 246.126 294.746 246.064L298.94 235.675C298.968 235.606 298.976 235.532 298.963 235.459C298.951 235.387 298.919 235.32 298.87 235.266C298.821 235.211 298.758 235.172 298.688 235.152C298.617 235.132 298.542 235.131 298.471 235.151Z" fill="white"/>
<path d="M65.3147 125.546L55.2414 126.395C55.141 126.402 55.0443 126.437 54.9624 126.496C54.8806 126.556 54.8169 126.638 54.7789 126.732C54.7408 126.826 54.7299 126.929 54.7474 127.029C54.7649 127.128 54.8101 127.221 54.8777 127.295L65.9664 139.965C66.0399 140.049 66.1383 140.108 66.2474 140.133C66.3565 140.158 66.4709 140.147 66.5742 140.102C66.6775 140.058 66.7645 139.982 66.8228 139.885C66.8812 139.788 66.9078 139.675 66.899 139.562L65.8883 126.037C65.877 125.895 65.8103 125.764 65.7029 125.672C65.5954 125.579 65.4559 125.534 65.3147 125.546Z" fill="#FFB694"/>
<g filter="url(#filter0_d_1332_27081)">
<path d="M118.238 75.9995H168.685C176.333 75.9995 182.517 82.3418 182.517 90.1863V139.924C182.517 147.769 176.333 154.11 168.685 154.11H118.238C110.59 154.11 104.406 147.769 104.406 139.924V90.1863C104.406 82.3418 110.59 75.9995 118.238 75.9995Z" fill="#F99E74"/>
</g>
<path fill-rule="evenodd" clip-rule="evenodd" d="M154.547 95.0287C154.547 95.0287 147.245 93.8976 143.51 95.8872C139.775 97.8768 139.311 101.621 139.294 103.736C139.276 105.851 139.294 109.745 139.294 109.745H132.845V117.052H139.286V135.868H146.917V117.052H153.183L154.175 109.745H146.917V104.717C146.917 101.338 150.207 101.528 150.207 101.528H154.547V95.0287Z" fill="white"/>
<g filter="url(#filter1_d_1332_27081)">
<path d="M216.355 130.71H274.876C283.749 130.71 290.922 138.067 290.922 147.167V204.865C290.922 213.965 283.749 221.323 274.876 221.323H216.355C207.483 221.323 200.309 213.965 200.309 204.865V147.167C200.309 138.067 207.483 130.71 216.355 130.71Z" fill="#F99E74"/>
</g>
<path d="M269.258 164.967C266.707 164.967 264.354 164.122 262.463 162.696C260.296 161.062 258.738 158.664 258.188 155.9C258.052 155.218 257.979 154.514 257.972 153.792H250.684V173.704L250.676 184.611C250.676 187.526 248.777 189.999 246.144 190.869C245.38 191.121 244.555 191.24 243.696 191.193C242.6 191.133 241.572 190.802 240.679 190.268C238.778 189.131 237.49 187.069 237.455 184.71C237.4 181.024 240.381 178.017 244.065 178.017C244.792 178.017 245.49 178.136 246.144 178.352V172.909V170.954C245.455 170.851 244.753 170.797 244.043 170.797C240.01 170.797 236.239 172.473 233.543 175.493C231.505 177.775 230.283 180.688 230.094 183.74C229.847 187.751 231.315 191.563 234.161 194.376C234.579 194.789 235.018 195.173 235.477 195.526C237.918 197.404 240.901 198.422 244.043 198.422C244.753 198.422 245.455 198.37 246.144 198.268C249.08 197.833 251.788 196.489 253.925 194.376C256.551 191.781 258.002 188.335 258.018 184.667L257.98 168.381C259.233 169.347 260.603 170.146 262.073 170.767C264.36 171.731 266.784 172.22 269.279 172.219V166.928V164.965C269.281 164.967 269.26 164.967 269.258 164.967Z" fill="white"/>
<g filter="url(#filter2_d_1332_27081)">
<path d="M111.922 221.322H189.214C200.932 221.322 210.407 231.04 210.407 243.059V319.263C210.407 331.282 200.932 341 189.214 341H111.922C100.204 341 90.7305 331.282 90.7305 319.263V243.059C90.7305 231.04 100.204 221.322 111.922 221.322Z" fill="#F99E74"/>
</g>
<path d="M120.648 264.352V298.825C120.648 305.594 126.135 311.081 132.903 311.081H167.376C174.145 311.081 179.632 305.594 179.632 298.825V264.352C179.632 257.584 174.145 252.097 167.376 252.097H132.903C126.135 252.097 120.648 257.584 120.648 264.352ZM156.388 298.301C141.84 303.321 128.408 289.889 133.428 275.341C135.119 270.437 138.988 266.568 143.892 264.876C158.44 259.857 171.872 273.288 166.852 287.837C165.161 292.74 161.292 296.61 156.388 298.301ZM170.607 263.753C170.375 264.965 169.372 265.67 168.335 265.67C167.703 265.67 167.06 265.41 166.567 264.844C166.523 264.794 166.483 264.741 166.447 264.685C165.938 263.907 165.922 262.983 166.354 262.234C166.66 261.704 167.154 261.325 167.746 261.167C168.337 261.008 168.954 261.089 169.484 261.396C170.233 261.828 170.681 262.636 170.63 263.563C170.627 263.626 170.619 263.69 170.607 263.753Z" fill="white"/>
<path d="M150.556 267.051C142.768 267.051 136.433 273.572 136.433 281.589C136.433 289.606 142.768 296.127 150.556 296.127C158.344 296.127 164.679 289.606 164.679 281.589C164.679 273.572 158.344 267.051 150.556 267.051Z" fill="white"/>
<path d="M108.189 203.45L120.676 198.638C120.751 198.609 120.813 198.56 120.857 198.496C120.9 198.432 120.923 198.355 120.924 198.273C120.925 198.191 120.904 198.106 120.863 198.027C120.821 197.947 120.761 197.875 120.687 197.818L109.728 189.335C109.654 189.278 109.569 189.238 109.482 189.218C109.394 189.198 109.307 189.199 109.228 189.22C109.149 189.242 109.081 189.284 109.03 189.342C108.979 189.4 108.947 189.472 108.937 189.552L107.41 202.846C107.4 202.934 107.416 203.028 107.458 203.116C107.5 203.204 107.565 203.284 107.645 203.347C107.726 203.41 107.82 203.452 107.916 203.471C108.012 203.489 108.107 203.482 108.189 203.45Z" fill="white"/>
<path d="M78.2365 311.32L66.7519 304.119C66.6822 304.076 66.6027 304.051 66.5208 304.047C66.4389 304.043 66.3573 304.059 66.2836 304.094C66.2099 304.129 66.1466 304.182 66.0996 304.248C66.0526 304.314 66.0235 304.391 66.0149 304.471L64.7805 316.36C64.7727 316.44 64.7857 316.521 64.8183 316.595C64.8509 316.669 64.902 316.734 64.9669 316.783C65.0317 316.832 65.1082 316.865 65.1891 316.877C65.27 316.89 65.3528 316.882 65.4296 316.854L78.1487 312.166C78.2327 312.135 78.3061 312.082 78.3607 312.012C78.4154 311.942 78.4492 311.858 78.4583 311.771C78.4674 311.683 78.4515 311.594 78.4124 311.515C78.3732 311.435 78.3123 311.368 78.2365 311.32Z" fill="#FFB694"/>
<defs>
<filter id="filter0_d_1332_27081" x="90.4062" y="65.9995" width="106.111" height="106.111" filterUnits="userSpaceOnUse" color-interpolation-filters="sRGB">
<feFlood flood-opacity="0" result="BackgroundImageFix"/>
<feColorMatrix in="SourceAlpha" type="matrix" values="0 0 0 0 0 0 0 0 0 0 0 0 0 0 0 0 0 0 127 0" result="hardAlpha"/>
<feOffset dy="4"/>
<feGaussianBlur stdDeviation="7"/>
<feColorMatrix type="matrix" values="0 0 0 0 0.833333 0 0 0 0 0.381944 0 0 0 0 0.542666 0 0 0 0.2 0"/>
<feBlend mode="normal" in2="BackgroundImageFix" result="effect1_dropShadow_1332_27081"/>
<feBlend mode="normal" in="SourceGraphic" in2="effect1_dropShadow_1332_27081" result="shape"/>
</filter>
<filter id="filter1_d_1332_27081" x="186.309" y="120.71" width="118.613" height="118.613" filterUnits="userSpaceOnUse" color-interpolation-filters="sRGB">
<feFlood flood-opacity="0" result="BackgroundImageFix"/>
<feColorMatrix in="SourceAlpha" type="matrix" values="0 0 0 0 0 0 0 0 0 0 0 0 0 0 0 0 0 0 127 0" result="hardAlpha"/>
<feOffset dy="4"/>
<feGaussianBlur stdDeviation="7"/>
<feColorMatrix type="matrix" values="0 0 0 0 0.833333 0 0 0 0 0.381944 0 0 0 0 0.542666 0 0 0 0.2 0"/>
<feBlend mode="normal" in2="BackgroundImageFix" result="effect1_dropShadow_1332_27081"/>
<feBlend mode="normal" in="SourceGraphic" in2="effect1_dropShadow_1332_27081" result="shape"/>
</filter>
<filter id="filter2_d_1332_27081" x="76.7305" y="211.322" width="147.677" height="147.678" filterUnits="userSpaceOnUse" color-interpolation-filters="sRGB">
<feFlood flood-opacity="0" result="BackgroundImageFix"/>
<feColorMatrix in="SourceAlpha" type="matrix" values="0 0 0 0 0 0 0 0 0 0 0 0 0 0 0 0 0 0 127 0" result="hardAlpha"/>
<feOffset dy="4"/>
<feGaussianBlur stdDeviation="7"/>
<feColorMatrix type="matrix" values="0 0 0 0 0.833333 0 0 0 0 0.381944 0 0 0 0 0.542666 0 0 0 0.2 0"/>
<feBlend mode="normal" in2="BackgroundImageFix" result="effect1_dropShadow_1332_27081"/>
<feBlend mode="normal" in="SourceGraphic" in2="effect1_dropShadow_1332_27081" result="shape"/>
</filter>
</defs>
</svg>
