<svg width="90" height="16" viewBox="0 0 90 16" fill="none" xmlns="http://www.w3.org/2000/svg">
<path d="M0.0273438 10.16C0.0273438 9.36 0.512154 8.8 1.23937 8.8C1.88578 8.76 2.4514 9.28 2.4918 9.92C2.4918 10.16 2.4514 10.4 2.3302 10.6C2.85541 10.92 3.50182 11.12 4.14824 11.08C5.40067 11.08 6.20868 10.52 6.20868 9.56C6.20868 8.64 5.23906 8.2 4.10783 7.8C1.96659 7.04 0.471756 6.36 0.471756 4.28C0.471756 2.48 1.96659 1.08 4.26944 1.08C6.41068 1.08 8.06712 2.16 8.06712 3.52C8.06712 4.32 7.54191 4.8 6.8955 4.8C6.24908 4.84 5.68347 4.36 5.64307 3.68V3.64C5.64307 3.44 5.68347 3.28 5.76428 3.12C5.27946 2.88 4.75425 2.76 4.22904 2.76C3.09781 2.76 2.411 3.32 2.411 4.16C2.411 5.08 3.38062 5.52 4.51184 5.92C6.57229 6.64 8.10752 7.36 8.10752 9.44C8.10752 11.6 6.41068 12.8 4.06743 12.8C1.88578 12.8 0.0273438 11.56 0.0273438 10.16ZM10.6932 11.72C10.4912 11.36 10.4104 10.96 10.4508 10.52V6.64H8.95594V5.04H10.4508V3.44L12.3496 2.64V5.04H14.6929V6.64H12.39V10.16C12.39 10.36 12.4304 10.56 12.5112 10.72C12.6728 10.96 12.996 11.12 13.3192 11.08C13.8445 11.04 14.3697 10.92 14.8141 10.68L14.6525 12.28C14.0869 12.56 13.4404 12.72 12.8344 12.72C11.8648 12.72 11.0972 12.44 10.6932 11.72ZM15.6625 8.84C15.6625 6.76 17.2381 4.92 19.743 4.92C22.2882 4.92 23.8235 6.72 23.8235 8.84C23.8235 10.92 22.2478 12.76 19.743 12.76C17.1977 12.72 15.6625 10.92 15.6625 8.84ZM21.8438 8.84C21.8438 7.48 20.955 6.52 19.743 6.52C18.4906 6.52 17.6421 7.48 17.6421 8.84C17.6421 10.2 18.531 11.16 19.743 11.16C20.955 11.16 21.8438 10.2 21.8438 8.84ZM31.54 6.16C31.54 6.8 31.0552 7.32 30.4088 7.32C29.924 7.32 29.4796 7.08 29.2776 6.64C28.6312 6.92 28.106 7.44 27.7424 8.08V11.04H29.0756V12.6H24.7123V11.04H25.8435V6.64H24.7123V5.04H27.6616V6.76C28.308 5.76 29.116 4.92 30.0856 4.92C31.0956 4.92 31.54 5.52 31.54 6.16ZM34.2065 16C33.1965 16 32.5501 15.4 32.5501 14.8C32.5097 14.32 32.8733 13.88 33.3985 13.84H33.5197C33.8833 13.84 34.2469 14.04 34.3681 14.4C34.6105 14.32 34.8529 14.16 34.9741 13.96C35.0953 13.76 35.2165 13.6 35.3377 13.36L35.9033 12.16L33.1965 6.6H32.2673V5H36.2266V6.48H35.0953L36.873 10.44L38.6506 6.48H37.479V5H41.3979V6.6H40.4686L36.873 14.08C36.7114 14.4 36.5094 14.72 36.2669 15C35.7417 15.64 35.0145 16 34.2065 16ZM44.2259 11.88L43.8219 12.64H42.5291V1.6H41.3575V0H44.4279V5.88C45.034 5.28 45.842 4.92 46.6904 4.92C48.7104 4.92 50.2457 6.52 50.2457 8.8C50.2457 11 48.6296 12.72 46.5692 12.72C45.7208 12.72 44.8723 12.44 44.2259 11.88ZM48.266 8.8C48.266 7.36 47.3772 6.52 46.246 6.52C45.5592 6.52 44.9127 6.8 44.4279 7.28V10.52C44.9531 10.88 45.5996 11.08 46.246 11.12C47.3368 11.12 48.266 10.32 48.266 8.8ZM51.0133 11.04H52.1849V1.6H51.0133V0H54.1242V11.04H55.2554V12.6H51.0133V11.04ZM56.0634 8.84C56.0634 6.76 57.639 4.92 60.1439 4.92C62.6891 4.92 64.2244 6.72 64.2244 8.84C64.2244 10.92 62.6487 12.76 60.1439 12.76C57.5986 12.72 56.0634 10.92 56.0634 8.84ZM62.2447 8.84C62.2447 7.48 61.3559 6.52 60.1439 6.52C58.8915 6.52 58.043 7.48 58.043 8.84C58.043 10.2 58.9319 11.16 60.1439 11.16C61.3559 11.16 62.2447 10.2 62.2447 8.84ZM65.2748 8.76C65.2748 6.64 67.012 4.92 69.1533 4.92C71.2541 4.92 72.6278 6.28 72.6278 7.44C72.6682 8.08 72.1833 8.68 71.5369 8.72H71.4157C70.7693 8.72 70.2845 8.2 70.2441 7.6C70.2441 7.36 70.3249 7.16 70.4865 6.96C70.3653 6.76 69.8805 6.44 69.1129 6.44C68.2241 6.44 67.1736 7.16 67.1736 8.8C67.1736 10.24 68.3049 11.16 69.6381 11.16C70.5673 11.16 71.3753 10.92 72.345 10.36L72.1834 12.04C71.3753 12.52 70.4057 12.76 69.4765 12.72C67.0928 12.72 65.2748 11.2 65.2748 8.76ZM73.6378 11.04H74.769V1.6H73.6378V0H76.6678V8.44L78.8899 6.56H77.8395V5.08H82.3644V6.68H80.9504L79.1727 8.16L81.112 11.04H82.3644V12.64H79.9807L77.7991 9.24L76.7083 10.16V11.12H77.6779V12.64H73.6782V11.04H73.6378ZM88.8689 7.76C88.2629 7.76 87.8185 7.4 87.8185 6.84C87.8185 6.72 87.8185 6.6 87.8589 6.52C87.4953 6.4 87.1317 6.32 86.7681 6.32C85.9197 6.32 85.4753 6.68 85.4753 7.08C85.4753 7.52 85.9197 7.72 87.0913 8.04C88.9093 8.52 90.0001 8.96 90.0001 10.32C90.0001 11.92 88.5053 12.76 86.7681 12.76C85.5965 12.76 84.344 12.36 83.8188 11.84C83.536 11.6 83.3744 11.2 83.3744 10.84C83.3744 10.28 83.8188 9.84 84.344 9.84H84.3844C84.9096 9.8 85.3945 10.24 85.3945 10.76V10.84C85.3945 10.96 85.3944 11.04 85.354 11.16C85.7985 11.32 86.2429 11.4 86.7277 11.4C87.4953 11.4 88.1417 11.16 88.1417 10.6C88.1417 10.24 87.8185 10 86.6469 9.68C84.546 9.12 83.6572 8.64 83.6572 7.36C83.6572 6.2 84.6268 4.96 86.7681 4.96C87.6973 4.96 88.8285 5.32 89.3537 5.8C89.6366 6.04 89.7577 6.4 89.7577 6.76C89.8385 7.32 89.4346 7.76 88.8689 7.76Z" fill="#CCD2D7"/>
</svg>
