<svg width="21" height="20" viewBox="0 0 21 20" fill="none" xmlns="http://www.w3.org/2000/svg">
<path fill-rule="evenodd" clip-rule="evenodd" d="M20.2004 10C20.2004 15.5228 15.6784 20 10.1002 20C4.52202 20 0 15.5228 0 10C0 4.47715 4.52202 0 10.1002 0C15.6784 0 20.2004 4.47715 20.2004 10ZM9.54098 11.5714V4.5C7.57377 4.5 6 6.07143 6 8.03571C6 10 7.57377 11.5714 9.54098 11.5714ZM10.459 8.42857V15.5C12.4262 15.5 14 13.9286 14 11.9643C14 10 12.4262 8.42857 10.459 8.42857ZM13.8033 6.16964C13.8033 5.25298 13.0492 4.5 12.1311 4.5C11.2131 4.5 10.459 5.25298 10.459 6.16964C10.459 7.08631 11.2131 7.83929 12.1311 7.83929C13.0492 7.83929 13.8033 7.08631 13.8033 6.16964ZM9.54098 13.8304C9.54098 12.9137 8.78689 12.1607 7.86885 12.1607C6.95082 12.1607 6.19672 12.9137 6.19672 13.8304C6.19672 14.747 6.95082 15.5 7.86885 15.5C8.78689 15.5 9.54098 14.747 9.54098 13.8304Z" fill="#CCD2D7"/>
</svg>
