<svg width="19" height="21" viewBox="0 0 19 21" fill="none" xmlns="http://www.w3.org/2000/svg">
<path d="M12.0703 0.0100098H6.07031V2.01001H12.0703V0.0100098ZM8.07031 13.01H10.0703V7.01001H8.07031V13.01ZM16.1003 6.39001L17.5203 4.97001C17.0903 4.46001 16.6203 3.98001 16.1103 3.56001L14.6903 4.98001C13.1403 3.74001 11.1903 3.00001 9.07031 3.00001C4.10031 3.00001 0.0703125 7.03001 0.0703125 12C0.0703125 16.97 4.09031 21 9.07031 21C14.0503 21 18.0703 16.97 18.0703 12C18.0703 9.89001 17.3303 7.94001 16.1003 6.39001ZM9.07031 19.01C5.20031 19.01 2.07031 15.88 2.07031 12.01C2.07031 8.14001 5.20031 5.01001 9.07031 5.01001C12.9403 5.01001 16.0703 8.14001 16.0703 12.01C16.0703 15.88 12.9403 19.01 9.07031 19.01Z" fill="#CCD2D7"/>
</svg>
