<svg width="87" height="80" viewBox="0 0 87 80" fill="none" xmlns="http://www.w3.org/2000/svg">
<path d="M2.72437 6.93481L24.0633 73.4622C24.9617 76.263 28.4743 77.1689 30.6152 75.1518L81.2429 27.453C83.5305 25.2977 82.553 21.4674 79.5124 20.6718L7.54567 1.84334C4.49287 1.04465 1.76058 3.93005 2.72437 6.93481Z" fill="#F99E74"/>
<path d="M28.6388 48.9998H45.5906V45.2569H34.8207V45.0878L39.0827 40.7533C43.8881 36.1411 45.2163 33.8954 45.2163 31.1063C45.2163 26.965 41.8477 23.9344 36.8732 23.9344C31.9712 23.9344 28.494 26.977 28.494 31.6738H32.756C32.756 29.1503 34.3498 27.5686 36.8129 27.5686C39.1673 27.5686 40.918 29.0054 40.918 31.3357C40.918 33.4003 39.6623 34.8733 37.2234 37.3485L28.6388 45.764V48.9998Z" fill="white"/>
</svg>
